STARTFONT 2.1
COMMENT
COMMENT Converted from OpenType font "TimesNewRomanPS-BoldMT.otf" by "otf2bdf 3.0".
COMMENT
FONT -FreeType-Times New Roman-Bold-R-Normal--42-300-100-100-P-208-ISO10646-1
SIZE 30 100 100
FONTBOUNDINGBOX 69 56 -23 -13
STARTPROPERTIES 19
FOUNDRY "FreeType"
FAMILY_NAME "Times New Roman"
WEIGHT_NAME "Bold"
SLANT "R"
SETWIDTH_NAME "Normal"
ADD_STYLE_NAME ""
PIXEL_SIZE 42
POINT_SIZE 300
RESOLUTION_X 100
RESOLUTION_Y 100
SPACING "P"
AVERAGE_WIDTH 208
CHARSET_REGISTRY "ISO10646"
CHARSET_ENCODING "1"
FONT_ASCENT 37
FONT_DESCENT 9
COPYRIGHT "© 2006 The Monotype Corporation. All Rights Reserved."
_OTF_FONTFILE "TimesNewRomanPS-BoldMT.otf"
_OTF_PSNAME "TimesNewRomanPS-BoldMT"
ENDPROPERTIES
CHARS 1425
STARTCHAR 0020
ENCODING 32
SWIDTH 240 0
DWIDTH 10 0
BBX 0 0 0 0
BITMAP
ENDCHAR
STARTCHAR 0021
ENCODING 33
SWIDTH 336 0
DWIDTH 14 0
BBX 6 28 4 -1
BITMAP
78
FC
FC
FC
FC
FC
FC
FC
F8
78
78
78
70
30
30
30
30
30
20
00
00
00
78
FC
FC
FC
FC
78
ENDCHAR
STARTCHAR 0022
ENCODING 34
SWIDTH 552 0
DWIDTH 23 0
BBX 15 13 4 15
BITMAP
783C
F83E
FC7E
FC7E
F83E
F83E
F83E
783C
701C
701C
701C
3018
2008
ENDCHAR
STARTCHAR 0023
ENCODING 35
SWIDTH 504 0
DWIDTH 21 0
BBX 19 29 1 -1
BITMAP
0381C0
0381C0
038180
038180
030380
070380
070380
070300
070300
FFFFE0
FFFFE0
0E0700
0E0600
0E0600
0C0E00
1C0E00
1C0E00
FFFFE0
FFFFE0
FFFFE0
381C00
381C00
381800
383800
303800
703800
703800
703000
607000
ENDCHAR
STARTCHAR 0024
ENCODING 36
SWIDTH 504 0
DWIDTH 21 0
BBX 18 31 2 -3
BITMAP
00C000
0FFC00
3CDF00
78C700
70C300
F0C300
F0C100
F8C100
FCC000
FEC000
FFC000
7FC000
3FF000
1FF800
0FFE00
07FF00
01FF00
00FF80
00FF80
00DF80
80CFC0
80C780
80C780
C0C780
E0C780
E0CF00
F8DE00
7FF800
01C000
00C000
00C000
ENDCHAR
STARTCHAR 0025
ENCODING 37
SWIDTH 1008 0
DWIDTH 42 0
BBX 36 29 3 -1
BITMAP
0FC0003800
3CE0007000
78F000E000
78F800E000
F8F801C000
F8F8038000
F8FC038000
F8FC070000
F8F80E0000
F8F80E0000
F8F81C0000
78F0380000
3CF0380000
1FC0700000
0200E01C00
0000E07F80
0001C0F3C0
000381E3E0
000381E1E0
000703E1F0
000E03E1F0
000E03E1F0
001C03E1F0
003803E1F0
003801E1E0
007001E1E0
00E000F3C0
00E0007380
01C0003F00
ENDCHAR
STARTCHAR 0026
ENCODING 38
SWIDTH 840 0
DWIDTH 35 0
BBX 31 29 2 -1
BITMAP
000FE000
003FF000
0070F800
00F07800
00F07800
01F07800
01F07800
01F87800
01F87000
01F9C000
00FF8000
00FC03FC
00FE01F8
03FF00F0
0E7F00E0
1C3F80C0
3C3FC0C0
7C1FE180
FC0FF300
FC0FF300
FC07FE00
FE03FC00
FE01FF00
FF00FF86
FF80FFFC
7FFFBFF8
3FFF1FF8
1FFC0FE0
03C00180
ENDCHAR
STARTCHAR 0027
ENCODING 39
SWIDTH 288 0
DWIDTH 12 0
BBX 6 13 3 15
BITMAP
78
FC
FC
FC
FC
F8
78
78
78
70
30
30
30
ENDCHAR
STARTCHAR 0028
ENCODING 40
SWIDTH 336 0
DWIDTH 14 0
BBX 11 36 2 -8
BITMAP
0020
00C0
0180
0300
0700
0E00
1E00
3C00
3C00
7C00
7C00
7C00
F800
F800
F800
F800
F800
F800
F800
F800
F800
F800
F800
F800
7C00
7C00
7C00
3C00
3C00
1E00
0E00
0F00
0700
0380
00C0
0060
ENDCHAR
STARTCHAR 0029
ENCODING 41
SWIDTH 336 0
DWIDTH 14 0
BBX 11 36 1 -8
BITMAP
8000
6000
3000
1800
1C00
0E00
0F00
0700
0780
07C0
07C0
07C0
03E0
03E0
03E0
03E0
03E0
03E0
03E0
03E0
03E0
03E0
03E0
03E0
07C0
07C0
07C0
0780
0780
0F00
0E00
1C00
1C00
3000
6000
8000
ENDCHAR
STARTCHAR 002A
ENCODING 42
SWIDTH 504 0
DWIDTH 21 0
BBX 16 15 2 12
BITMAP
01C0
03E0
03E0
01C0
61C2
788F
FC9F
7EBF
01C0
0140
0760
0E38
1E3C
1E3C
1C3C
ENDCHAR
STARTCHAR 002B
ENCODING 43
SWIDTH 576 0
DWIDTH 24 0
BBX 22 22 1 3
BITMAP
003000
003000
003000
003000
003000
003000
003000
003000
003000
003000
FFFFFC
FFFFFC
FFFFFC
003000
003000
003000
003000
003000
003000
003000
003000
003000
ENDCHAR
STARTCHAR 002C
ENCODING 44
SWIDTH 240 0
DWIDTH 10 0
BBX 8 13 1 -7
BITMAP
3C
7E
FF
FF
7F
7F
03
07
06
06
0C
18
60
ENDCHAR
STARTCHAR 002D
ENCODING 45
SWIDTH 336 0
DWIDTH 14 0
BBX 12 5 1 7
BITMAP
FFF0
FFF0
FFF0
FFF0
FFF0
ENDCHAR
STARTCHAR 002E
ENCODING 46
SWIDTH 240 0
DWIDTH 10 0
BBX 7 6 2 -1
BITMAP
78
FC
FE
FE
FC
7C
ENDCHAR
STARTCHAR 002F
ENCODING 47
SWIDTH 288 0
DWIDTH 12 0
BBX 11 29 0 -1
BITMAP
0060
0060
00E0
00E0
00C0
01C0
01C0
0180
0380
0380
0300
0700
0700
0600
0E00
0E00
0C00
0C00
1C00
1C00
1800
3800
3800
3000
7000
7000
6000
E000
E000
ENDCHAR
STARTCHAR 0030
ENCODING 48
SWIDTH 504 0
DWIDTH 21 0
BBX 17 29 2 -1
BITMAP
03E000
0E7800
1C3C00
3C1E00
3C1E00
7C1F00
7C1F00
FC1F80
FC1F80
FC1F80
FC1F80
FC1F80
FC1F80
FC1F80
FC1F80
FC1F80
FC1F80
FC1F80
FC1F80
FC1F80
FC1F80
7C1F00
7C1F00
7C1F00
3C1E00
1C1C00
1E3800
07F000
008000
ENDCHAR
STARTCHAR 0031
ENCODING 49
SWIDTH 504 0
DWIDTH 21 0
BBX 15 28 3 0
BITMAP
00E0
03E0
0FE0
3FE0
FFE0
0FE0
07E0
07E0
07E0
07E0
07E0
07E0
07E0
07E0
07E0
07E0
07E0
07E0
07E0
07E0
07E0
07E0
07E0
07E0
07E0
0FE0
0FE0
FFFE
ENDCHAR
STARTCHAR 0032
ENCODING 50
SWIDTH 504 0
DWIDTH 21 0
BBX 18 28 1 0
BITMAP
03F000
0FFC00
1FFE00
3FFF00
3FFF00
607F00
403F80
003F00
001F00
001F00
001F00
001E00
003E00
003C00
003C00
007800
007000
00E000
01C000
018000
030040
0600C0
0C0180
1FFF80
1FFF80
3FFF80
7FFF80
FFFF00
ENDCHAR
STARTCHAR 0033
ENCODING 51
SWIDTH 504 0
DWIDTH 21 0
BBX 17 29 1 -1
BITMAP
03F800
07FC00
1FFE00
1FFF00
30FF00
603F00
403F00
001F00
001E00
003E00
003800
007800
00FE00
07FF00
03FF80
007F80
003F80
001F80
000F80
000F80
000780
000780
000780
600700
F80E00
FC0C00
FF3800
7FE000
060000
ENDCHAR
STARTCHAR 0034
ENCODING 52
SWIDTH 504 0
DWIDTH 21 0
BBX 18 28 1 0
BITMAP
000700
000F00
001F00
003F00
003F00
007F00
00FF00
01BF00
01BF00
033F00
063F00
063F00
0C3F00
183F00
303F00
303F00
603F00
C03F00
FFFFC0
FFFFC0
FFFFC0
FFFFC0
003F00
003F00
003F00
003F00
003F00
003F00
ENDCHAR
STARTCHAR 0035
ENCODING 53
SWIDTH 504 0
DWIDTH 21 0
BBX 17 29 2 -1
BITMAP
0FFF80
0FFF80
0FFF00
1FFF00
1FFF00
1FFE00
300000
300000
700000
7FC000
7FF000
FFFC00
FFFE00
FFFF00
0FFF00
00FF80
003F80
001F80
000F80
000780
000780
000380
000300
F00300
F80600
FE0C00
FFF800
7FE000
060000
ENDCHAR
STARTCHAR 0036
ENCODING 54
SWIDTH 504 0
DWIDTH 21 0
BBX 18 29 2 -1
BITMAP
000F80
003C00
00F000
03E000
07C000
0F8000
1F0000
3F0000
3E0000
7E0000
7C2000
7FFC00
FFFE00
FC3F00
FC1F80
FC1F80
FC1F80
FC1F80
FC0FC0
FC0FC0
FC0F80
FC0F80
FC0F80
7C0F80
7E0F00
3E1E00
1F1C00
07F800
008000
ENDCHAR
STARTCHAR 0037
ENCODING 55
SWIDTH 504 0
DWIDTH 21 0
BBX 19 29 1 -1
BITMAP
3FFFE0
3FFFC0
3FFFC0
3FFFC0
7FFFC0
7FFF80
700380
400780
800700
000700
000F00
000E00
000E00
001E00
001C00
001C00
003C00
003800
003800
007800
007000
007000
00F000
00E000
00E000
01E000
01C000
01C000
03C000
ENDCHAR
STARTCHAR 0038
ENCODING 56
SWIDTH 504 0
DWIDTH 21 0
BBX 18 29 1 -1
BITMAP
03FC00
0F1E00
1E0F80
3E0780
7C07C0
7C07C0
7E07C0
7E07C0
7F07C0
7F8780
3FCF00
3FFE00
1FF800
07FE00
03FF00
07FF80
1E7F80
3C3FC0
7C1FC0
7C0FC0
7C0FC0
FC07C0
7C07C0
7C07C0
7C0780
3C0F80
1E0F00
0FFC00
00C000
ENDCHAR
STARTCHAR 0039
ENCODING 57
SWIDTH 504 0
DWIDTH 21 0
BBX 18 29 1 -1
BITMAP
03F000
0F7C00
1E1E00
3C1F00
3C1F80
7C0F80
7C0FC0
7C0FC0
FC0FC0
FC0FC0
FC0FC0
FE0FC0
7E0FC0
7E0FC0
7F0FC0
3F9FC0
1FFFC0
07CF80
001F80
001F00
001F00
003E00
007C00
007800
00F000
03E000
078000
3E0000
C00000
ENDCHAR
STARTCHAR 003A
ENCODING 58
SWIDTH 336 0
DWIDTH 14 0
BBX 6 19 4 0
BITMAP
F8
FC
FC
FC
FC
78
00
00
00
00
00
00
00
78
FC
FC
FC
FC
78
ENDCHAR
STARTCHAR 003B
ENCODING 59
SWIDTH 336 0
DWIDTH 14 0
BBX 8 26 3 -6
BITMAP
7C
7E
7E
7E
7E
3C
00
00
00
00
00
00
00
7C
7E
FE
FF
FF
7F
07
06
06
0C
0C
10
60
ENDCHAR
STARTCHAR 003C
ENCODING 60
SWIDTH 576 0
DWIDTH 24 0
BBX 22 19 1 5
BITMAP
00001C
00007C
0003F8
000FE0
003F00
01FC00
07F000
3F8000
FE0000
F80000
7F0000
1FC000
03F800
00FE00
003F80
0007F0
0001FC
00003C
00000C
ENDCHAR
STARTCHAR 003D
ENCODING 61
SWIDTH 576 0
DWIDTH 24 0
BBX 22 9 1 9
BITMAP
FFFFFC
FFFFFC
000000
000000
000000
000000
FFFFFC
FFFFFC
FFFFFC
ENDCHAR
STARTCHAR 003E
ENCODING 62
SWIDTH 576 0
DWIDTH 24 0
BBX 22 19 1 5
BITMAP
E00000
F80000
7F0000
1FC000
07F800
00FE00
003F80
0007F0
0001FC
0000FC
0003F8
000FE0
007F00
01FC00
0FE000
3F8000
FC0000
F00000
C00000
ENDCHAR
STARTCHAR 003F
ENCODING 63
SWIDTH 504 0
DWIDTH 21 0
BBX 16 29 3 -1
BITMAP
1FF0
31F8
60FC
F07E
F07E
F87E
F87F
F07E
607E
007E
007C
00F8
00F0
01C0
0180
0300
0200
0200
0200
0000
0000
0000
0780
0F80
0FC0
1FC0
0FC0
0F80
0200
ENDCHAR
STARTCHAR 0040
ENCODING 64
SWIDTH 936 0
DWIDTH 39 0
BBX 36 37 2 -9
BITMAP
0003FF8000
001F00E000
0078003800
01E0000C00
0380000600
0700000300
0E00000100
0C00000080
1800200080
3801FBE0C0
3003CBE040
70078FC040
600F0FC040
601F0FC040
E01E0F8040
C03E0F8040
C03C0F8040
C07C1F0040
C07C1F0080
C0FC1F0080
C0F83F0180
C0F87E0100
C0F87E0300
C0F8BE0200
60FF3E0C00
60FF3E1830
607E3FF020
30380F8040
3000000040
1800000080
0C00000100
0600000200
0300000400
0180001800
00E0007000
003C03C000
0007FC0000
ENDCHAR
STARTCHAR 0041
ENCODING 65
SWIDTH 720 0
DWIDTH 30 0
BBX 30 28 0 0
BITMAP
00010000
00030000
00038000
00078000
00078000
000FC000
000FC000
000FE000
001FE000
0017F000
0037F000
0023F800
0063F800
0063F800
00C1FC00
00C1FC00
0080FE00
0180FE00
01007F00
03FFFF00
02007F00
06003F80
06003F80
0C001FC0
0C001FC0
1C000FE0
3C001FF0
FFC0FFFC
ENDCHAR
STARTCHAR 0042
ENCODING 66
SWIDTH 672 0
DWIDTH 28 0
BBX 25 28 1 0
BITMAP
FFFE0000
3FFFF000
1FC3FC00
0FC0FE00
0FC07E00
0FC07F00
0FC07F00
0FC07F00
0FC07F00
0FC07F00
0FC0FE00
0FC1FC00
0FC3F000
0FFFC000
0FC7F800
0FC0FE00
0FC07F00
0FC07F80
0FC03F80
0FC03F80
0FC03F80
0FC03F80
0FC03F80
0FC03F80
0FC07F00
0FC0FE00
1FFFF800
FFFFC000
ENDCHAR
STARTCHAR 0043
ENCODING 67
SWIDTH 720 0
DWIDTH 30 0
BBX 26 29 2 -1
BITMAP
003FE040
00FFFCC0
03F00FC0
07E003C0
0FC001C0
1F8001C0
3F0000C0
3F0000C0
7F000040
7E000000
FE000000
FE000000
FE000000
FE000000
FE000000
FE000000
FE000000
FE000000
FE000000
FF000000
7F000000
7F000000
3F800080
1F800080
0FC00380
07E00700
03FC3C00
00FFF800
00070000
ENDCHAR
STARTCHAR 0044
ENCODING 68
SWIDTH 720 0
DWIDTH 30 0
BBX 27 28 1 0
BITMAP
FFF80000
3FFFE000
1FC1F800
1FC0FE00
1FC07F00
1FC03F80
1FC01F80
1FC01FC0
1FC01FC0
1FC00FE0
1FC00FE0
1FC00FE0
1FC00FE0
1FC00FE0
1FC00FE0
1FC00FE0
1FC00FE0
1FC00FE0
1FC00FE0
1FC00FC0
1FC01FC0
1FC01FC0
1FC01F80
1FC03F00
1FC07E00
1FC0FC00
1FFFF000
FFFF8000
ENDCHAR
STARTCHAR 0045
ENCODING 69
SWIDTH 672 0
DWIDTH 28 0
BBX 25 28 1 0
BITMAP
FFFFFE00
3FFFFE00
1FC03E00
0FC00E00
0FC00600
0FC00600
0FC00200
0FC08200
0FC08200
0FC08000
0FC18000
0FC18000
0FC38000
0FFF8000
0FFF8000
0FC38000
0FC18000
0FC18000
0FC08000
0FC08080
0FC08080
0FC00180
0FC00100
0FC00300
0FC00700
0FE00F00
1FFFFF00
FFFFFF00
ENDCHAR
STARTCHAR 0046
ENCODING 70
SWIDTH 600 0
DWIDTH 25 0
BBX 23 28 1 0
BITMAP
FFFFFE
3FFFFE
0FC03E
0FC00E
0FC006
0FC002
0FC002
0FC042
0FC040
0FC040
0FC0C0
0FC0C0
0FC1C0
0FFFC0
0FFFC0
0FC3C0
0FC0C0
0FC0C0
0FC040
0FC040
0FC040
0FC000
0FC000
0FC000
0FE000
0FE000
1FE000
FFFC00
ENDCHAR
STARTCHAR 0047
ENCODING 71
SWIDTH 768 0
DWIDTH 32 0
BBX 30 29 2 -1
BITMAP
003FF020
00FE3E60
03F00FE0
07C003E0
0FC001E0
1F8000E0
3F000060
7F000060
7F000020
7F000020
FE000000
FE000000
FE000000
FE000000
FE000000
FE000000
FE007FFC
FE001FF0
FE000FE0
7F000FE0
7F000FE0
7F000FE0
3F000FE0
1F800FE0
0FC00FE0
07E00FE0
01F80FC0
007FFE00
0007C000
ENDCHAR
STARTCHAR 0048
ENCODING 72
SWIDTH 768 0
DWIDTH 32 0
BBX 31 28 1 0
BITMAP
FFFCFFFE
3FF01FF0
0FE00FE0
0FC00FE0
0FC00FE0
0FC00FE0
0FC00FE0
0FC00FE0
0FC00FE0
0FC00FE0
0FC00FE0
0FC00FE0
0FC00FE0
0FFFFFE0
0FFFFFE0
0FC00FE0
0FC00FE0
0FC00FE0
0FC00FE0
0FC00FE0
0FC00FE0
0FC00FE0
0FC00FE0
0FC00FE0
0FC00FE0
0FE00FE0
1FE00FE0
FFFCFFFE
ENDCHAR
STARTCHAR 0049
ENCODING 73
SWIDTH 384 0
DWIDTH 16 0
BBX 14 28 1 0
BITMAP
FFFC
3FF0
1FE0
0FC0
0FC0
0FC0
0FC0
0FC0
0FC0
0FC0
0FC0
0FC0
0FC0
0FC0
0FC0
0FC0
0FC0
0FC0
0FC0
0FC0
0FC0
0FC0
0FC0
0FC0
0FC0
0FE0
1FE0
FFFC
ENDCHAR
STARTCHAR 004A
ENCODING 74
SWIDTH 504 0
DWIDTH 21 0
BBX 21 29 0 -1
BITMAP
03FFF8
007FC0
003F80
003F80
003F80
003F80
003F80
003F80
003F80
003F80
003F80
003F80
003F80
003F80
003F80
003F80
003F80
003F80
003F80
003F80
7C3F80
7C3F80
FC3F00
7C3F00
783F00
783E00
3C7C00
0FF800
018000
ENDCHAR
STARTCHAR 004B
ENCODING 75
SWIDTH 768 0
DWIDTH 32 0
BBX 32 28 1 0
BITMAP
FFFC0FFE
3FF003F8
0FE001E0
0FE001C0
0FC00300
0FC00600
0FC01C00
0FC03800
0FC06000
0FC0C000
0FC38000
0FC78000
0FCFC000
0FDFC000
0FFFE000
0FEFF000
0FC7F800
0FC3FC00
0FC3FC00
0FC1FE00
0FC0FF00
0FC07F80
0FC07FC0
0FC03FC0
0FE01FE0
0FE00FF0
1FE00FF8
FFFC3FFF
ENDCHAR
STARTCHAR 004C
ENCODING 76
SWIDTH 672 0
DWIDTH 28 0
BBX 25 28 1 0
BITMAP
FFFC0000
3FF00000
1FE00000
0FC00000
0FC00000
0FC00000
0FC00000
0FC00000
0FC00000
0FC00000
0FC00000
0FC00000
0FC00000
0FC00000
0FC00000
0FC00000
0FC00000
0FC00000
0FC00080
0FC00080
0FC00080
0FC00180
0FC00180
0FC00380
0FC00780
0FE00F80
1FFFFF00
FFFFFF00
ENDCHAR
STARTCHAR 004D
ENCODING 77
SWIDTH 936 0
DWIDTH 39 0
BBX 38 28 1 0
BITMAP
FFE0003FFC
3FF0003FE0
1FF0007FC0
0FF0007FC0
0BF8005FC0
0BF800DFC0
09FC00DFC0
09FC019FC0
08FE019FC0
08FE011FC0
08FE031FC0
087F021FC0
087F061FC0
083F861FC0
083F841FC0
081FCC1FC0
081FC81FC0
081FD81FC0
080FF01FC0
080FF01FC0
0807F01FC0
0807E01FC0
0803E01FC0
0803C01FC0
0803C01FC0
1C01C01FC0
1C01803FC0
FF8081FFFC
ENDCHAR
STARTCHAR 004E
ENCODING 78
SWIDTH 720 0
DWIDTH 30 0
BBX 28 29 1 -1
BITMAP
FF801FF0
7FC007C0
1FE00380
1FF00180
0FF80180
0FF80180
0BFC0180
09FE0180
09FF0180
08FF8180
087F8180
083FC180
081FE180
081FF180
080FF980
0807F980
0803FD80
0801FF80
0800FF80
0800FF80
08007F80
08003F80
08001F80
08000F80
08000F80
1C000780
1C000380
FF800180
00000080
ENDCHAR
STARTCHAR 004F
ENCODING 79
SWIDTH 768 0
DWIDTH 32 0
BBX 29 29 2 -1
BITMAP
003FE000
01F8FC00
07E03E00
0FC01F00
1F800F80
3F000FC0
3F0007E0
7F0007F0
7F0007F0
FE0007F0
FE0007F8
FE0003F8
FE0003F8
FE0003F8
FE0003F8
FE0003F8
FE0003F8
FE0007F8
FE0007F0
7E0007F0
7F0007F0
7F0007E0
3F000FC0
1F800FC0
0F801F80
07C03F00
03F07C00
00FFF000
00070000
ENDCHAR
STARTCHAR 0050
ENCODING 80
SWIDTH 600 0
DWIDTH 25 0
BBX 23 28 1 0
BITMAP
FFFC00
1FFFE0
0FC3F8
0FC1FC
0FC0FC
0FC0FE
0FC0FE
0FC0FE
0FC0FE
0FC0FE
0FC0FE
0FC0FC
0FC1F8
0FC3F0
0FFFE0
0FE000
0FC000
0FC000
0FC000
0FC000
0FC000
0FC000
0FC000
0FC000
0FC000
0FC000
1FE000
FFFC00
ENDCHAR
STARTCHAR 0051
ENCODING 81
SWIDTH 768 0
DWIDTH 32 0
BBX 29 36 2 -8
BITMAP
007FE000
01F8FC00
07E03E00
0FC01F00
1F800F80
3F000FC0
3F0007E0
7F0007F0
7F0007F0
FE0007F0
FE0007F8
FE0003F8
FE0003F8
FE0003F8
FE0003F8
FE0003F8
FE0003F8
FE0003F8
FE0007F0
7E0007F0
7F0007F0
7F0007E0
3F000FC0
1F800FC0
0F801F80
07C01F00
03F07C00
00FFF000
001FC000
001FC000
000FE000
0007F000
0003F800
0001FF00
00007FF0
00000200
ENDCHAR
STARTCHAR 0052
ENCODING 82
SWIDTH 720 0
DWIDTH 30 0
BBX 29 28 1 0
BITMAP
FFFE0000
3FFFF800
1FC0FE00
0FC07F00
0FC03F00
0FC03F80
0FC03F80
0FC03F80
0FC03F80
0FC03F80
0FC03F80
0FC03F00
0FC07F00
0FC1FC00
0FFFF000
0FCFE000
0FC7F000
0FC7F800
0FC3FC00
0FC1FC00
0FC1FE00
0FC0FF00
0FC07F00
0FC03F80
0FC03FC0
1FC01FE0
1FE00FE0
FFFC0FF8
ENDCHAR
STARTCHAR 0053
ENCODING 83
SWIDTH 552 0
DWIDTH 23 0
BBX 20 29 2 -1
BITMAP
07F840
1F1EC0
3C07C0
7803C0
7801C0
7800C0
F800C0
FC0040
FE0040
FF8000
7FE000
7FF800
3FFC00
1FFF00
0FFF80
03FFC0
01FFE0
007FE0
801FE0
8007E0
C003F0
C003E0
E001E0
E001E0
F001C0
F80380
FE0700
C7FE00
807000
ENDCHAR
STARTCHAR 0054
ENCODING 84
SWIDTH 672 0
DWIDTH 28 0
BBX 24 28 2 0
BITMAP
FFFFFF
FFFFFF
F07E0F
C07E03
807E03
807E01
807E01
007E01
007E00
007E00
007E00
007E00
007E00
007E00
007E00
007E00
007E00
007E00
007E00
007E00
007E00
007E00
007E00
007E00
007E00
00FE00
00FF00
07FFE0
ENDCHAR
STARTCHAR 0055
ENCODING 85
SWIDTH 720 0
DWIDTH 30 0
BBX 28 29 1 -1
BITMAP
FFFC1FF0
3FE007C0
1FC00380
1FC00180
0FC00180
0FC00180
0FC00180
0FC00180
0FC00180
0FC00180
0FC00180
0FC00180
0FC00180
0FC00180
0FC00180
0FC00180
0FC00180
0FC00180
0FC00100
0FC00100
0FC00100
0FC00300
0FC00300
0FE00300
07E00600
07F00C00
03FE7800
00FFF000
000E0000
ENDCHAR
STARTCHAR 0056
ENCODING 86
SWIDTH 720 0
DWIDTH 30 0
BBX 30 29 0 -1
BITMAP
FFFC07FC
3FE001F8
1FC000E0
1FC000C0
0FE000C0
0FE00080
07F00180
07F00100
03F80300
03F80300
03F80600
01FC0600
01FC0400
00FE0C00
00FE0800
007F1800
007F1000
007F3000
003FB000
003FE000
001FE000
001FC000
000FC000
000F8000
000F8000
00070000
00070000
00020000
00020000
ENDCHAR
STARTCHAR 0057
ENCODING 87
SWIDTH 1008 0
DWIDTH 42 0
BBX 41 29 0 -1
BITMAP
FFF1FFF03F80
3FE07FC00F00
1FC03F800600
1FC01FC00600
1FC01FC00400
0FE01FC00C00
0FE00FE00C00
07F00FE00800
07F007E01800
07F00FF01000
03F80FF03000
03F80BF83000
01FC1BF82000
01FC11F86000
00FC31FC6000
00FE31FC4000
00FE60FEC000
007F60FE8000
007F40FF8000
003FC07F8000
003F807F0000
003F803F0000
001F803E0000
001F003E0000
000F001E0000
000E001C0000
000E000C0000
0004000C0000
000400080000
ENDCHAR
STARTCHAR 0058
ENCODING 88
SWIDTH 720 0
DWIDTH 30 0
BBX 30 28 0 0
BITMAP
7FFE1FF8
3FF007E0
1FF00380
0FF00380
07F80700
07F80600
03FC0C00
01FE1800
01FE3000
00FF3000
007FE000
003FC000
003FC000
001FE000
000FE000
000FF000
000FF800
001BF800
0033FC00
0061FE00
00C0FE00
00C0FF00
01807F80
03003FC0
06003FC0
0E001FE0
1F001FF0
FFE0FFFC
ENDCHAR
STARTCHAR 0059
ENCODING 89
SWIDTH 720 0
DWIDTH 30 0
BBX 30 28 0 0
BITMAP
FFFC07FC
3FE001F0
1FE000E0
0FE000C0
0FF000C0
07F00180
03F80100
03F80300
01FC0600
01FC0600
00FE0C00
00FF0800
007F1800
007FB000
003FB000
003FE000
001FC000
000FC000
000FC000
000FC000
000FC000
000FC000
000FC000
000FC000
000FC000
000FC000
001FE000
01FFFE00
ENDCHAR
STARTCHAR 005A
ENCODING 90
SWIDTH 672 0
DWIDTH 28 0
BBX 26 28 1 0
BITMAP
1FFFFF00
1FFFFF00
3E00FE00
3801FE00
3003FC00
3003F800
2007F800
200FF000
000FE000
001FE000
001FC000
003FC000
007F8000
007F0000
00FF0000
01FE0000
01FC0000
03FC0000
03F80040
07F80040
0FF00040
0FE000C0
1FE000C0
3FC00180
3F800380
7F800F80
7FFFFF80
FFFFFF80
ENDCHAR
STARTCHAR 005B
ENCODING 91
SWIDTH 336 0
DWIDTH 14 0
BBX 9 36 4 -8
BITMAP
FF80
FC00
F800
F800
F800
F800
F800
F800
F800
F800
F800
F800
F800
F800
F800
F800
F800
F800
F800
F800
F800
F800
F800
F800
F800
F800
F800
F800
F800
F800
F800
F800
F800
F800
FC00
FF80
ENDCHAR
STARTCHAR 005C
ENCODING 92
SWIDTH 288 0
DWIDTH 12 0
BBX 12 29 0 -1
BITMAP
E000
6000
6000
7000
7000
3000
3800
3800
1800
1C00
1C00
0C00
0E00
0E00
0600
0700
0700
0300
0380
0380
0180
0180
01C0
01C0
00C0
00E0
00E0
0060
0070
ENDCHAR
STARTCHAR 005D
ENCODING 93
SWIDTH 336 0
DWIDTH 14 0
BBX 9 36 1 -8
BITMAP
FF80
1F80
0F80
0F80
0F80
0F80
0F80
0F80
0F80
0F80
0F80
0F80
0F80
0F80
0F80
0F80
0F80
0F80
0F80
0F80
0F80
0F80
0F80
0F80
0F80
0F80
0F80
0F80
0F80
0F80
0F80
0F80
0F80
0F80
1F80
FF80
ENDCHAR
STARTCHAR 005E
ENCODING 94
SWIDTH 576 0
DWIDTH 24 0
BBX 18 14 3 14
BITMAP
00C000
01E000
01F000
03F000
03F800
073800
073C00
0E1C00
1C0E00
1C0E00
380700
380780
700380
F003C0
ENDCHAR
STARTCHAR 005F
ENCODING 95
SWIDTH 504 0
DWIDTH 21 0
BBX 21 3 0 -9
BITMAP
FFFFF8
FFFFF8
FFFFF8
ENDCHAR
STARTCHAR 0060
ENCODING 96
SWIDTH 336 0
DWIDTH 14 0
BBX 8 8 1 21
BITMAP
FC
7C
3E
1E
0E
07
03
03
ENDCHAR
STARTCHAR 0061
ENCODING 97
SWIDTH 504 0
DWIDTH 21 0
BBX 18 20 2 0
BITMAP
00C000
0FF800
387C00
783E00
783E00
FC3F00
FC3F00
783F00
107F00
01FF00
073F00
1E3F00
3C3F00
7C3F00
F83F00
FC3F00
FC7F00
FFFF40
FF3F80
7E1F00
ENDCHAR
STARTCHAR 0062
ENCODING 98
SWIDTH 552 0
DWIDTH 23 0
BBX 20 29 1 -1
BITMAP
FF0000
7F0000
3F0000
3F0000
3F0000
3F0000
3F0000
3F0000
3F0C00
3F3F80
3FFFC0
3F87E0
3F03E0
3F03F0
3F03F0
3F03F0
3F03F0
3F03F0
3F03F0
3F03F0
3F03F0
3F03F0
3F03F0
3F03E0
3F03E0
3F07C0
3F8780
31FE00
201000
ENDCHAR
STARTCHAR 0063
ENCODING 99
SWIDTH 456 0
DWIDTH 19 0
BBX 15 21 2 -1
BITMAP
0080
0FF8
1C7C
3C7E
783E
783E
F83E
F81C
F800
F800
F800
FC00
FC00
FC00
FE00
7E00
7F06
3FFC
1FF8
0FF0
0180
ENDCHAR
STARTCHAR 0064
ENCODING 100
SWIDTH 552 0
DWIDTH 23 0
BBX 20 29 2 -1
BITMAP
007FC0
001FC0
000FC0
000FC0
000FC0
000FC0
000FC0
000FC0
018FC0
0FEFC0
1F7FC0
3E1FC0
7C0FC0
7C0FC0
FC0FC0
FC0FC0
FC0FC0
FC0FC0
FC0FC0
FC0FC0
FC0FC0
FC0FC0
FC0FC0
FC0FC0
7E1FC0
7E3FC0
3FEFF0
1FCFC0
030800
ENDCHAR
STARTCHAR 0065
ENCODING 101
SWIDTH 456 0
DWIDTH 19 0
BBX 16 21 2 -1
BITMAP
0180
0FF0
1C78
3C3C
783C
783E
F83E
F81E
FFFE
FFFF
F800
F800
FC00
FC00
FC00
FE02
7F06
7FFC
3FF8
0FF0
0100
ENDCHAR
STARTCHAR 0066
ENCODING 102
SWIDTH 336 0
DWIDTH 14 0
BBX 16 28 1 0
BITMAP
01FC
039F
079F
0F9F
1F8E
1F80
1F80
1F80
1F80
FFF0
FFF0
1F80
1F80
1F80
1F80
1F80
1F80
1F80
1F80
1F80
1F80
1F80
1F80
1F80
1F80
1F80
1F80
FFF0
ENDCHAR
STARTCHAR 0067
ENCODING 103
SWIDTH 504 0
DWIDTH 21 0
BBX 18 29 2 -9
BITMAP
018000
1FFFC0
3C3FC0
7C3C00
FC1E00
F81F00
F81F00
F81F00
F81F00
F81F00
FC1F00
7C3E00
3E3C00
0FF000
180000
300000
700000
F80000
FFFE00
FFFF80
7FFFC0
3FFFC0
3FFFC0
F003C0
E001C0
E00180
F00380
7F3E00
0FF800
ENDCHAR
STARTCHAR 0068
ENCODING 104
SWIDTH 552 0
DWIDTH 23 0
BBX 21 28 1 0
BITMAP
FF0000
3F0000
3F0000
3F0000
3F0000
3F0000
3F0000
3F0000
3F0400
3F3F80
3F7FC0
3FCFC0
3F87E0
3F07E0
3F07E0
3F07E0
3F07E0
3F07E0
3F07E0
3F07E0
3F07E0
3F07E0
3F07E0
3F07E0
3F07E0
3F07E0
3F87E0
FFDFF8
ENDCHAR
STARTCHAR 0069
ENCODING 105
SWIDTH 288 0
DWIDTH 12 0
BBX 10 28 1 0
BITMAP
1E00
3F00
3F00
3F00
3F00
1E00
0000
0000
0000
FF00
3F00
3F00
3F00
3F00
3F00
3F00
3F00
3F00
3F00
3F00
3F00
3F00
3F00
3F00
3F00
3F00
3F00
FFC0
ENDCHAR
STARTCHAR 006A
ENCODING 106
SWIDTH 336 0
DWIDTH 14 0
BBX 11 37 -1 -9
BITMAP
03C0
07E0
07E0
07E0
03E0
01C0
0000
0000
0000
1FE0
07E0
07E0
07E0
07E0
07E0
07E0
07E0
07E0
07E0
07E0
07E0
07E0
07E0
07E0
07E0
07E0
07E0
07E0
07E0
07E0
03E0
43E0
F3E0
F3E0
F3C0
7780
3F00
ENDCHAR
STARTCHAR 006B
ENCODING 107
SWIDTH 552 0
DWIDTH 23 0
BBX 23 28 1 0
BITMAP
FF0000
3F0000
3F0000
3F0000
3F0000
3F0000
3F0000
3F0000
3F0000
3F0FF8
3F03E0
3F0180
3F0300
3F0600
3F0C00
3F1800
3F3C00
3F7E00
3FFE00
3FBF00
3F3F80
3F1F80
3F0FC0
3F0FE0
3F07E0
3F03F0
3F83F8
FFC7FE
ENDCHAR
STARTCHAR 006C
ENCODING 108
SWIDTH 288 0
DWIDTH 12 0
BBX 10 28 1 0
BITMAP
FF00
7F00
3F00
3F00
3F00
3F00
3F00
3F00
3F00
3F00
3F00
3F00
3F00
3F00
3F00
3F00
3F00
3F00
3F00
3F00
3F00
3F00
3F00
3F00
3F00
3F00
3F00
FFC0
ENDCHAR
STARTCHAR 006D
ENCODING 109
SWIDTH 840 0
DWIDTH 35 0
BBX 32 20 2 0
BITMAP
000C0080
FE3F87F0
7EFF8FF8
3F8FF9F8
3F07E0F8
3E07E0FC
3E07C0FC
3E07C0FC
3E07C0FC
3E07C0FC
3E07C0FC
3E07C0FC
3E07C0FC
3E07C0FC
3E07C0FC
3E07C0FC
3E07C0FC
3E07E0FC
7F0FE1FC
FF9FFBFF
ENDCHAR
STARTCHAR 006E
ENCODING 110
SWIDTH 552 0
DWIDTH 23 0
BBX 21 20 1 0
BITMAP
000600
FF3F80
3F7FC0
3FCFC0
3F87E0
3F07E0
3F07E0
3F07E0
3F07E0
3F07E0
3F07E0
3F07E0
3F07E0
3F07E0
3F07E0
3F07E0
3F07E0
3F07E0
3F87E0
FFDFF8
ENDCHAR
STARTCHAR 006F
ENCODING 111
SWIDTH 504 0
DWIDTH 21 0
BBX 17 21 2 -1
BITMAP
008000
0FF800
1E3C00
3C1E00
7C1F00
7C1F00
FC1F80
FC1F80
FC1F80
FC1F80
FC1F80
FC1F80
FC1F80
FC1F80
FC1F80
7C1F00
7C1F00
3C1E00
1E3C00
0FF800
008000
ENDCHAR
STARTCHAR 0070
ENCODING 112
SWIDTH 552 0
DWIDTH 23 0
BBX 20 29 1 -9
BITMAP
000C00
FF3F80
3F7FC0
3F87E0
3F87E0
3F03F0
3F03F0
3F03F0
3F03F0
3F03F0
3F03F0
3F03F0
3F03F0
3F03F0
3F03F0
3F03F0
3F03E0
3F87E0
3FFFC0
3F7F00
3F0800
3F0000
3F0000
3F0000
3F0000
3F0000
3F0000
3F0000
FFE000
ENDCHAR
STARTCHAR 0071
ENCODING 113
SWIDTH 552 0
DWIDTH 23 0
BBX 20 29 2 -9
BITMAP
00C040
07F8C0
1E1FC0
3E0FC0
3C0FC0
7C0FC0
7C0FC0
FC0FC0
FC0FC0
FC0FC0
FC0FC0
FC0FC0
FC0FC0
FC0FC0
FC0FC0
FC0FC0
7C0FC0
7E1FC0
3FFFC0
1FCFC0
030FC0
000FC0
000FC0
000FC0
000FC0
000FC0
000FC0
000FC0
007FF0
ENDCHAR
STARTCHAR 0072
ENCODING 114
SWIDTH 456 0
DWIDTH 19 0
BBX 16 20 2 0
BITMAP
0004
FE3F
7E7F
3E7F
3EDF
3F8E
3F00
3F00
3F00
3E00
3E00
3E00
3E00
3E00
3E00
3E00
3E00
3E00
7F00
FFC0
ENDCHAR
STARTCHAR 0073
ENCODING 115
SWIDTH 384 0
DWIDTH 16 0
BBX 13 21 2 -1
BITMAP
0400
3FE0
70F0
F070
F030
F830
FC10
FF00
FF80
7FC0
3FE0
1FF0
0FF0
03F8
81F8
80F8
C0F0
E0F0
F0E0
FFC0
8200
ENDCHAR
STARTCHAR 0074
ENCODING 116
SWIDTH 336 0
DWIDTH 14 0
BBX 12 26 1 0
BITMAP
0100
0300
0300
0700
0F00
1F00
3F00
7FF0
FFF0
3F00
3F00
3F00
3F00
3F00
3F00
3F00
3F00
3F00
3F00
3F00
3F00
3F00
3F10
1F90
1FE0
0FC0
ENDCHAR
STARTCHAR 0075
ENCODING 117
SWIDTH 552 0
DWIDTH 23 0
BBX 21 20 1 -1
BITMAP
FF1FE0
3F07E0
3F07E0
3F07E0
3F07E0
3F07E0
3F07E0
3F07E0
3F07E0
3F07E0
3F07E0
3F07E0
3F07E0
3F07E0
3F07E0
1F0FE0
1F9FE0
1FF7E0
0FE7F8
010000
ENDCHAR
STARTCHAR 0076
ENCODING 118
SWIDTH 504 0
DWIDTH 21 0
BBX 20 20 0 -1
BITMAP
FFE3F0
3F80E0
3F80C0
1F80C0
1F8080
0FC180
0FC180
07E100
07E300
03F200
03F600
03F400
01FC00
01FC00
00F800
00F800
007000
007000
006000
002000
ENDCHAR
STARTCHAR 0077
ENCODING 119
SWIDTH 720 0
DWIDTH 30 0
BBX 30 20 0 -1
BITMAP
FFCFF8FC
3F07F030
3F03F030
1F83F020
1F83F860
0FC3F840
0FC7F840
0FC4FCC0
07E4FC80
07ECFC80
03E87F80
03F87F00
03F83F00
01F03F00
01F03E00
01E01E00
00E01E00
00E01C00
00C00C00
00400800
ENDCHAR
STARTCHAR 0078
ENCODING 120
SWIDTH 504 0
DWIDTH 21 0
BBX 19 19 1 0
BITMAP
FFEFC0
3F8700
1F8600
1FC400
0FCC00
0FF800
07F000
07F000
03F000
03F800
01F800
01FC00
01FC00
027E00
067E00
0C3F00
083F80
1C3F80
FE7FE0
ENDCHAR
STARTCHAR 0079
ENCODING 121
SWIDTH 504 0
DWIDTH 21 0
BBX 20 28 0 -9
BITMAP
FFC3F0
3F80E0
3F80C0
1F80C0
1F8080
0FC080
0FC180
07E100
07E300
03F200
03F200
01FE00
01FC00
01FC00
00FC00
00F800
007800
007000
003000
003000
002000
002000
384000
7C4000
7CC000
7D8000
3F0000
1E0000
ENDCHAR
STARTCHAR 007A
ENCODING 122
SWIDTH 456 0
DWIDTH 19 0
BBX 18 19 0 0
BITMAP
3FFFC0
3C1F80
303F80
207F00
207E00
20FE00
00FC00
01FC00
03F800
03F000
07F000
07E000
0FE040
1FC080
1F8080
3F8080
3F0180
7F1F80
FFFF80
ENDCHAR
STARTCHAR 007B
ENCODING 123
SWIDTH 384 0
DWIDTH 16 0
BBX 12 36 3 -8
BITMAP
00F0
0380
0700
0F00
0F00
1F00
1F00
1F00
0F00
0F80
0F80
0F80
0F80
0F00
0F00
0E00
1C00
F000
E000
3C00
0E00
0F00
0F00
0F80
0F80
0F80
0F80
0F00
1F00
1F00
1F00
1F00
0F00
0700
0380
01F0
ENDCHAR
STARTCHAR 007C
ENCODING 124
SWIDTH 216 0
DWIDTH 9 0
BBX 3 37 3 -9
BITMAP
E0
E0
E0
E0
E0
E0
E0
E0
E0
E0
E0
E0
E0
E0
E0
E0
E0
E0
E0
E0
E0
E0
E0
E0
E0
E0
E0
E0
E0
E0
E0
E0
E0
E0
E0
E0
E0
ENDCHAR
STARTCHAR 007D
ENCODING 125
SWIDTH 384 0
DWIDTH 16 0
BBX 11 36 2 -8
BITMAP
F000
3C00
1E00
0F00
0F00
0F00
0F00
1F00
1F00
1F00
1F00
1E00
1E00
1E00
0E00
0700
0380
00E0
00E0
0380
0700
0E00
1E00
1E00
1E00
1E00
1F00
1F00
1F00
0F00
0F00
0F00
0E00
1E00
3C00
F000
ENDCHAR
STARTCHAR 007E
ENCODING 126
SWIDTH 528 0
DWIDTH 22 0
BBX 22 6 0 8
BITMAP
1FC004
3FF004
7FFE0C
607FF8
C01FF8
C003E0
ENDCHAR
STARTCHAR 00A0
ENCODING 160
SWIDTH 240 0
DWIDTH 10 0
BBX 0 0 0 0
BITMAP
ENDCHAR
STARTCHAR 00A1
ENCODING 161
SWIDTH 336 0
DWIDTH 14 0
BBX 6 29 4 -9
BITMAP
30
FC
FC
FC
FC
FC
70
00
00
00
30
30
30
30
30
30
78
78
78
78
FC
FC
FC
FC
FC
FC
FC
FC
78
ENDCHAR
STARTCHAR 00A2
ENCODING 162
SWIDTH 504 0
DWIDTH 21 0
BBX 16 35 3 -8
BITMAP
0004
000C
000C
0008
0018
0010
0010
00B0
0FF8
1C7C
3C7E
787E
78FE
F8BE
F88C
F980
F900
FB00
FE00
FE00
FE00
FE00
7E01
7F06
3FFC
1FF8
1FF0
1100
3000
2000
6000
4000
4000
C000
8000
ENDCHAR
STARTCHAR 00A3
ENCODING 163
SWIDTH 504 0
DWIDTH 21 0
BBX 19 29 1 -1
BITMAP
00FE00
038F00
078F80
078F80
0F8F80
0F8F80
0F8F80
1F8000
1F8000
1FC000
1FC000
0FC000
FFFC00
FFFC00
FFFC00
0FC000
07C000
07C000
07C000
03C000
03C000
03C020
7F8060
FFFFE0
C7FFC0
87FFC0
CEFF80
7C7F00
100800
ENDCHAR
STARTCHAR 00A4
ENCODING 164
SWIDTH 504 0
DWIDTH 21 0
BBX 19 19 1 5
BITMAP
C0E0E0
E7FDE0
7FFFC0
3E0F80
380380
7003C0
7001C0
6000C0
E000C0
E000C0
E000C0
6001C0
7001C0
780380
3C0780
7FBF80
FFFFC0
E3F8E0
400040
ENDCHAR
STARTCHAR 00A5
ENCODING 165
SWIDTH 504 0
DWIDTH 21 0
BBX 21 28 0 0
BITMAP
FFC1F8
7F80F0
3F0060
3F0060
1F80C0
1F80C0
1F8080
0FC180
0FC180
0FE100
07E300
07E300
03F200
03F600
03F600
FFFFF8
FFFFF8
01FC00
01F800
01F800
01F800
FFFFF8
01F800
01F800
01FC00
01FC00
01FC00
1FFF80
ENDCHAR
STARTCHAR 00A6
ENCODING 166
SWIDTH 216 0
DWIDTH 9 0
BBX 3 37 3 -9
BITMAP
E0
E0
E0
E0
E0
E0
E0
E0
E0
E0
E0
E0
E0
E0
E0
00
00
00
00
00
00
00
E0
E0
E0
E0
E0
E0
E0
E0
E0
E0
E0
E0
E0
E0
E0
ENDCHAR
STARTCHAR 00A7
ENCODING 167
SWIDTH 504 0
DWIDTH 21 0
BBX 17 37 2 -9
BITMAP
07F000
1E3C00
3C1E00
381E00
781E00
781E00
7C1E00
7E0000
3F0000
3FC000
1FE000
0FF800
1FFC00
31FE00
70FE00
607F00
E01F80
F00F80
F00780
F80780
FC0780
7F0700
3F8700
3FCE00
1FFC00
07F800
03FC00
00FE00
007E00
003F00
3C1F00
3C0F00
3C0E00
3C0E00
3C1C00
1F7800
07E000
ENDCHAR
STARTCHAR 00A8
ENCODING 168
SWIDTH 336 0
DWIDTH 14 0
BBX 13 6 0 22
BITMAP
3830
7CF8
FCF8
7CF8
7878
1020
ENDCHAR
STARTCHAR 00A9
ENCODING 169
SWIDTH 744 0
DWIDTH 31 0
BBX 29 29 1 -1
BITMAP
003FE000
00FFF800
03C01E00
07000700
0E000180
180300C0
383FF860
30781860
60F00830
61E00830
61E00018
C3E00018
C3C00018
C3C00018
C3C00018
C3E00018
C3E00018
43E00018
61E00010
61F00830
30F81030
303FE060
180F00C0
0C0001C0
0E000380
03800F00
01F07C00
007FF000
00038000
ENDCHAR
STARTCHAR 00AA
ENCODING 170
SWIDTH 312 0
DWIDTH 13 0
BBX 11 12 1 16
BITMAP
3F80
63C0
F3C0
F3C0
63C0
0FC0
3BC0
73C0
F3C0
F3C0
FDE0
60C0
ENDCHAR
STARTCHAR 00AB
ENCODING 171
SWIDTH 504 0
DWIDTH 21 0
BBX 19 19 1 0
BITMAP
00C060
0180C0
0381C0
070180
0F0380
1E0700
3E0F00
3C1E00
7C3E00
F87C00
7C3E00
3C1E00
3E0F00
1E0700
0F0380
070380
0381C0
0180C0
00C060
ENDCHAR
STARTCHAR 00AC
ENCODING 172
SWIDTH 576 0
DWIDTH 24 0
BBX 22 9 1 9
BITMAP
FFFFFC
FFFFFC
00001C
00001C
00001C
00001C
00001C
00001C
00001C
ENDCHAR
STARTCHAR 00AD
ENCODING 173
SWIDTH 336 0
DWIDTH 14 0
BBX 12 5 1 7
BITMAP
FFF0
FFF0
FFF0
FFF0
FFF0
ENDCHAR
STARTCHAR 00AE
ENCODING 174
SWIDTH 744 0
DWIDTH 31 0
BBX 29 29 1 -1
BITMAP
003FE000
00FFF800
03C01E00
07000700
0E000180
180000C0
39FFE060
3078F060
60787830
60787830
60787C18
C0787818
C0787818
C079F018
C07FC018
C07BC018
C079E018
4079F018
6078F010
6078F830
30787830
31FE7E60
180000C0
0C0001C0
0E000380
03800F00
01F07C00
007FF000
00038000
ENDCHAR
STARTCHAR 00AF
ENCODING 175
SWIDTH 504 0
DWIDTH 21 0
BBX 21 2 0 30
BITMAP
FFFFF8
FFFFF8
ENDCHAR
STARTCHAR 00B0
ENCODING 176
SWIDTH 408 0
DWIDTH 17 0
BBX 14 14 1 14
BITMAP
0FC0
1FF0
3FF8
7038
701C
E01C
E00C
E00C
E01C
701C
7838
3FF8
1FE0
07C0
ENDCHAR
STARTCHAR 00B1
ENCODING 177
SWIDTH 552 0
DWIDTH 23 0
BBX 23 22 0 3
BITMAP
003800
003800
003800
003800
003800
003800
003800
003800
003800
003800
FFFFFE
FFFFFE
FFFFFE
003800
003800
003800
003800
003800
003800
003800
FFFFFE
FFFFFE
ENDCHAR
STARTCHAR 00B2
ENCODING 178
SWIDTH 312 0
DWIDTH 13 0
BBX 10 14 1 14
BITMAP
3F00
7F80
FFC0
87C0
03C0
0380
0380
0700
0600
0C00
1840
31C0
7FC0
FFC0
ENDCHAR
STARTCHAR 00B3
ENCODING 179
SWIDTH 312 0
DWIDTH 13 0
BBX 11 15 0 13
BITMAP
0F80
3FC0
63C0
41C0
01C0
0380
07C0
0FE0
03E0
01E0
00E0
00E0
F0C0
FD80
3C00
ENDCHAR
STARTCHAR 00B4
ENCODING 180
SWIDTH 336 0
DWIDTH 14 0
BBX 8 8 5 21
BITMAP
3F
3E
7C
78
70
E0
C0
80
ENDCHAR
STARTCHAR 00B5
ENCODING 181
SWIDTH 576 0
DWIDTH 24 0
BBX 21 28 2 -9
BITMAP
7E0F80
7E0F80
7E0F80
7E0F80
7E0F80
7E0F80
7E0F80
7E0F80
7E0F80
7E0F80
7E0F80
7E0F80
7E0F80
7E0F80
7E0FC8
7E1FC8
7F3FF8
7FEFF0
7FC7E0
620100
600000
E00000
F00000
F00000
F00000
F00000
F00000
E00000
ENDCHAR
STARTCHAR 00B6
ENCODING 182
SWIDTH 552 0
DWIDTH 23 0
BBX 23 37 0 -9
BITMAP
000FFE
07FFF8
1FF860
3FF860
7FF860
7FF860
FFF860
FFF860
FFF860
FFF860
FFF860
FFF860
FFF860
7FF860
7FF860
3FF860
1FF860
0FF860
03F860
001860
001860
001860
001860
001860
001860
001860
001860
001860
001860
001860
001860
001860
001860
001860
001860
001860
001860
ENDCHAR
STARTCHAR 00B7
ENCODING 183
SWIDTH 240 0
DWIDTH 10 0
BBX 7 7 2 10
BITMAP
78
FC
FE
FE
FC
7C
10
ENDCHAR
STARTCHAR 00B8
ENCODING 184
SWIDTH 336 0
DWIDTH 14 0
BBX 7 8 3 -8
BITMAP
18
18
3C
1E
1E
1E
3C
F0
ENDCHAR
STARTCHAR 00B9
ENCODING 185
SWIDTH 312 0
DWIDTH 13 0
BBX 8 14 2 14
BITMAP
0C
3C
FC
3C
3C
3C
3C
3C
3C
3C
3C
3C
3C
FF
ENDCHAR
STARTCHAR 00BA
ENCODING 186
SWIDTH 336 0
DWIDTH 14 0
BBX 12 12 1 16
BITMAP
1F80
39C0
70E0
70E0
F0F0
F0F0
F0F0
F0F0
70E0
70E0
39C0
0F00
ENDCHAR
STARTCHAR 00BB
ENCODING 187
SWIDTH 504 0
DWIDTH 21 0
BBX 19 19 1 0
BITMAP
C06000
E03000
603800
701C00
381E00
3C0E00
1E0F00
1F0780
0F87C0
07C3E0
0F87C0
0F0780
1E0F00
3C0E00
381E00
701C00
603800
C03000
C06000
ENDCHAR
STARTCHAR 00BC
ENCODING 188
SWIDTH 744 0
DWIDTH 31 0
BBX 28 29 2 -1
BITMAP
0C000380
7C000700
FC000600
3C000E00
3C001C00
3C001800
3C003800
3C007000
3C006000
3C00E000
3C01C000
3C018000
3C038000
3E070000
C1060060
000E00E0
001C01E0
001803E0
003807E0
007005E0
006009E0
00E019E0
01C031E0
018061E0
03807FF0
07007FF0
060001E0
0E0001E0
1C0001E0
ENDCHAR
STARTCHAR 00BD
ENCODING 189
SWIDTH 744 0
DWIDTH 31 0
BBX 28 29 2 -1
BITMAP
0C000300
7C000700
FC000E00
3C000C00
3C001C00
3C003800
3C003000
3C007000
3C00E000
3C00C000
3C01C000
3C038000
3C030000
3E070000
C10E0700
000C1FC0
001C3FE0
003821E0
003001E0
007001E0
00E001E0
00C001C0
01C00180
03800300
03000600
07000C10
0E001FF0
0C003FF0
1C007FE0
ENDCHAR
STARTCHAR 00BE
ENCODING 190
SWIDTH 744 0
DWIDTH 31 0
BBX 30 29 0 -1
BITMAP
0F8000E0
3FC001C0
63C00180
41C00380
01C00700
03800600
07C00E00
0FE01C00
03E01800
01E03800
00E07000
00E06000
F0C0E000
FD81C000
3C018018
00038038
00070078
000600F8
000E01F8
001C0178
00180278
00380678
00700C78
00601878
00E01FFC
01C01FFC
01800078
03800078
07000078
ENDCHAR
STARTCHAR 00BF
ENCODING 191
SWIDTH 504 0
DWIDTH 21 0
BBX 16 29 2 -9
BITMAP
00E0
01F0
03F0
03F0
03F0
01F0
00C0
0000
0000
0000
0040
0040
00C0
0080
0180
0780
0F00
1F00
3E00
7E00
7E0E
FE1F
FE1F
FE1F
7E0F
7E0F
3F0E
1FDC
07F0
ENDCHAR
STARTCHAR 00C0
ENCODING 192
SWIDTH 720 0
DWIDTH 30 0
BBX 30 37 0 0
BITMAP
007E0000
003E0000
001F0000
000F0000
00070000
00038000
00018000
00000000
00000000
00010000
00030000
00038000
00078000
00078000
000FC000
000FC000
000FE000
001FE000
0017F000
0037F000
0023F800
0063F800
0063F800
00C1FC00
00C1FC00
0080FE00
0180FE00
01007F00
03FFFF00
02007F00
06003F80
06003F80
0C001FC0
0C001FC0
1C000FE0
3C001FF0
FFC0FFFC
ENDCHAR
STARTCHAR 00C1
ENCODING 193
SWIDTH 720 0
DWIDTH 30 0
BBX 30 37 0 0
BITMAP
0001F800
0001F000
0003E000
0003C000
00038000
00070000
00060000
00000000
00000000
00010000
00030000
00038000
00078000
00078000
000FC000
000FC000
000FE000
001FE000
0017F000
0037F000
0023F800
0063F800
0063F800
00C1FC00
00C1FC00
0080FE00
0180FE00
01007F00
03FFFF00
02007F00
06003F80
06003F80
0C001FC0
0C001FC0
1C000FE0
3C001FF0
FFC0FFFC
ENDCHAR
STARTCHAR 00C2
ENCODING 194
SWIDTH 720 0
DWIDTH 30 0
BBX 30 37 0 0
BITMAP
000FC000
000FC000
001FE000
001FE000
003CF000
00387000
00603800
00C00800
00000000
00010000
00030000
00038000
00078000
00078000
000FC000
000FC000
000FE000
001FE000
0017F000
0037F000
0023F800
0063F800
0063F800
00C1FC00
00C1FC00
0080FE00
0180FE00
01007F00
03FFFF00
02007F00
06003F80
06003F80
0C001FC0
0C001FC0
1C000FE0
3C001FF0
FFC0FFFC
ENDCHAR
STARTCHAR 00C3
ENCODING 195
SWIDTH 720 0
DWIDTH 30 0
BBX 30 36 0 0
BITMAP
000C0C00
003F0C00
007FF800
007FF800
0047F000
00C1E000
00000000
00000000
00010000
00030000
00038000
00078000
00078000
000FC000
000FC000
000FE000
001FE000
0017F000
0037F000
0023F800
0063F800
0063F800
00C1FC00
00C1FC00
0080FE00
0180FE00
01007F00
03FFFF00
02007F00
06003F80
06003F80
0C001FC0
0C001FC0
1C000FE0
3C001FF0
FFC0FFFC
ENDCHAR
STARTCHAR 00C4
ENCODING 196
SWIDTH 720 0
DWIDTH 30 0
BBX 30 36 0 0
BITMAP
00303000
007C7800
007CFC00
007CF800
00787800
00303000
00000000
00000000
00010000
00030000
00038000
00078000
00078000
000FC000
000FC000
000FE000
001FE000
0017F000
0037F000
0023F800
0063F800
0063F800
00C1FC00
00C1FC00
0080FE00
0180FE00
01007F00
03FFFF00
02007F00
06003F80
06003F80
0C001FC0
0C001FC0
1C000FE0
3C001FF0
FFC0FFFC
ENDCHAR
STARTCHAR 00C5
ENCODING 197
SWIDTH 720 0
DWIDTH 30 0
BBX 30 35 0 0
BITMAP
00078000
000FE000
00186000
00183000
00183000
00182000
000C6000
0007C000
00030000
00038000
00078000
00078000
000FC000
000FC000
000FE000
001FE000
0017F000
0037F000
0023F800
0063F800
0063F800
00C1FC00
00C1FC00
0080FE00
0180FE00
01007F00
03FFFF00
02007F00
06003F80
06003F80
0C001FC0
0C001FC0
1C000FE0
3C001FF0
FFC0FFFC
ENDCHAR
STARTCHAR 00C6
ENCODING 198
SWIDTH 1008 0
DWIDTH 42 0
BBX 40 28 0 0
BITMAP
0007FFFFFC
0000FFFFFC
0000FFC07C
0000DFC01C
0000DFC01C
00019FC00C
00011FC00C
00031FC104
00061FC104
00061FC100
000C1FC100
00181FC300
00181FC700
00301FFF00
00201FFF00
007FFFC700
00C01FC300
00C01FC100
01801FC100
03001FC101
03001FC101
06001FC002
04001FC002
0C001FC006
18001FC00E
18001FC01E
7C001FF9FE
FF03FFFFFE
ENDCHAR
STARTCHAR 00C7
ENCODING 199
SWIDTH 720 0
DWIDTH 30 0
BBX 26 36 2 -8
BITMAP
003FE040
00FFFCC0
03F00FC0
07E003C0
0FC001C0
1F8001C0
3F0000C0
3F0000C0
7F000040
7E000000
FE000000
FE000000
FE000000
FE000000
FE000000
FE000000
FE000000
FE000000
FE000000
FF000000
7F000000
7F000000
3F800080
1F800080
0FC00380
07E00700
03FC3C00
00FFF800
00070000
00070000
000F8000
00078000
00038000
00038000
000F0000
003C0000
ENDCHAR
STARTCHAR 00C8
ENCODING 200
SWIDTH 672 0
DWIDTH 28 0
BBX 25 37 1 0
BITMAP
01F80000
00F80000
007C0000
003C0000
001C0000
000E0000
00060000
00000000
00000000
FFFFFE00
3FFFFE00
1FC03E00
0FC00E00
0FC00600
0FC00600
0FC00200
0FC08200
0FC08200
0FC08000
0FC18000
0FC18000
0FC38000
0FFF8000
0FFF8000
0FC38000
0FC18000
0FC18000
0FC08000
0FC08080
0FC08080
0FC00180
0FC00100
0FC00300
0FC00700
0FE00F00
1FFFFF00
FFFFFF00
ENDCHAR
STARTCHAR 00C9
ENCODING 201
SWIDTH 672 0
DWIDTH 28 0
BBX 25 37 1 0
BITMAP
0007E000
000FC000
000F8000
000F0000
001E0000
001C0000
00180000
00000000
00000000
FFFFFE00
3FFFFE00
1FC03E00
0FC00E00
0FC00600
0FC00600
0FC00200
0FC08200
0FC08200
0FC08000
0FC18000
0FC18000
0FC38000
0FFF8000
0FFF8000
0FC38000
0FC18000
0FC18000
0FC08000
0FC08080
0FC08080
0FC00180
0FC00100
0FC00300
0FC00700
0FE00F00
1FFFFF00
FFFFFF00
ENDCHAR
STARTCHAR 00CA
ENCODING 202
SWIDTH 672 0
DWIDTH 28 0
BBX 25 37 1 0
BITMAP
003F0000
003F0000
007F8000
007F8000
00F3C000
00E1C000
0180E000
03002000
00000000
FFFFFE00
3FFFFE00
1FC03E00
0FC00E00
0FC00600
0FC00600
0FC00200
0FC08200
0FC08200
0FC08000
0FC18000
0FC18000
0FC38000
0FFF8000
0FFF8000
0FC38000
0FC18000
0FC18000
0FC08000
0FC08080
0FC08080
0FC00180
0FC00100
0FC00300
0FC00700
0FE00F00
1FFFFF00
FFFFFF00
ENDCHAR
STARTCHAR 00CB
ENCODING 203
SWIDTH 672 0
DWIDTH 28 0
BBX 25 36 1 0
BITMAP
00C0C000
01E3E000
03F3E000
03F3E000
01E3E000
00C0C000
00000000
00000000
FFFFFE00
3FFFFE00
1FC03E00
0FC00E00
0FC00600
0FC00600
0FC00200
0FC08200
0FC08200
0FC08000
0FC18000
0FC18000
0FC38000
0FFF8000
0FFF8000
0FC38000
0FC18000
0FC18000
0FC08000
0FC08080
0FC08080
0FC00180
0FC00100
0FC00300
0FC00700
0FE00F00
1FFFFF00
FFFFFF00
ENDCHAR
STARTCHAR 00CC
ENCODING 204
SWIDTH 384 0
DWIDTH 16 0
BBX 14 37 1 0
BITMAP
7E00
3E00
1F00
0F00
0700
0380
0180
0000
0000
FFFC
3FF0
1FE0
0FC0
0FC0
0FC0
0FC0
0FC0
0FC0
0FC0
0FC0
0FC0
0FC0
0FC0
0FC0
0FC0
0FC0
0FC0
0FC0
0FC0
0FC0
0FC0
0FC0
0FC0
0FC0
0FE0
1FE0
FFFC
ENDCHAR
STARTCHAR 00CD
ENCODING 205
SWIDTH 384 0
DWIDTH 16 0
BBX 14 37 1 0
BITMAP
01F8
01F0
03E0
03C0
0380
0700
0600
0000
0000
FFFC
3FF0
1FE0
0FC0
0FC0
0FC0
0FC0
0FC0
0FC0
0FC0
0FC0
0FC0
0FC0
0FC0
0FC0
0FC0
0FC0
0FC0
0FC0
0FC0
0FC0
0FC0
0FC0
0FC0
0FC0
0FE0
1FE0
FFFC
ENDCHAR
STARTCHAR 00CE
ENCODING 206
SWIDTH 384 0
DWIDTH 16 0
BBX 14 37 1 0
BITMAP
0FC0
0FC0
1FE0
1FE0
3CF0
3870
7038
4008
0000
FFFC
3FF0
1FE0
0FC0
0FC0
0FC0
0FC0
0FC0
0FC0
0FC0
0FC0
0FC0
0FC0
0FC0
0FC0
0FC0
0FC0
0FC0
0FC0
0FC0
0FC0
0FC0
0FC0
0FC0
0FC0
0FE0
1FE0
FFFC
ENDCHAR
STARTCHAR 00CF
ENCODING 207
SWIDTH 384 0
DWIDTH 16 0
BBX 14 36 1 0
BITMAP
3030
7C78
7CFC
7CFC
7C78
3030
0000
0000
FFFC
3FF0
1FE0
0FC0
0FC0
0FC0
0FC0
0FC0
0FC0
0FC0
0FC0
0FC0
0FC0
0FC0
0FC0
0FC0
0FC0
0FC0
0FC0
0FC0
0FC0
0FC0
0FC0
0FC0
0FC0
0FE0
1FE0
FFFC
ENDCHAR
STARTCHAR 00D0
ENCODING 208
SWIDTH 720 0
DWIDTH 30 0
BBX 28 28 1 0
BITMAP
FFF80000
3FFFF000
1FC1FC00
0FC07E00
0FC03F00
0FC03F80
0FC01F80
0FC01FC0
0FC01FE0
0FC00FE0
0FC00FE0
0FC00FE0
0FC00FE0
FFFF0FF0
0FC00FF0
0FC00FE0
0FC00FE0
0FC00FE0
0FC00FE0
0FC00FE0
0FC00FC0
0FC01FC0
0FC01F80
0FC03F00
0FC03E00
0FC0FC00
1FFFF000
FFFF8000
ENDCHAR
STARTCHAR 00D1
ENCODING 209
SWIDTH 720 0
DWIDTH 30 0
BBX 28 37 1 -1
BITMAP
00181000
007F1000
00FFF000
00FFF000
018FE000
0183C000
00000000
00000000
FF801FF0
7FC007C0
1FE00380
1FF00180
0FF80180
0FF80180
0BFC0180
09FE0180
09FF0180
08FF8180
087F8180
083FC180
081FE180
081FF180
080FF980
0807F980
0803FD80
0801FF80
0800FF80
0800FF80
08007F80
08003F80
08001F80
08000F80
08000F80
1C000780
1C000380
FF800180
00000080
ENDCHAR
STARTCHAR 00D2
ENCODING 210
SWIDTH 768 0
DWIDTH 32 0
BBX 29 38 2 -1
BITMAP
007C0000
003E0000
003E0000
001E0000
000F0000
00070000
00030000
00000000
00000000
003FE000
01F8FC00
07E03E00
0FC01F00
1F800F80
3F000FC0
3F0007E0
7F0007F0
7F0007F0
FE0007F0
FE0007F8
FE0003F8
FE0003F8
FE0003F8
FE0003F8
FE0003F8
FE0003F8
FE0007F8
FE0007F0
7E0007F0
7F0007F0
7F0007E0
3F000FC0
1F800FC0
0F801F80
07C03F00
03F07C00
00FFF000
00070000
ENDCHAR
STARTCHAR 00D3
ENCODING 211
SWIDTH 768 0
DWIDTH 32 0
BBX 29 38 2 -1
BITMAP
0003F000
0003E000
0007C000
00078000
00070000
000E0000
000C0000
00000000
00000000
003FE000
01F8FC00
07E03E00
0FC01F00
1F800F80
3F000FC0
3F0007E0
7F0007F0
7F0007F0
FE0007F0
FE0007F8
FE0003F8
FE0003F8
FE0003F8
FE0003F8
FE0003F8
FE0003F8
FE0007F8
FE0007F0
7E0007F0
7F0007F0
7F0007E0
3F000FC0
1F800FC0
0F801F80
07C03F00
03F07C00
00FFF000
00070000
ENDCHAR
STARTCHAR 00D4
ENCODING 212
SWIDTH 768 0
DWIDTH 32 0
BBX 29 38 2 -1
BITMAP
000F8000
001F8000
001FC000
003FE000
0079E000
00707000
00E03000
00C01800
00000000
003FE000
01F8FC00
07E03E00
0FC01F00
1F800F80
3F000FC0
3F0007E0
7F0007F0
7F0007F0
FE0007F0
FE0007F8
FE0003F8
FE0003F8
FE0003F8
FE0003F8
FE0003F8
FE0003F8
FE0007F8
FE0007F0
7E0007F0
7F0007F0
7F0007E0
3F000FC0
1F800FC0
0F801F80
07C03F00
03F07C00
00FFF000
00070000
ENDCHAR
STARTCHAR 00D5
ENCODING 213
SWIDTH 768 0
DWIDTH 32 0
BBX 29 37 2 -1
BITMAP
00180800
007F1800
00FFF800
00FFF000
008FF000
0083C000
00000000
00000000
003FE000
01F8FC00
07E03E00
0FC01F00
1F800F80
3F000FC0
3F0007E0
7F0007F0
7F0007F0
FE0007F0
FE0007F8
FE0003F8
FE0003F8
FE0003F8
FE0003F8
FE0003F8
FE0003F8
FE0007F8
FE0007F0
7E0007F0
7F0007F0
7F0007E0
3F000FC0
1F800FC0
0F801F80
07C03F00
03F07C00
00FFF000
00070000
ENDCHAR
STARTCHAR 00D6
ENCODING 214
SWIDTH 768 0
DWIDTH 32 0
BBX 29 37 2 -1
BITMAP
00706000
00F8F000
00F9F800
00F9F800
00F8F000
00206000
00000000
00000000
003FE000
01F8FC00
07E03E00
0FC01F00
1F800F80
3F000FC0
3F0007E0
7F0007F0
7F0007F0
FE0007F0
FE0007F8
FE0003F8
FE0003F8
FE0003F8
FE0003F8
FE0003F8
FE0003F8
FE0007F8
FE0007F0
7E0007F0
7F0007F0
7F0007E0
3F000FC0
1F800FC0
0F801F80
07C03F00
03F07C00
00FFF000
00070000
ENDCHAR
STARTCHAR 00D7
ENCODING 215
SWIDTH 576 0
DWIDTH 24 0
BBX 18 17 3 6
BITMAP
600180
F003C0
780780
3C0F00
1E1E00
0F3C00
07F800
03F000
01E000
03F000
07F800
0F3C00
1E1E00
3C0F00
780780
700380
200100
ENDCHAR
STARTCHAR 00D8
ENCODING 216
SWIDTH 768 0
DWIDTH 32 0
BBX 29 30 2 -2
BITMAP
00000020
003FE060
01F9FCC0
03E03EC0
0FC01F80
1F800F80
3F000FC0
3F000FE0
7F001FE0
7F0037F0
FE0037F0
FE0067F8
FE00C7F8
FE0183F8
FE0303F8
FE0603F8
FE0C03F8
FE1C03F8
FE1807F8
FE3007F0
7E6007F0
7FC007F0
7F8007E0
3F000FC0
1F800FC0
0F801F80
0FC01F00
1BF07C00
30FFF000
600F0000
ENDCHAR
STARTCHAR 00D9
ENCODING 217
SWIDTH 720 0
DWIDTH 30 0
BBX 28 38 1 -1
BITMAP
007E0000
003E0000
001E0000
000F0000
00070000
00030000
00018000
00000000
00000000
FFFC1FF0
3FE007C0
1FC00380
1FC00180
0FC00180
0FC00180
0FC00180
0FC00180
0FC00180
0FC00180
0FC00180
0FC00180
0FC00180
0FC00180
0FC00180
0FC00180
0FC00180
0FC00180
0FC00100
0FC00100
0FC00100
0FC00300
0FC00300
0FE00300
07E00600
07F00C00
03FE7800
00FFF000
000E0000
ENDCHAR
STARTCHAR 00DA
ENCODING 218
SWIDTH 720 0
DWIDTH 30 0
BBX 28 38 1 -1
BITMAP
0007E000
0007C000
00078000
000F0000
000E0000
000C0000
00180000
00000000
00000000
FFFC1FF0
3FE007C0
1FC00380
1FC00180
0FC00180
0FC00180
0FC00180
0FC00180
0FC00180
0FC00180
0FC00180
0FC00180
0FC00180
0FC00180
0FC00180
0FC00180
0FC00180
0FC00180
0FC00100
0FC00100
0FC00100
0FC00300
0FC00300
0FE00300
07E00600
07F00C00
03FE7800
00FFF000
000E0000
ENDCHAR
STARTCHAR 00DB
ENCODING 219
SWIDTH 720 0
DWIDTH 30 0
BBX 28 38 1 -1
BITMAP
000F8000
000FC000
001FC000
003FE000
003CE000
00707000
00603000
00C01800
00000000
FFFC1FF0
3FE007C0
1FC00380
1FC00180
0FC00180
0FC00180
0FC00180
0FC00180
0FC00180
0FC00180
0FC00180
0FC00180
0FC00180
0FC00180
0FC00180
0FC00180
0FC00180
0FC00180
0FC00100
0FC00100
0FC00100
0FC00300
0FC00300
0FE00300
07E00600
07F00C00
03FE7800
00FFF000
000E0000
ENDCHAR
STARTCHAR 00DC
ENCODING 220
SWIDTH 720 0
DWIDTH 30 0
BBX 28 37 1 -1
BITMAP
00606000
00F8F000
00F9F800
00F9F000
00F0F000
00606000
00000000
00000000
FFFC1FF0
3FE007C0
1FC00380
1FC00180
0FC00180
0FC00180
0FC00180
0FC00180
0FC00180
0FC00180
0FC00180
0FC00180
0FC00180
0FC00180
0FC00180
0FC00180
0FC00180
0FC00180
0FC00100
0FC00100
0FC00100
0FC00300
0FC00300
0FE00300
07E00600
07F00C00
03FE7800
00FFF000
000E0000
ENDCHAR
STARTCHAR 00DD
ENCODING 221
SWIDTH 720 0
DWIDTH 30 0
BBX 30 37 0 0
BITMAP
0000FC00
0001F800
0001F000
0001E000
0003C000
00038000
00030000
00000000
00000000
FFFC07FC
3FE001F0
1FE000E0
0FE000C0
0FF000C0
07F00180
03F80100
03F80300
01FC0600
01FC0600
00FE0C00
00FF0800
007F1800
007FB000
003FB000
003FE000
001FC000
000FC000
000FC000
000FC000
000FC000
000FC000
000FC000
000FC000
000FC000
000FC000
001FE000
01FFFE00
ENDCHAR
STARTCHAR 00DE
ENCODING 222
SWIDTH 600 0
DWIDTH 25 0
BBX 23 28 1 0
BITMAP
FFFC00
3FE000
1FC000
0FC000
0FC000
0FC000
0FC000
0FFFE0
0FC7F0
0FC1F8
0FC0FC
0FC0FE
0FC0FE
0FC0FE
0FC0FE
0FC0FE
0FC0FE
0FC0FC
0FC1FC
0FC3F8
0FFFE0
0FFF00
0FC000
0FC000
0FC000
0FC000
1FE000
FFFC00
ENDCHAR
STARTCHAR 00DF
ENCODING 223
SWIDTH 552 0
DWIDTH 23 0
BBX 20 28 1 0
BITMAP
01FE00
078F80
0F07C0
1F07E0
1F07E0
3F07E0
3F07E0
3F07E0
3F07C0
3F07C0
3F1F00
3F1F00
3F07C0
3F03C0
3F03E0
3F03E0
3F03F0
3F03F0
3F03F0
3F03F0
3F03F0
3F03F0
3F03F0
3F39E0
3F39E0
3F79E0
3F39C0
FF1F00
ENDCHAR
STARTCHAR 00E0
ENCODING 224
SWIDTH 504 0
DWIDTH 21 0
BBX 18 29 2 0
BITMAP
3F0000
1F8000
0F8000
078000
03C000
01C000
00C000
006000
000000
00C000
0FF800
387C00
783E00
783E00
FC3F00
FC3F00
783F00
107F00
01FF00
073F00
1E3F00
3C3F00
7C3F00
F83F00
FC3F00
FC7F00
FFFF40
FF3F80
7E1F00
ENDCHAR
STARTCHAR 00E1
ENCODING 225
SWIDTH 504 0
DWIDTH 21 0
BBX 18 29 2 0
BITMAP
00FE00
00FC00
00F800
01F000
01E000
01C000
038000
030000
000000
00C000
0FF800
387C00
783E00
783E00
FC3F00
FC3F00
783F00
107F00
01FF00
073F00
1E3F00
3C3F00
7C3F00
F83F00
FC3F00
FC7F00
FFFF40
FF3F80
7E1F00
ENDCHAR
STARTCHAR 00E2
ENCODING 226
SWIDTH 504 0
DWIDTH 21 0
BBX 18 29 2 0
BITMAP
03E000
07F000
07F000
0FF800
0E3800
1C1C00
380C00
300600
000000
00C000
0FF800
387C00
783E00
783E00
FC3F00
FC3F00
783F00
107F00
01FF00
073F00
1E3F00
3C3F00
7C3F00
F83F00
FC3F00
FC7F00
FFFF40
FF3F80
7E1F00
ENDCHAR
STARTCHAR 00E3
ENCODING 227
SWIDTH 504 0
DWIDTH 21 0
BBX 18 28 2 0
BITMAP
0F0200
1FC600
3FFE00
3FFC00
21FC00
207000
000000
000000
00C000
0FF800
387C00
783E00
783E00
FC3F00
FC3F00
783F00
107F00
01FF00
073F00
1E3F00
3C3F00
7C3F00
F83F00
FC3F00
FC7F00
FFFF40
FF3F80
7E1F00
ENDCHAR
STARTCHAR 00E4
ENCODING 228
SWIDTH 504 0
DWIDTH 21 0
BBX 18 28 2 0
BITMAP
1C1C00
3E3E00
3E3E00
3E3E00
1E3C00
080800
000000
000000
00C000
0FF800
387C00
783E00
783E00
FC3F00
FC3F00
783F00
107F00
01FF00
073F00
1E3F00
3C3F00
7C3F00
F83F00
FC3F00
FC7F00
FFFF40
FF3F80
7E1F00
ENDCHAR
STARTCHAR 00E5
ENCODING 229
SWIDTH 504 0
DWIDTH 21 0
BBX 18 29 2 0
BITMAP
03E000
067000
0C1000
0C1800
0C1800
0C1000
067000
03E000
000000
00C000
0FF800
387C00
783E00
783E00
FC3F00
FC3F00
783F00
107F00
01FF00
073F00
1E3F00
3C3F00
7C3F00
F83F00
FC3F00
FC7F00
FFFF40
FF3F80
7E1F00
ENDCHAR
STARTCHAR 00E6
ENCODING 230
SWIDTH 720 0
DWIDTH 30 0
BBX 27 21 2 -1
BITMAP
00803000
0FF8FE00
387FC700
783F8780
783F03C0
FC3F03C0
FC3F03E0
7C3F03E0
303F03E0
01FFFFE0
03BF0000
0E1F0000
3C1F0000
7C1F8000
781F8000
FC1FC020
FC1FE0C0
FFFFFB80
FFC7FF00
7F83FE00
08002000
ENDCHAR
STARTCHAR 00E7
ENCODING 231
SWIDTH 456 0
DWIDTH 19 0
BBX 15 28 2 -8
BITMAP
0080
0FF8
1C7C
3C7E
783E
783E
F83E
F81C
F800
F800
F800
FC00
FC00
FC00
FE00
7E00
7F06
3FFC
1FF8
0FF0
0180
0180
03C0
03E0
01E0
01C0
03C0
0F00
ENDCHAR
STARTCHAR 00E8
ENCODING 232
SWIDTH 456 0
DWIDTH 19 0
BBX 16 30 2 -1
BITMAP
3F00
1F00
0F80
0780
0380
01C0
00C0
0040
0000
0180
0FF0
1C78
3C3C
783C
783E
F83E
F81E
FFFE
FFFF
F800
F800
FC00
FC00
FC00
FE02
7F06
7FFC
3FF8
0FF0
0100
ENDCHAR
STARTCHAR 00E9
ENCODING 233
SWIDTH 456 0
DWIDTH 19 0
BBX 16 30 2 -1
BITMAP
01F8
01F8
01F0
03E0
03C0
0380
0700
0600
0000
0180
0FF0
1C78
3C3C
783C
783E
F83E
F81E
FFFE
FFFF
F800
F800
FC00
FC00
FC00
FE02
7F06
7FFC
3FF8
0FF0
0100
ENDCHAR
STARTCHAR 00EA
ENCODING 234
SWIDTH 456 0
DWIDTH 19 0
BBX 16 30 2 -1
BITMAP
07C0
0FE0
0FE0
1FF0
1C70
3838
7018
600C
0000
0180
0FF0
1C78
3C3C
783C
783E
F83E
F81E
FFFE
FFFF
F800
F800
FC00
FC00
FC00
FE02
7F06
7FFC
3FF8
0FF0
0100
ENDCHAR
STARTCHAR 00EB
ENCODING 235
SWIDTH 456 0
DWIDTH 19 0
BBX 16 29 2 -1
BITMAP
1838
3C7C
7E7C
7E7C
3C3C
0010
0000
0000
0180
0FF0
1C78
3C3C
783C
783E
F83E
F81E
FFFE
FFFF
F800
F800
FC00
FC00
FC00
FE02
7F06
7FFC
3FF8
0FF0
0100
ENDCHAR
STARTCHAR 00EC
ENCODING 236
SWIDTH 288 0
DWIDTH 12 0
BBX 11 29 0 0
BITMAP
FC00
7C00
3E00
1E00
0E00
0F00
0700
0300
0000
0000
7F80
1F80
1F80
1F80
1F80
1F80
1F80
1F80
1F80
1F80
1F80
1F80
1F80
1F80
1F80
1F80
1F80
1F80
7FE0
ENDCHAR
STARTCHAR 00ED
ENCODING 237
SWIDTH 288 0
DWIDTH 12 0
BBX 11 29 1 0
BITMAP
07E0
07C0
0F80
0F00
0E00
1C00
1800
1000
0000
0000
FF00
3F00
3F00
3F00
3F00
3F00
3F00
3F00
3F00
3F00
3F00
3F00
3F00
3F00
3F00
3F00
3F00
3F00
FFC0
ENDCHAR
STARTCHAR 00EE
ENCODING 238
SWIDTH 288 0
DWIDTH 12 0
BBX 13 29 -1 0
BITMAP
0FC0
0FC0
1FE0
1FE0
3CF0
7870
6038
C008
0000
0000
3FC0
0FC0
0FC0
0FC0
0FC0
0FC0
0FC0
0FC0
0FC0
0FC0
0FC0
0FC0
0FC0
0FC0
0FC0
0FC0
0FC0
0FC0
3FF0
ENDCHAR
STARTCHAR 00EF
ENCODING 239
SWIDTH 288 0
DWIDTH 12 0
BBX 13 28 -1 0
BITMAP
3870
78F8
FCF8
FCF8
7878
0020
0000
0000
0000
3FC0
0FC0
0FC0
0FC0
0FC0
0FC0
0FC0
0FC0
0FC0
0FC0
0FC0
0FC0
0FC0
0FC0
0FC0
0FC0
0FC0
0FC0
3FF0
ENDCHAR
STARTCHAR 00F0
ENCODING 240
SWIDTH 504 0
DWIDTH 21 0
BBX 17 29 2 -1
BITMAP
180C00
0E1800
07F000
03C000
07E000
1CF000
307800
207C00
003E00
07FE00
1F7F00
3C3F00
7C1F80
7C1F80
FC1F80
FC1F80
FC1F80
F81F80
FC1F80
FC1F80
FC1F80
FC1F80
FC1F80
7C1F00
7C1F00
3C1E00
1E3C00
0FF800
008000
ENDCHAR
STARTCHAR 00F1
ENCODING 241
SWIDTH 552 0
DWIDTH 23 0
BBX 21 28 1 0
BITMAP
01C080
07F980
07FF80
0FFF00
0C7F00
081C00
000000
000000
000600
FF3F80
3F7FC0
3FCFC0
3F87E0
3F07E0
3F07E0
3F07E0
3F07E0
3F07E0
3F07E0
3F07E0
3F07E0
3F07E0
3F07E0
3F07E0
3F07E0
3F07E0
3F87E0
FFDFF8
ENDCHAR
STARTCHAR 00F2
ENCODING 242
SWIDTH 504 0
DWIDTH 21 0
BBX 17 30 2 -1
BITMAP
3F0000
1F8000
0F8000
078000
03C000
01C000
00C000
006000
000000
008000
0FF800
1E3C00
3C1E00
7C1F00
7C1F00
FC1F80
FC1F80
FC1F80
FC1F80
FC1F80
FC1F80
FC1F80
FC1F80
FC1F80
7C1F00
7C1F00
3C1E00
1E3C00
0FF800
008000
ENDCHAR
STARTCHAR 00F3
ENCODING 243
SWIDTH 504 0
DWIDTH 21 0
BBX 17 30 2 -1
BITMAP
00FE00
00FC00
00F800
01F000
01E000
01C000
038000
030000
000000
008000
0FF800
1E3C00
3C1E00
7C1F00
7C1F00
FC1F80
FC1F80
FC1F80
FC1F80
FC1F80
FC1F80
FC1F80
FC1F80
FC1F80
7C1F00
7C1F00
3C1E00
1E3C00
0FF800
008000
ENDCHAR
STARTCHAR 00F4
ENCODING 244
SWIDTH 504 0
DWIDTH 21 0
BBX 17 30 2 -1
BITMAP
03E000
07F000
07F000
0FF800
0E3800
1C1C00
380C00
300600
000000
008000
0FF800
1E3C00
3C1E00
7C1F00
7C1F00
FC1F80
FC1F80
FC1F80
FC1F80
FC1F80
FC1F80
FC1F80
FC1F80
FC1F80
7C1F00
7C1F00
3C1E00
1E3C00
0FF800
008000
ENDCHAR
STARTCHAR 00F5
ENCODING 245
SWIDTH 504 0
DWIDTH 21 0
BBX 17 29 2 -1
BITMAP
0F0200
1FC600
3FFE00
3FFC00
23FC00
207000
000000
000000
008000
0FF800
1E3C00
3C1E00
7C1F00
7C1F00
FC1F80
FC1F80
FC1F80
FC1F80
FC1F80
FC1F80
FC1F80
FC1F80
FC1F80
7C1F00
7C1F00
3C1E00
1E3C00
0FF800
008000
ENDCHAR
STARTCHAR 00F6
ENCODING 246
SWIDTH 504 0
DWIDTH 21 0
BBX 17 29 2 -1
BITMAP
1C1C00
3E3E00
3E3E00
3E3E00
3E3C00
080800
000000
000000
008000
0FF800
1E3C00
3C1E00
7C1F00
7C1F00
FC1F80
FC1F80
FC1F80
FC1F80
FC1F80
FC1F80
FC1F80
FC1F80
FC1F80
7C1F00
7C1F00
3C1E00
1E3C00
0FF800
008000
ENDCHAR
STARTCHAR 00F7
ENCODING 247
SWIDTH 552 0
DWIDTH 23 0
BBX 23 18 0 5
BITMAP
001000
003800
007C00
003800
000000
000000
000000
000000
FFFFFE
FFFFFE
FFFFFE
000000
000000
000000
003800
007C00
007800
003800
ENDCHAR
STARTCHAR 00F8
ENCODING 248
SWIDTH 504 0
DWIDTH 21 0
BBX 17 21 2 -1
BITMAP
008080
0FF980
1E3F00
3C1E00
7C1F00
7C1F80
FC1F80
FC3F80
FC6F80
FCCF80
FD8F80
FD0F80
FE0F80
FE0F80
FC1F80
7C1F00
7C1F00
7C1E00
DE3C00
8FF800
008000
ENDCHAR
STARTCHAR 00F9
ENCODING 249
SWIDTH 552 0
DWIDTH 23 0
BBX 21 30 1 -1
BITMAP
0FC000
07E000
03E000
01E000
00F000
007000
003000
001800
000000
000000
FF1FE0
3F07E0
3F07E0
3F07E0
3F07E0
3F07E0
3F07E0
3F07E0
3F07E0
3F07E0
3F07E0
3F07E0
3F07E0
3F07E0
3F07E0
1F0FE0
1F9FE0
1FF7E0
0FE7F8
010000
ENDCHAR
STARTCHAR 00FA
ENCODING 250
SWIDTH 552 0
DWIDTH 23 0
BBX 21 30 1 -1
BITMAP
001F80
003F00
003E00
003C00
007800
007000
006000
00C000
000000
000000
FF1FE0
3F07E0
3F07E0
3F07E0
3F07E0
3F07E0
3F07E0
3F07E0
3F07E0
3F07E0
3F07E0
3F07E0
3F07E0
3F07E0
3F07E0
1F0FE0
1F9FE0
1FF7E0
0FE7F8
010000
ENDCHAR
STARTCHAR 00FB
ENCODING 251
SWIDTH 552 0
DWIDTH 23 0
BBX 21 30 1 -1
BITMAP
00F800
01FC00
01FC00
03FE00
038E00
070700
060300
0C0180
000000
000000
FF1FE0
3F07E0
3F07E0
3F07E0
3F07E0
3F07E0
3F07E0
3F07E0
3F07E0
3F07E0
3F07E0
3F07E0
3F07E0
3F07E0
3F07E0
1F0FE0
1F9FE0
1FF7E0
0FE7F8
010000
ENDCHAR
STARTCHAR 00FC
ENCODING 252
SWIDTH 552 0
DWIDTH 23 0
BBX 21 29 1 -1
BITMAP
070700
0F8F80
0F8F80
0F8F80
078F00
020200
000000
000000
000000
FF1FE0
3F07E0
3F07E0
3F07E0
3F07E0
3F07E0
3F07E0
3F07E0
3F07E0
3F07E0
3F07E0
3F07E0
3F07E0
3F07E0
3F07E0
1F0FE0
1F9FE0
1FF7E0
0FE7F8
010000
ENDCHAR
STARTCHAR 00FD
ENCODING 253
SWIDTH 504 0
DWIDTH 21 0
BBX 20 38 0 -9
BITMAP
000FC0
001F80
001F00
001E00
003C00
003800
003000
006000
000000
000000
FFC3F0
3F80E0
3F80C0
1F80C0
1F8080
0FC080
0FC180
07E100
07E300
03F200
03F200
01FE00
01FC00
01FC00
00FC00
00F800
007800
007000
003000
003000
002000
002000
384000
7C4000
7CC000
7D8000
3F0000
1E0000
ENDCHAR
STARTCHAR 00FE
ENCODING 254
SWIDTH 552 0
DWIDTH 23 0
BBX 20 37 1 -9
BITMAP
FF0000
3F0000
3F0000
3F0000
3F0000
3F0000
3F0000
3F0000
3F0C00
3F3F80
3F7FC0
3F87E0
3F87E0
3F03F0
3F03F0
3F03F0
3F03F0
3F03F0
3F03F0
3F03F0
3F03F0
3F03F0
3F03F0
3F03F0
3F03E0
3F87E0
3FFFC0
3F7F00
3F0800
3F0000
3F0000
3F0000
3F0000
3F0000
3F0000
3F0000
FFE000
ENDCHAR
STARTCHAR 00FF
ENCODING 255
SWIDTH 504 0
DWIDTH 21 0
BBX 20 37 0 -9
BITMAP
038700
07CF80
07CF80
07CF80
078780
000200
000000
000000
000000
FFC3F0
3F80E0
3F80C0
1F80C0
1F8080
0FC080
0FC180
07E100
07E300
03F200
03F200
01FE00
01FC00
01FC00
00FC00
00F800
007800
007000
003000
003000
002000
002000
384000
7C4000
7CC000
7D8000
3F0000
1E0000
ENDCHAR
STARTCHAR 0100
ENCODING 256
SWIDTH 720 0
DWIDTH 30 0
BBX 30 34 0 0
BITMAP
00FFFC00
00FFFC00
00FFFC00
00000000
00000000
00000000
00010000
00030000
00038000
00078000
00078000
000FC000
000FC000
000FE000
001FE000
0017F000
0037F000
0023F800
0063F800
0063F800
00C1FC00
00C1FC00
0080FE00
0180FE00
01007F00
03FFFF00
02007F00
06003F80
06003F80
0C001FC0
0C001FC0
1C000FE0
3C001FF0
FFC0FFFC
ENDCHAR
STARTCHAR 0101
ENCODING 257
SWIDTH 504 0
DWIDTH 21 0
BBX 18 26 2 0
BITMAP
3FFE00
3FFE00
3FFE00
3FFE00
000000
000000
00C000
0FF800
387C00
783E00
783E00
FC3F00
FC3F00
783F00
107F00
01FF00
073F00
1E3F00
3C3F00
7C3F00
F83F00
FC3F00
FC7F00
FFFF40
FF3F80
7E1F00
ENDCHAR
STARTCHAR 0102
ENCODING 258
SWIDTH 720 0
DWIDTH 30 0
BBX 30 36 0 0
BITMAP
00601800
00703800
003FF000
003FF000
001FE000
00078000
00000000
00000000
00010000
00030000
00038000
00078000
00078000
000FC000
000FC000
000FE000
001FE000
0017F000
0037F000
0023F800
0063F800
0063F800
00C1FC00
00C1FC00
0080FE00
0180FE00
01007F00
03FFFF00
02007F00
06003F80
06003F80
0C001FC0
0C001FC0
1C000FE0
3C001FF0
FFC0FFFC
ENDCHAR
STARTCHAR 0103
ENCODING 259
SWIDTH 504 0
DWIDTH 21 0
BBX 18 28 2 0
BITMAP
100600
180C00
1FFC00
0FFC00
0FF800
03E000
000000
000000
00C000
0FF800
387C00
783E00
783E00
FC3F00
FC3F00
783F00
107F00
01FF00
073F00
1E3F00
3C3F00
7C3F00
F83F00
FC3F00
FC7F00
FFFF40
FF3F80
7E1F00
ENDCHAR
STARTCHAR 0104
ENCODING 260
SWIDTH 720 0
DWIDTH 30 0
BBX 30 37 0 -9
BITMAP
00010000
00030000
00038000
00078000
00078000
000FC000
000FC000
000FE000
001FE000
0017F000
0037F000
0023F800
0063F800
0063F800
00C1FC00
00C1FC00
0080FE00
0180FE00
01007F00
03FFFF00
02007F00
06003F80
06003F80
0C001FC0
0C001FC0
1C000FE0
3C001FF0
FFC0FFFC
00000300
00000600
00000E00
00000E00
00001F00
00000F00
00000F80
000007F8
000003F0
ENDCHAR
STARTCHAR 0105
ENCODING 261
SWIDTH 504 0
DWIDTH 21 0
BBX 18 29 2 -9
BITMAP
00C000
0FF800
387C00
783E00
783E00
FC3F00
FC3F00
783F00
107F00
01FF00
073F00
1E3F00
3C3F00
7C3F00
F83F00
FC3F00
FC7F00
FFFF40
FF3F80
7E1F00
001C00
003800
003800
007800
007800
007C00
003E00
003FC0
001FC0
ENDCHAR
STARTCHAR 0106
ENCODING 262
SWIDTH 720 0
DWIDTH 30 0
BBX 26 38 2 -1
BITMAP
0003F000
0003E000
0003C000
00078000
00070000
00060000
000C0000
00000000
00000000
003FE040
00FFFCC0
03F00FC0
07E003C0
0FC001C0
1F8001C0
3F0000C0
3F0000C0
7F000040
7E000000
FE000000
FE000000
FE000000
FE000000
FE000000
FE000000
FE000000
FE000000
FE000000
FF000000
7F000000
7F000000
3F800080
1F800080
0FC00380
07E00700
03FC3C00
00FFF800
00070000
ENDCHAR
STARTCHAR 0107
ENCODING 263
SWIDTH 456 0
DWIDTH 19 0
BBX 15 30 2 -1
BITMAP
00FC
00F8
01F0
01E0
01C0
0380
0300
0300
0000
0080
0FF8
1C7C
3C7E
783E
783E
F83E
F81C
F800
F800
F800
FC00
FC00
FC00
FE00
7E00
7F06
3FFC
1FF8
0FF0
0180
ENDCHAR
STARTCHAR 0108
ENCODING 264
SWIDTH 720 0
DWIDTH 30 0
BBX 26 39 2 -1
BITMAP
000F8000
001F8000
003FC000
003FC000
0079E000
0070E000
00E07000
00801000
00000000
00000000
003FE040
00FFFCC0
03F00FC0
07E003C0
0FC001C0
1F8001C0
3F0000C0
3F0000C0
7F000040
7E000000
FE000000
FE000000
FE000000
FE000000
FE000000
FE000000
FE000000
FE000000
FE000000
FF000000
7F000000
7F000000
3F800080
1F800080
0FC00380
07E00700
03FC3C00
00FFF800
00070000
ENDCHAR
STARTCHAR 0109
ENCODING 265
SWIDTH 456 0
DWIDTH 19 0
BBX 15 30 2 -1
BITMAP
07C0
0FE0
0FE0
1FF0
1C70
3838
3018
600C
0000
0080
0FF8
1C7C
3C7E
783E
783E
F83E
F81C
F800
F800
F800
FC00
FC00
FC00
FE00
7E00
7F06
3FFC
1FF8
0FF0
0180
ENDCHAR
STARTCHAR 010A
ENCODING 266
SWIDTH 720 0
DWIDTH 30 0
BBX 26 37 2 -1
BITMAP
000F0000
001F8000
001F8000
001F8000
001F0000
00060000
00000000
00000000
003FE040
00FFFCC0
03F00FC0
07E003C0
0FC001C0
1F8001C0
3F0000C0
3F0000C0
7F000040
7E000000
FE000000
FE000000
FE000000
FE000000
FE000000
FE000000
FE000000
FE000000
FE000000
FF000000
7F000000
7F000000
3F800080
1F800080
0FC00380
07E00700
03FC3C00
00FFF800
00070000
ENDCHAR
STARTCHAR 010B
ENCODING 267
SWIDTH 456 0
DWIDTH 19 0
BBX 15 29 2 -1
BITMAP
0380
07C0
07E0
07E0
07C0
03C0
0000
0000
0080
0FF8
1C7C
3C7E
783E
783E
F83E
F81C
F800
F800
F800
FC00
FC00
FC00
FE00
7E00
7F06
3FFC
1FF8
0FF0
0180
ENDCHAR
STARTCHAR 010C
ENCODING 268
SWIDTH 720 0
DWIDTH 30 0
BBX 26 38 2 -1
BITMAP
00401800
00703000
0038F000
003DE000
001FE000
001FC000
000FC000
000F8000
00000000
003FE040
00FFFCC0
03F00FC0
07E003C0
0FC001C0
1F8001C0
3F0000C0
3F0000C0
7F000040
7E000000
FE000000
FE000000
FE000000
FE000000
FE000000
FE000000
FE000000
FE000000
FE000000
FF000000
7F000000
7F000000
3F800080
1F800080
0FC00380
07E00700
03FC3C00
00FFF800
00070000
ENDCHAR
STARTCHAR 010D
ENCODING 269
SWIDTH 456 0
DWIDTH 19 0
BBX 15 30 2 -1
BITMAP
3006
180C
1E3C
0F78
0FF8
07F0
07E0
03E0
0000
0080
0FF8
1C7C
3C7E
783E
783E
F83E
F81C
F800
F800
F800
FC00
FC00
FC00
FE00
7E00
7F06
3FFC
1FF8
0FF0
0180
ENDCHAR
STARTCHAR 010E
ENCODING 270
SWIDTH 720 0
DWIDTH 30 0
BBX 27 37 1 0
BITMAP
01803000
00C0E000
00F1E000
007BC000
007F8000
003F8000
003F0000
001F0000
00000000
FFF80000
3FFFE000
1FC1F800
1FC0FE00
1FC07F00
1FC03F80
1FC01F80
1FC01FC0
1FC01FC0
1FC00FE0
1FC00FE0
1FC00FE0
1FC00FE0
1FC00FE0
1FC00FE0
1FC00FE0
1FC00FE0
1FC00FE0
1FC00FE0
1FC00FC0
1FC01FC0
1FC01FC0
1FC01F80
1FC03F00
1FC07E00
1FC0FC00
1FFFF000
FFFF8000
ENDCHAR
STARTCHAR 010F
ENCODING 271
SWIDTH 744 0
DWIDTH 31 0
BBX 28 29 2 -1
BITMAP
003FC3C0
001FC7E0
000FCFF0
000FCFF0
000FC7F0
000FC7F0
000FC030
000FC030
018FC060
0FEFC060
1F7FC0C0
3E1FC180
7C0FC600
7C0FC000
FC0FC000
FC0FC000
FC0FC000
FC0FC000
FC0FC000
FC0FC000
FC0FC000
FC0FC000
FC0FC000
FC0FC000
7E0FC000
3E1FC000
3FEFF000
1FCFC000
03080000
ENDCHAR
STARTCHAR 0110
ENCODING 272
SWIDTH 720 0
DWIDTH 30 0
BBX 28 28 1 0
BITMAP
FFF80000
3FFFF000
1FC1FC00
0FC07E00
0FC03F00
0FC03F80
0FC01F80
0FC01FC0
0FC01FE0
0FC00FE0
0FC00FE0
0FC00FE0
0FC00FE0
FFFF0FF0
0FC00FF0
0FC00FE0
0FC00FE0
0FC00FE0
0FC00FE0
0FC00FE0
0FC00FC0
0FC01FC0
0FC01F80
0FC03F00
0FC03E00
0FC0FC00
1FFFF000
FFFF8000
ENDCHAR
STARTCHAR 0111
ENCODING 273
SWIDTH 552 0
DWIDTH 23 0
BBX 20 29 2 -1
BITMAP
007FC0
001FC0
000FC0
000FC0
07FFF0
07FFF0
000FC0
000FC0
018FC0
0FEFC0
1F7FC0
3E1FC0
7C0FC0
7C0FC0
FC0FC0
FC0FC0
FC0FC0
FC0FC0
FC0FC0
FC0FC0
FC0FC0
FC0FC0
FC0FC0
FC0FC0
7E1FC0
7E3FC0
3FEFF0
1FCFC0
030800
ENDCHAR
STARTCHAR 0112
ENCODING 274
SWIDTH 672 0
DWIDTH 28 0
BBX 25 34 1 0
BITMAP
03FFE000
03FFE000
03FFE000
00000000
00000000
00000000
FFFFFE00
3FFFFE00
1FC03E00
0FC00E00
0FC00600
0FC00600
0FC00200
0FC08200
0FC08200
0FC08000
0FC18000
0FC18000
0FC38000
0FFF8000
0FFF8000
0FC38000
0FC18000
0FC18000
0FC08000
0FC08080
0FC08080
0FC00180
0FC00100
0FC00300
0FC00700
0FE00F00
1FFFFF00
FFFFFF00
ENDCHAR
STARTCHAR 0113
ENCODING 275
SWIDTH 456 0
DWIDTH 19 0
BBX 16 27 2 -1
BITMAP
7FFC
7FFC
7FFC
7FFC
0000
0000
0180
0FF0
1C78
3C3C
783C
783E
F83E
F81E
FFFE
FFFF
F800
F800
FC00
FC00
FC00
FE02
7F06
7FFC
3FF8
0FF0
0100
ENDCHAR
STARTCHAR 0114
ENCODING 276
SWIDTH 672 0
DWIDTH 28 0
BBX 25 37 1 0
BITMAP
01002000
01806000
01E1E000
00FFC000
00FF8000
007F0000
000C0000
00000000
00000000
FFFFFE00
3FFFFE00
1FC03E00
0FC00E00
0FC00600
0FC00600
0FC00200
0FC08200
0FC08200
0FC08000
0FC18000
0FC18000
0FC38000
0FFF8000
0FFF8000
0FC38000
0FC18000
0FC18000
0FC08000
0FC08080
0FC08080
0FC00180
0FC00100
0FC00300
0FC00700
0FE00F00
1FFFFF00
FFFFFF00
ENDCHAR
STARTCHAR 0115
ENCODING 277
SWIDTH 456 0
DWIDTH 19 0
BBX 16 29 2 -1
BITMAP
600C
3018
3FF8
1FF0
1FF0
07C0
0000
0000
0180
0FF0
1C78
3C3C
783C
783E
F83E
F81E
FFFE
FFFF
F800
F800
FC00
FC00
FC00
FE02
7F06
7FFC
3FF8
0FF0
0100
ENDCHAR
STARTCHAR 0116
ENCODING 278
SWIDTH 672 0
DWIDTH 28 0
BBX 25 36 1 0
BITMAP
001E0000
003F0000
003F0000
003F0000
001E0000
000C0000
00000000
00000000
FFFFFE00
3FFFFE00
1FC03E00
0FC00E00
0FC00600
0FC00600
0FC00200
0FC08200
0FC08200
0FC08000
0FC18000
0FC18000
0FC38000
0FFF8000
0FFF8000
0FC38000
0FC18000
0FC18000
0FC08000
0FC08080
0FC08080
0FC00180
0FC00100
0FC00300
0FC00700
0FE00F00
1FFFFF00
FFFFFF00
ENDCHAR
STARTCHAR 0117
ENCODING 279
SWIDTH 456 0
DWIDTH 19 0
BBX 16 29 2 -1
BITMAP
0380
07C0
07E0
07E0
07C0
0380
0000
0000
0180
0FF0
1C78
3C3C
783C
783E
F83E
F81E
FFFE
FFFF
F800
F800
FC00
FC00
FC00
FE02
7F06
7FFC
3FF8
0FF0
0100
ENDCHAR
STARTCHAR 0118
ENCODING 280
SWIDTH 672 0
DWIDTH 28 0
BBX 25 37 1 -9
BITMAP
FFFFFE00
3FFFFE00
1FC03E00
0FC00E00
0FC00600
0FC00600
0FC00200
0FC08200
0FC08200
0FC08000
0FC18000
0FC18000
0FC38000
0FFF8000
0FFF8000
0FC38000
0FC18000
0FC18000
0FC08000
0FC08080
0FC08080
0FC00180
0FC00100
0FC00300
0FC00700
0FE00F00
1FFFFF00
FFFFFF00
00006000
0000E000
0001C000
0001C000
0001E000
0001E000
0001F800
0000FF00
00007F00
ENDCHAR
STARTCHAR 0119
ENCODING 281
SWIDTH 456 0
DWIDTH 19 0
BBX 16 29 2 -9
BITMAP
0180
0FF0
1C78
3C3C
783C
783E
F83E
F81E
FFFE
FFFF
F800
F800
FC00
FC00
FC00
FE02
7F06
7FFC
3FF8
0FF0
0380
0700
0F00
0F00
0F00
0F80
0FC0
07F8
03F8
ENDCHAR
STARTCHAR 011A
ENCODING 282
SWIDTH 672 0
DWIDTH 28 0
BBX 25 37 1 0
BITMAP
03006000
0181C000
01C38000
00F78000
00FF0000
007F0000
007E0000
003E0000
00000000
FFFFFE00
3FFFFE00
1FC03E00
0FC00E00
0FC00600
0FC00600
0FC00200
0FC08200
0FC08200
0FC08000
0FC18000
0FC18000
0FC38000
0FFF8000
0FFF8000
0FC38000
0FC18000
0FC18000
0FC08000
0FC08080
0FC08080
0FC00180
0FC00100
0FC00300
0FC00700
0FE00F00
1FFFFF00
FFFFFF00
ENDCHAR
STARTCHAR 011B
ENCODING 283
SWIDTH 456 0
DWIDTH 19 0
BBX 16 30 2 -1
BITMAP
300C
381C
1C38
1E78
0FF0
0FE0
07E0
07C0
0000
0180
0FF0
1C78
3C3C
783C
783E
F83E
F81E
FFFE
FFFF
F800
F800
FC00
FC00
FC00
FE02
7F06
7FFC
3FF8
0FF0
0100
ENDCHAR
STARTCHAR 011C
ENCODING 284
SWIDTH 768 0
DWIDTH 32 0
BBX 30 39 2 -1
BITMAP
00078000
000FC000
000FE000
001FE000
001EF000
00387000
00703800
00601800
00000000
00000000
003FF020
00FE3E60
03F00FE0
07C003E0
0FC001E0
1F8000E0
3F000060
7F000060
7F000020
7F000020
FE000000
FE000000
FE000000
FE000000
FE000000
FE000000
FE007FFC
FE001FF0
FE000FE0
7F000FE0
7F000FE0
7F000FE0
3F000FE0
1F800FE0
0FC00FE0
07E00FE0
01F80FC0
007FFE00
0007C000
ENDCHAR
STARTCHAR 011D
ENCODING 285
SWIDTH 504 0
DWIDTH 21 0
BBX 18 38 2 -9
BITMAP
03E000
07F000
07F000
0FF800
0E3800
1C1C00
180C00
300600
000000
018000
1FFFC0
3C3FC0
7C3C00
FC1E00
F81F00
F81F00
F81F00
F81F00
F81F00
FC1F00
7C3E00
3E3C00
0FF000
180000
300000
700000
F80000
FFFE00
FFFF80
7FFFC0
3FFFC0
3FFFC0
F003C0
E001C0
E00180
F00380
7F3E00
0FF800
ENDCHAR
STARTCHAR 011E
ENCODING 286
SWIDTH 768 0
DWIDTH 32 0
BBX 30 37 2 -1
BITMAP
00601800
00703800
007FF000
003FF000
001FE000
000F8000
00000000
00000000
003FF020
00FE3E60
03F00FE0
07C003E0
0FC001E0
1F8000E0
3F000060
7F000060
7F000020
7F000020
FE000000
FE000000
FE000000
FE000000
FE000000
FE000000
FE007FFC
FE001FF0
FE000FE0
7F000FE0
7F000FE0
7F000FE0
3F000FE0
1F800FE0
0FC00FE0
07E00FE0
01F80FC0
007FFE00
0007C000
ENDCHAR
STARTCHAR 011F
ENCODING 287
SWIDTH 504 0
DWIDTH 21 0
BBX 18 37 2 -9
BITMAP
100600
180E00
1FFC00
0FFC00
07F800
03F000
000000
000000
018000
1FFFC0
3C3FC0
7C3C00
FC1E00
F81F00
F81F00
F81F00
F81F00
F81F00
FC1F00
7C3E00
3E3C00
0FF000
180000
300000
700000
F80000
FFFE00
FFFF80
7FFFC0
3FFFC0
3FFFC0
F003C0
E001C0
E00180
F00380
7F3E00
0FF800
ENDCHAR
STARTCHAR 0120
ENCODING 288
SWIDTH 768 0
DWIDTH 32 0
BBX 30 37 2 -1
BITMAP
000F0000
000F8000
001F8000
000F8000
000F8000
00060000
00000000
00000000
003FF020
00FE3E60
03F00FE0
07C003E0
0FC001E0
1F8000E0
3F000060
7F000060
7F000020
7F000020
FE000000
FE000000
FE000000
FE000000
FE000000
FE000000
FE007FFC
FE001FF0
FE000FE0
7F000FE0
7F000FE0
7F000FE0
3F000FE0
1F800FE0
0FC00FE0
07E00FE0
01F80FC0
007FFE00
0007C000
ENDCHAR
STARTCHAR 0121
ENCODING 289
SWIDTH 504 0
DWIDTH 21 0
BBX 18 37 2 -9
BITMAP
01C000
03E000
03E000
07E000
03E000
01C000
000000
000000
018000
1FFFC0
3C3FC0
7C3C00
FC1E00
F81F00
F81F00
F81F00
F81F00
F81F00
FC1F00
7C3E00
3E3C00
0FF000
180000
300000
700000
F80000
FFFE00
FFFF80
7FFFC0
3FFFC0
3FFFC0
F003C0
E001C0
E00180
F00380
7F3E00
0FF800
ENDCHAR
STARTCHAR 0122
ENCODING 290
SWIDTH 768 0
DWIDTH 32 0
BBX 30 36 2 -8
BITMAP
003FF020
00FC3E60
03F00FE0
07C003E0
0FC001E0
1F8000E0
3F000060
7F000060
7F000020
7F000020
FE000000
FE000000
FE000000
FE000000
FE000000
FE000000
FE007FFC
FE001FF0
FE000FE0
7F000FE0
7F000FE0
7F000FE0
3F800FE0
1F800FE0
0FC00FE0
07E00FE0
01F80FC0
007FFE00
0007C000
00070000
00078000
00078000
00038000
00038000
00078000
003E0000
ENDCHAR
STARTCHAR 0123
ENCODING 291
SWIDTH 504 0
DWIDTH 21 0
BBX 18 39 2 -9
BITMAP
004000
018000
030000
020000
06C000
07E000
03E000
03C000
000000
000000
018000
1FFFC0
3C3FC0
7C3C00
FC1E00
F81F00
F81F00
F81F00
F81F00
F81F00
FC1F00
7C3E00
3E3C00
0FF000
180000
300000
700000
F80000
FFFE00
FFFF80
7FFFC0
3FFFC0
3FFFC0
F003C0
E001C0
E00180
F00380
7F3E00
1FF800
ENDCHAR
STARTCHAR 0124
ENCODING 292
SWIDTH 768 0
DWIDTH 32 0
BBX 31 38 1 0
BITMAP
0007C000
000FC000
000FE000
001FE000
003CF000
00383800
00701800
00600C00
00000000
00000000
FFFCFFFE
3FF01FF0
0FE00FE0
0FC00FE0
0FC00FE0
0FC00FE0
0FC00FE0
0FC00FE0
0FC00FE0
0FC00FE0
0FC00FE0
0FC00FE0
0FC00FE0
0FFFFFE0
0FFFFFE0
0FC00FE0
0FC00FE0
0FC00FE0
0FC00FE0
0FC00FE0
0FC00FE0
0FC00FE0
0FC00FE0
0FC00FE0
0FC00FE0
0FE00FE0
1FE00FE0
FFFCFFFE
ENDCHAR
STARTCHAR 0125
ENCODING 293
SWIDTH 552 0
DWIDTH 23 0
BBX 21 38 1 0
BITMAP
00F800
00FC00
01FC00
03FE00
03CE00
070700
060300
0C0180
000000
000000
FF0000
3F0000
3F0000
3F0000
3F0000
3F0000
3F0000
3F0000
3F0400
3F3F80
3F7FC0
3FCFC0
3F87E0
3F07E0
3F07E0
3F07E0
3F07E0
3F07E0
3F07E0
3F07E0
3F07E0
3F07E0
3F07E0
3F07E0
3F07E0
3F07E0
3F87E0
FFDFF8
ENDCHAR
STARTCHAR 0126
ENCODING 294
SWIDTH 768 0
DWIDTH 32 0
BBX 31 28 1 0
BITMAP
FFFCFFFE
1FF01FF0
1FE00FE0
0FC00FE0
FFFFFFFC
FFFFFFFC
0FC00FE0
0FC00FE0
0FC00FE0
0FC00FE0
0FC00FE0
0FC00FE0
0FC00FE0
0FFFFFE0
0FFFFFE0
0FC00FE0
0FC00FE0
0FC00FE0
0FC00FE0
0FC00FE0
0FC00FE0
0FC00FE0
0FC00FE0
0FC00FE0
0FC00FE0
0FE00FE0
1FE01FE0
FFFCFFFE
ENDCHAR
STARTCHAR 0127
ENCODING 295
SWIDTH 552 0
DWIDTH 23 0
BBX 21 28 1 0
BITMAP
FF0000
3F0000
3F0000
3F0000
FFFC00
FFFC00
3F0000
3F0000
3F0400
3F3F80
3F7FC0
3FCFC0
3F87E0
3F07E0
3F07E0
3F07E0
3F07E0
3F07E0
3F07E0
3F07E0
3F07E0
3F07E0
3F07E0
3F07E0
3F07E0
3F07E0
3F87E0
FFDFF8
ENDCHAR
STARTCHAR 0128
ENCODING 296
SWIDTH 384 0
DWIDTH 16 0
BBX 14 36 1 0
BITMAP
1E0C
3F8C
7FF8
7FF8
43F0
40C0
0000
0000
FFFC
3FF0
1FE0
0FC0
0FC0
0FC0
0FC0
0FC0
0FC0
0FC0
0FC0
0FC0
0FC0
0FC0
0FC0
0FC0
0FC0
0FC0
0FC0
0FC0
0FC0
0FC0
0FC0
0FC0
0FC0
0FE0
1FE0
FFFC
ENDCHAR
STARTCHAR 0129
ENCODING 297
SWIDTH 288 0
DWIDTH 12 0
BBX 13 28 -1 0
BITMAP
1C08
3F88
7FF8
FFF8
C7F0
81E0
0000
0000
0000
3FC0
0FC0
0FC0
0FC0
0FC0
0FC0
0FC0
0FC0
0FC0
0FC0
0FC0
0FC0
0FC0
0FC0
0FC0
0FC0
0FC0
0FC0
3FF0
ENDCHAR
STARTCHAR 012A
ENCODING 298
SWIDTH 384 0
DWIDTH 16 0
BBX 14 34 1 0
BITMAP
7FFC
7FFC
7FFC
0000
0000
0000
FFFC
3FF0
1FE0
0FC0
0FC0
0FC0
0FC0
0FC0
0FC0
0FC0
0FC0
0FC0
0FC0
0FC0
0FC0
0FC0
0FC0
0FC0
0FC0
0FC0
0FC0
0FC0
0FC0
0FC0
0FC0
0FE0
1FE0
FFFC
ENDCHAR
STARTCHAR 012B
ENCODING 299
SWIDTH 288 0
DWIDTH 12 0
BBX 13 26 -1 0
BITMAP
FFF8
FFF8
FFF8
FFF8
0000
0000
0000
3FC0
0FC0
0FC0
0FC0
0FC0
0FC0
0FC0
0FC0
0FC0
0FC0
0FC0
0FC0
0FC0
0FC0
0FC0
0FC0
0FC0
0FC0
3FF0
ENDCHAR
STARTCHAR 012C
ENCODING 300
SWIDTH 384 0
DWIDTH 16 0
BBX 14 37 1 0
BITMAP
4008
6018
7878
3FF0
1FF0
0FE0
0300
0000
0000
FFFC
3FF0
1FE0
0FC0
0FC0
0FC0
0FC0
0FC0
0FC0
0FC0
0FC0
0FC0
0FC0
0FC0
0FC0
0FC0
0FC0
0FC0
0FC0
0FC0
0FC0
0FC0
0FC0
0FC0
0FC0
0FE0
1FE0
FFFC
ENDCHAR
STARTCHAR 012D
ENCODING 301
SWIDTH 288 0
DWIDTH 12 0
BBX 12 28 0 0
BITMAP
8030
C070
FFE0
7FE0
3FC0
1F80
0000
0000
0000
7F80
1F80
1F80
1F80
1F80
1F80
1F80
1F80
1F80
1F80
1F80
1F80
1F80
1F80
1F80
1F80
1F80
1F80
7FE0
ENDCHAR
STARTCHAR 012E
ENCODING 302
SWIDTH 384 0
DWIDTH 16 0
BBX 14 37 1 -9
BITMAP
FFFC
3FF0
0FE0
0FC0
0FC0
0FC0
0FC0
0FC0
0FC0
0FC0
0FC0
0FC0
0FC0
0FC0
0FC0
0FC0
0FC0
0FC0
0FC0
0FC0
0FC0
0FC0
0FC0
0FC0
0FC0
0FE0
1FE0
FFFC
0600
0E00
1C00
1C00
1E00
1F00
1F80
0FF0
07F0
ENDCHAR
STARTCHAR 012F
ENCODING 303
SWIDTH 288 0
DWIDTH 12 0
BBX 10 37 1 -9
BITMAP
1E00
3F00
3F00
3F00
3F00
1E00
0000
0000
0000
FF00
3F00
3F00
3F00
3F00
3F00
3F00
3F00
3F00
3F00
3F00
3F00
3F00
3F00
3F00
3F00
3F00
3F00
FFC0
1800
3000
7000
7000
7800
7800
7E00
3FC0
1FC0
ENDCHAR
STARTCHAR 0130
ENCODING 304
SWIDTH 384 0
DWIDTH 16 0
BBX 14 36 1 0
BITMAP
0300
0780
0FC0
0FC0
0FC0
0780
0000
0000
FFFC
3FF0
1FE0
0FC0
0FC0
0FC0
0FC0
0FC0
0FC0
0FC0
0FC0
0FC0
0FC0
0FC0
0FC0
0FC0
0FC0
0FC0
0FC0
0FC0
0FC0
0FC0
0FC0
0FC0
0FC0
0FE0
1FE0
FFFC
ENDCHAR
STARTCHAR 0131
ENCODING 305
SWIDTH 288 0
DWIDTH 12 0
BBX 10 19 1 0
BITMAP
FF00
3F00
3F00
3F00
3F00
3F00
3F00
3F00
3F00
3F00
3F00
3F00
3F00
3F00
3F00
3F00
3F00
3F00
FFC0
ENDCHAR
STARTCHAR 0132
ENCODING 306
SWIDTH 816 0
DWIDTH 34 0
BBX 33 29 1 -1
BITMAP
FFFC3FFF80
3FF007FE00
1FE003FC00
0FC001F800
0FC001F800
0FC001F800
0FC001F800
0FC001F800
0FC001F800
0FC001F800
0FC001F800
0FC001F800
0FC001F800
0FC001F800
0FC001F800
0FC001F800
0FC001F800
0FC001F800
0FC001F800
0FC001F800
0FC3C1F800
0FC7E1F800
0FC7E1F800
0FC7E1F800
0FC7C3F000
0FE3C3F000
1FE1C3E000
FFFCFF8000
00000C0000
ENDCHAR
STARTCHAR 0133
ENCODING 307
SWIDTH 552 0
DWIDTH 23 0
BBX 19 37 1 -9
BITMAP
1E03C0
3F07E0
3F07E0
3F07E0
3F07E0
1E03C0
000000
000000
000000
FF1FE0
3F07E0
3F07E0
3F07E0
3F07E0
3F07E0
3F07E0
3F07E0
3F07E0
3F07E0
3F07E0
3F07E0
3F07E0
3F07E0
3F07E0
3F07E0
3F07E0
3F07E0
FFC7E0
0007E0
0007E0
0007E0
0047E0
00E7C0
00E7C0
00E7C0
00F780
003E00
ENDCHAR
STARTCHAR 0134
ENCODING 308
SWIDTH 504 0
DWIDTH 21 0
BBX 21 39 0 -1
BITMAP
001F00
003F80
003F80
007FC0
0073C0
00E0E0
01C060
018030
000000
000000
03FFF8
007FC0
003F80
003F80
003F80
003F80
003F80
003F80
003F80
003F80
003F80
003F80
003F80
003F80
003F80
003F80
003F80
003F80
003F80
003F80
7C3F80
7C3F80
FC3F00
7C3F00
783F00
783E00
3C7C00
0FF800
018000
ENDCHAR
STARTCHAR 0135
ENCODING 309
SWIDTH 336 0
DWIDTH 14 0
BBX 14 38 -1 -9
BITMAP
07E0
07E0
0FF0
0FF0
1E78
1C38
301C
6004
0000
0000
1FE0
07E0
07E0
07E0
07E0
07E0
07E0
07E0
07E0
07E0
07E0
07E0
07E0
07E0
07E0
07E0
07E0
07E0
07E0
03E0
03E0
03E0
43E0
F3E0
F3E0
F3C0
7780
3E00
ENDCHAR
STARTCHAR 0136
ENCODING 310
SWIDTH 768 0
DWIDTH 32 0
BBX 32 36 1 -8
BITMAP
FFFC0FFE
3FF003F8
0FE001E0
0FE001C0
0FC00300
0FC00600
0FC01C00
0FC03800
0FC06000
0FC0C000
0FC38000
0FC78000
0FCFC000
0FDFC000
0FFFE000
0FEFF000
0FC7F800
0FC3FC00
0FC3FC00
0FC1FE00
0FC0FF00
0FC07F80
0FC07FC0
0FC03FC0
0FE01FE0
0FE00FF0
1FE00FF8
FFFC3FFF
00000000
00078000
0007C000
0003C000
0001C000
0001C000
00078000
001E0000
ENDCHAR
STARTCHAR 0137
ENCODING 311
SWIDTH 552 0
DWIDTH 23 0
BBX 23 36 1 -8
BITMAP
FF0000
3F0000
3F0000
3F0000
3F0000
3F0000
3F0000
3F0000
3F0000
3F0FF8
3F03E0
3F0180
3F0300
3F0600
3F0C00
3F1800
3F3C00
3F7E00
3FFE00
3FBF00
3F3F80
3F1F80
3F0FC0
3F0FE0
3F07E0
3F03F0
3F83F8
FFC7FE
000000
00F000
00F800
007800
003C00
003800
007800
01E000
ENDCHAR
STARTCHAR 0138
ENCODING 312
SWIDTH 552 0
DWIDTH 23 0
BBX 23 19 1 0
BITMAP
FFCFF8
3F83E0
3F0180
1F0300
1F0600
1F0C00
1F1800
1F3C00
1F7E00
1FFE00
1FBF00
1F3F80
1F1F80
1F0FC0
1F0FE0
1F07E0
1F03F0
3F83F8
FFC7FE
ENDCHAR
STARTCHAR 0139
ENCODING 313
SWIDTH 672 0
DWIDTH 28 0
BBX 25 37 1 0
BITMAP
00FC0000
00F80000
00F00000
01E00000
01C00000
01800000
03000000
00000000
00000000
FFFC0000
3FF00000
1FE00000
0FC00000
0FC00000
0FC00000
0FC00000
0FC00000
0FC00000
0FC00000
0FC00000
0FC00000
0FC00000
0FC00000
0FC00000
0FC00000
0FC00000
0FC00000
0FC00080
0FC00080
0FC00080
0FC00180
0FC00180
0FC00380
0FC00780
0FE00F80
1FFFFF00
FFFFFF00
ENDCHAR
STARTCHAR 013A
ENCODING 314
SWIDTH 288 0
DWIDTH 12 0
BBX 10 37 1 0
BITMAP
0FC0
0F80
0F00
1E00
1C00
1800
3000
0000
0000
FF00
7F00
3F00
3F00
3F00
3F00
3F00
3F00
3F00
3F00
3F00
3F00
3F00
3F00
3F00
3F00
3F00
3F00
3F00
3F00
3F00
3F00
3F00
3F00
3F00
3F00
3F00
FFC0
ENDCHAR
STARTCHAR 013B
ENCODING 315
SWIDTH 672 0
DWIDTH 28 0
BBX 25 36 1 -8
BITMAP
FFFC0000
3FF00000
1FE00000
0FC00000
0FC00000
0FC00000
0FC00000
0FC00000
0FC00000
0FC00000
0FC00000
0FC00000
0FC00000
0FC00000
0FC00000
0FC00000
0FC00000
0FC00000
0FC00080
0FC00080
0FC00080
0FC00180
0FC00180
0FC00380
0FC00780
0FE00F80
1FFFFF00
FFFFFF00
00000000
001C0000
001E0000
000F0000
000F0000
000F0000
001E0000
00780000
ENDCHAR
STARTCHAR 013C
ENCODING 316
SWIDTH 288 0
DWIDTH 12 0
BBX 10 36 1 -8
BITMAP
FF00
7F00
3F00
3F00
3F00
3F00
3F00
3F00
3F00
3F00
3F00
3F00
3F00
3F00
3F00
3F00
3F00
3F00
3F00
3F00
3F00
3F00
3F00
3F00
3F00
3F00
3F00
FFC0
0000
3C00
3E00
0F00
0F00
0E00
1E00
7800
ENDCHAR
STARTCHAR 013D
ENCODING 317
SWIDTH 672 0
DWIDTH 28 0
BBX 25 28 1 0
BITMAP
FFFC1E00
3FF03F00
1FE07F00
0FC07F80
0FC07F80
0FC03F80
0FC00380
0FC00300
0FC00300
0FC00200
0FC00600
0FC00C00
0FC03000
0FC00000
0FC00000
0FC00000
0FC00000
0FC00000
0FC00080
0FC00080
0FC00080
0FC00180
0FC00180
0FC00380
0FC00780
0FE00F80
1FFFFF00
FFFFFF00
ENDCHAR
STARTCHAR 013E
ENCODING 318
SWIDTH 480 0
DWIDTH 20 0
BBX 18 28 1 0
BITMAP
FF0F00
7F1F80
3F3FC0
3F3FC0
3F1FC0
3F1FC0
3F01C0
3F01C0
3F0180
3F0180
3F0300
3F0600
3F1800
3F0000
3F0000
3F0000
3F0000
3F0000
3F0000
3F0000
3F0000
3F0000
3F0000
3F0000
3F0000
3F0000
3F0000
FFC000
ENDCHAR
STARTCHAR 013F
ENCODING 319
SWIDTH 672 0
DWIDTH 28 0
BBX 25 28 1 0
BITMAP
FFFC0000
3FF00000
1FE00000
0FC00000
0FC00000
0FC00000
0FC00000
0FC00000
0FC00000
0FC00000
0FC00000
0FC00000
0FC0F000
0FC1F000
0FC1F000
0FC1F000
0FC0F000
0FC00000
0FC00080
0FC00080
0FC00080
0FC00180
0FC00180
0FC00380
0FC00780
0FE00F80
1FFFFF00
FFFFFF00
ENDCHAR
STARTCHAR 0140
ENCODING 320
SWIDTH 384 0
DWIDTH 16 0
BBX 16 28 1 0
BITMAP
FF00
7F00
3F00
3F00
3F00
3F00
3F00
3F00
3F00
3F00
3F00
3F00
3F1E
3F1F
3F1F
3F1F
3F0E
3F00
3F00
3F00
3F00
3F00
3F00
3F00
3F00
3F00
3F00
FFC0
ENDCHAR
STARTCHAR 0141
ENCODING 321
SWIDTH 672 0
DWIDTH 28 0
BBX 25 28 1 0
BITMAP
FFFE0000
3FF00000
1FE00000
0FC00000
0FC00000
0FC00000
0FC00000
0FC00000
0FC60000
0FCC0000
0FD80000
0FF00000
0FE00000
0FC00000
0FC00000
0FC00000
1FC00000
3FC00000
6FC00000
CFC00080
8FC00080
0FC00080
0FC00180
0FC00380
0FC00780
0FE00F00
1FFFFF00
FFFFFF00
ENDCHAR
STARTCHAR 0142
ENCODING 322
SWIDTH 288 0
DWIDTH 12 0
BBX 10 28 1 0
BITMAP
FF00
7F00
3F00
3F00
3F00
3F00
3F00
3F00
3F00
3F00
3FC0
3F80
3F00
3F00
3F00
3F00
7F00
FF00
BF00
3F00
3F00
3F00
3F00
3F00
3F00
3F00
3F00
FFC0
ENDCHAR
STARTCHAR 0143
ENCODING 323
SWIDTH 720 0
DWIDTH 30 0
BBX 28 38 1 -1
BITMAP
0003F000
0007E000
0007C000
00078000
000F0000
000E0000
000C0000
00000000
00000000
FF801FF0
7FC007C0
1FE00380
1FF00180
0FF80180
0FF80180
0BFC0180
09FE0180
09FF0180
08FF8180
087F8180
083FC180
081FE180
081FF180
080FF980
0807F980
0803FD80
0801FF80
0800FF80
0800FF80
08007F80
08003F80
08001F80
08000F80
08000F80
1C000780
1C000380
FF800180
00000080
ENDCHAR
STARTCHAR 0144
ENCODING 324
SWIDTH 552 0
DWIDTH 23 0
BBX 21 29 1 0
BITMAP
003F00
003E00
003C00
007800
007800
007000
00E000
00C000
000000
000600
FF3F80
3F7FC0
3FCFC0
3F87E0
3F07E0
3F07E0
3F07E0
3F07E0
3F07E0
3F07E0
3F07E0
3F07E0
3F07E0
3F07E0
3F07E0
3F07E0
3F07E0
3F87E0
FFDFF8
ENDCHAR
STARTCHAR 0145
ENCODING 325
SWIDTH 720 0
DWIDTH 30 0
BBX 28 36 1 -8
BITMAP
FF801FF0
7FC007C0
1FE00380
1FF00180
0FF80180
0FF80180
0BFC0180
09FE0180
09FF0180
08FF8180
087F8180
083FC180
081FE180
081FF180
080FF980
0807F980
0803FD80
0801FF80
0800FF80
0800FF80
08007F80
08003F80
08001F80
08000F80
08000F80
1C000780
1C000380
FF800180
00000080
000E0000
000F8000
00078000
00038000
00078000
000F0000
003C0000
ENDCHAR
STARTCHAR 0146
ENCODING 326
SWIDTH 552 0
DWIDTH 23 0
BBX 21 28 1 -8
BITMAP
000600
FF3F80
3F7FC0
3FCFC0
3F87E0
3F07E0
3F07E0
3F07E0
3F07E0
3F07E0
3F07E0
3F07E0
3F07E0
3F07E0
3F07E0
3F07E0
3F07E0
3F07E0
3F87E0
FFDFF8
000000
00F000
00F800
007800
003C00
003800
007800
01E000
ENDCHAR
STARTCHAR 0147
ENCODING 327
SWIDTH 720 0
DWIDTH 30 0
BBX 28 38 1 -1
BITMAP
00C01800
00607000
0070E000
003DE000
003FC000
001FC000
001F8000
000F8000
00000000
FF801FF0
7FC007C0
1FE00380
1FF00180
0FF80180
0FF80180
0BFC0180
09FE0180
09FF0180
08FF8180
087F8180
083FC180
081FE180
081FF180
080FF980
0807F980
0803FD80
0801FF80
0800FF80
0800FF80
08007F80
08003F80
08001F80
08000F80
08000F80
1C000780
1C000380
FF800180
00000080
ENDCHAR
STARTCHAR 0148
ENCODING 328
SWIDTH 552 0
DWIDTH 23 0
BBX 21 29 1 0
BITMAP
0C0180
070300
078700
03DE00
01FE00
01FC00
00FC00
00F800
000000
000600
FF3F80
3F7FC0
3FCFC0
3F87E0
3F07E0
3F07E0
3F07E0
3F07E0
3F07E0
3F07E0
3F07E0
3F07E0
3F07E0
3F07E0
3F07E0
3F07E0
3F07E0
3F87E0
FFDFF8
ENDCHAR
STARTCHAR 0149
ENCODING 329
SWIDTH 720 0
DWIDTH 30 0
BBX 30 28 3 0
BITMAP
7C000000
7E000000
FE000000
FF000000
FF000000
7F000000
07000000
06000000
06000300
0C7F9FC0
0C1FBFE0
181FE7E0
601FC3F0
001F83F0
001F83F0
001F83F0
001F83F0
001F83F0
001F83F0
001F83F0
001F83F0
001F83F0
001F83F0
001F83F0
001F83F0
001F83F0
001FC3F0
007FEFFC
ENDCHAR
STARTCHAR 014A
ENCODING 330
SWIDTH 768 0
DWIDTH 32 0
BBX 29 29 1 -1
BITMAP
FFC1FC00
3FC3FE00
0FC60F80
0FCC0780
0FD807C0
0FF003E0
0FE003E0
0FE003F0
0FC003F0
0FC003F0
0FC003F8
0FC003F8
0FC003F8
0FC003F8
0FC003F8
0FC003F8
0FC003F8
0FC003F8
0FC003F8
0FC003F0
0FC003F0
0FC003F0
0FC1E3E0
0FC1F3E0
0FC1F3C0
0FE1F380
1FE1F300
FFFCFE00
00003000
ENDCHAR
STARTCHAR 014B
ENCODING 331
SWIDTH 552 0
DWIDTH 23 0
BBX 18 29 2 -9
BITMAP
000C00
FE3F00
7EFF80
3F8FC0
3F0FC0
3E0FC0
3E0FC0
3E0FC0
3E0FC0
3E0FC0
3E0FC0
3E0FC0
3E0FC0
3E0FC0
3E0FC0
3E0FC0
3E0FC0
7E0FC0
7F0FC0
FF8FC0
000FC0
000FC0
000FC0
008FC0
01CFC0
03CF80
03CF80
01EF00
00FC00
ENDCHAR
STARTCHAR 014C
ENCODING 332
SWIDTH 768 0
DWIDTH 32 0
BBX 29 35 2 -1
BITMAP
00FFF800
00FFF800
00FFF800
00000000
00000000
00000000
003FE000
01F8FC00
07E03E00
0FC01F00
1F800F80
3F000FC0
3F0007E0
7F0007F0
7F0007F0
FE0007F0
FE0007F8
FE0003F8
FE0003F8
FE0003F8
FE0003F8
FE0003F8
FE0003F8
FE0007F8
FE0007F0
7E0007F0
7F0007F0
7F0007E0
3F000FC0
1F800FC0
0F801F80
07C03F00
03F07C00
00FFF000
00070000
ENDCHAR
STARTCHAR 014D
ENCODING 333
SWIDTH 504 0
DWIDTH 21 0
BBX 17 27 2 -1
BITMAP
3FFE00
3FFE00
3FFE00
3FFE00
000000
000000
008000
0FF800
1E3C00
3C1E00
7C1F00
7C1F00
FC1F80
FC1F80
FC1F80
FC1F80
FC1F80
FC1F80
FC1F80
FC1F80
FC1F80
7C1F00
7C1F00
3C1E00
1E3C00
0FF800
008000
ENDCHAR
STARTCHAR 014E
ENCODING 334
SWIDTH 768 0
DWIDTH 32 0
BBX 29 38 2 -1
BITMAP
00C01000
00C03000
0070F000
007FE000
003FE000
001FC000
00060000
00000000
00000000
003FE000
01F8FC00
07E03E00
0FC01F00
1F800F80
3F000FC0
3F0007E0
7F0007F0
7F0007F0
FE0007F0
FE0007F8
FE0003F8
FE0003F8
FE0003F8
FE0003F8
FE0003F8
FE0003F8
FE0007F8
FE0007F0
7E0007F0
7F0007F0
7F0007E0
3F000FC0
1F800FC0
0F801F80
07C03F00
03F07C00
00FFF000
00070000
ENDCHAR
STARTCHAR 014F
ENCODING 335
SWIDTH 504 0
DWIDTH 21 0
BBX 17 29 2 -1
BITMAP
300600
180C00
1FFC00
1FF800
0FF800
03E000
000000
000000
008000
0FF800
1E3C00
3C1E00
7C1F00
7C1F00
FC1F80
FC1F80
FC1F80
FC1F80
FC1F80
FC1F80
FC1F80
FC1F80
FC1F80
7C1F00
7C1F00
3C1E00
1E3C00
0FF800
008000
ENDCHAR
STARTCHAR 0150
ENCODING 336
SWIDTH 768 0
DWIDTH 32 0
BBX 29 38 2 -1
BITMAP
000F3C00
001E3C00
001C3800
001C7000
00387000
00306000
0030C000
00000000
00000000
003FE000
01F8FC00
07E03E00
0FC01F00
1F800F80
3F000FC0
3F0007E0
7F0007F0
7F0007F0
FE0007F0
FE0007F8
FE0003F8
FE0003F8
FE0003F8
FE0003F8
FE0003F8
FE0003F8
FE0007F8
FE0007F0
7E0007F0
7F0007F0
7F0007E0
3F000FC0
1F800FC0
0F801F80
07C03F00
03F07C00
00FFF000
00070000
ENDCHAR
STARTCHAR 0151
ENCODING 337
SWIDTH 504 0
DWIDTH 21 0
BBX 17 30 2 -1
BITMAP
03C780
03CF00
078E00
070E00
061C00
0E1800
0C1800
083000
000000
008000
0FF800
1E3C00
3C1E00
7C1F00
7C1F00
FC1F80
FC1F80
FC1F80
FC1F80
FC1F80
FC1F80
FC1F80
FC1F80
FC1F80
7C1F00
7C1F00
3C1E00
1E3C00
0FF800
008000
ENDCHAR
STARTCHAR 0152
ENCODING 338
SWIDTH 1008 0
DWIDTH 42 0
BBX 38 28 2 0
BITMAP
007FFFFFF0
01FFFFFFF0
07E0FF03F0
0FC07F00F0
1F807F0070
3F007F0030
3F007F0030
7F007F0410
7E007F0410
FE007F0400
FE007F0400
FE007F0C00
FE007F1C00
FE007FFC00
FE007FFC00
FE007F1C00
FE007F0C00
FE007F0C00
FE007F0400
FE007F0404
7E007F0404
7F007F0008
3F007F0008
1F007F0018
0F807F0038
07C07F00F8
03F0FFFFF8
00FFFFFFF8
ENDCHAR
STARTCHAR 0153
ENCODING 339
SWIDTH 720 0
DWIDTH 30 0
BBX 28 21 1 -1
BITMAP
00600C00
07FC7F00
0F1EE3C0
1E0FE1C0
3E0FC1E0
3E0FC1E0
7E0FC1F0
7E07C1F0
7C07C1F0
FC07FFF0
FC07C000
FC07C000
7C07C000
7C0FE000
7E0FE000
7E0FF010
3E0FF820
1E0FFFC0
0F1EFF80
07F87F00
00401800
ENDCHAR
STARTCHAR 0154
ENCODING 340
SWIDTH 720 0
DWIDTH 30 0
BBX 29 37 1 0
BITMAP
0003F000
0007E000
0007C000
00078000
000F0000
000E0000
000C0000
00000000
00000000
FFFE0000
3FFFF800
1FC0FE00
0FC07F00
0FC03F00
0FC03F80
0FC03F80
0FC03F80
0FC03F80
0FC03F80
0FC03F80
0FC03F00
0FC07F00
0FC1FC00
0FFFF000
0FCFE000
0FC7F000
0FC7F800
0FC3FC00
0FC1FC00
0FC1FE00
0FC0FF00
0FC07F00
0FC03F80
0FC03FC0
1FC01FE0
1FE00FE0
FFFC0FF8
ENDCHAR
STARTCHAR 0155
ENCODING 341
SWIDTH 456 0
DWIDTH 19 0
BBX 16 29 2 0
BITMAP
01F8
01F0
01E0
03C0
03C0
0380
0700
0600
0000
0004
FE3F
7E7F
3E7F
3EDF
3F8E
3F00
3F00
3F00
3E00
3E00
3E00
3E00
3E00
3E00
3E00
3E00
3E00
7F00
FFC0
ENDCHAR
STARTCHAR 0156
ENCODING 342
SWIDTH 720 0
DWIDTH 30 0
BBX 29 36 1 -8
BITMAP
FFFE0000
3FFFF800
1FC0FE00
0FC07F00
0FC03F00
0FC03F80
0FC03F80
0FC03F80
0FC03F80
0FC03F80
0FC03F80
0FC03F00
0FC07F00
0FC1FC00
0FFFF000
0FCFE000
0FC7F000
0FC7F800
0FC3FC00
0FC1FC00
0FC1FE00
0FC0FF00
0FC07F00
0FC03F80
0FC03FC0
1FC01FE0
1FE00FE0
FFFC0FF8
00000000
000F0000
000F8000
00078000
00038000
00038000
00070000
003C0000
ENDCHAR
STARTCHAR 0157
ENCODING 343
SWIDTH 456 0
DWIDTH 19 0
BBX 16 28 2 -8
BITMAP
0004
FE3F
7E7F
3E7F
3EDF
3F8E
3F00
3F00
3F00
3E00
3E00
3E00
3E00
3E00
3E00
3E00
3E00
3E00
7F00
FFC0
0000
0780
07C0
03C0
01C0
01C0
0780
1E00
ENDCHAR
STARTCHAR 0158
ENCODING 344
SWIDTH 720 0
DWIDTH 30 0
BBX 29 37 1 0
BITMAP
00C03000
00E07000
0070E000
0039E000
003FC000
001FC000
001F8000
000F0000
00000000
FFFE0000
3FFFF800
1FC0FE00
0FC07F00
0FC03F00
0FC03F80
0FC03F80
0FC03F80
0FC03F80
0FC03F80
0FC03F80
0FC03F00
0FC07F00
0FC1FC00
0FFFF000
0FCFE000
0FC7F000
0FC7F800
0FC3FC00
0FC1FC00
0FC1FE00
0FC0FF00
0FC07F00
0FC03F80
0FC03FC0
1FC01FE0
1FE00FE0
FFFC0FF8
ENDCHAR
STARTCHAR 0159
ENCODING 345
SWIDTH 456 0
DWIDTH 19 0
BBX 16 29 2 0
BITMAP
600C
3818
3C38
1EF0
0FF0
0FE0
07E0
07C0
0000
0004
FE3F
7E7F
3E7F
3EDF
3F8E
3F00
3F00
3F00
3E00
3E00
3E00
3E00
3E00
3E00
3E00
3E00
3E00
7F00
FFC0
ENDCHAR
STARTCHAR 015A
ENCODING 346
SWIDTH 552 0
DWIDTH 23 0
BBX 20 38 2 -1
BITMAP
007E00
007C00
007800
00F000
00E000
00C000
018000
000000
000000
07F840
1F1EC0
3C07C0
7803C0
7801C0
7800C0
F800C0
FC0040
FE0040
FF8000
7FE000
7FF800
3FFC00
1FFF00
0FFF80
03FFC0
01FFE0
007FE0
801FE0
8007E0
C003F0
C003E0
E001E0
E001E0
F001C0
F80380
FE0700
C7FE00
807000
ENDCHAR
STARTCHAR 015B
ENCODING 347
SWIDTH 384 0
DWIDTH 16 0
BBX 13 30 2 -1
BITMAP
03F0
07E0
07C0
0780
0F00
0E00
0C00
1800
0000
0400
3FE0
70F0
F070
F030
F830
FC10
FF00
FF80
7FC0
3FE0
1FF0
0FF0
03F8
81F8
80F8
C0F0
E0F0
F0E0
FFC0
8200
ENDCHAR
STARTCHAR 015C
ENCODING 348
SWIDTH 552 0
DWIDTH 23 0
BBX 20 39 2 -1
BITMAP
01F000
01F800
03F800
07FC00
079C00
0E0E00
0C0600
180300
000000
000000
07F840
1F1EC0
3C07C0
7803C0
7801C0
7800C0
F800C0
FC0040
FE0040
FF8000
7FE000
7FF800
3FFC00
1FFF00
0FFF80
03FFC0
01FFE0
007FE0
801FE0
8007E0
C003F0
C003E0
E001E0
E001E0
F001C0
F80380
FE0700
C7FE00
807000
ENDCHAR
STARTCHAR 015D
ENCODING 349
SWIDTH 384 0
DWIDTH 16 0
BBX 13 30 2 -1
BITMAP
0F80
1F80
3FC0
3FC0
79E0
70E0
E030
8018
0000
0400
3FE0
70F0
F070
F030
F830
FC10
FF00
FF80
7FC0
3FE0
1FF0
0FF0
03F8
81F8
80F8
C0F0
E0F0
F0E0
FFC0
8200
ENDCHAR
STARTCHAR 015E
ENCODING 350
SWIDTH 552 0
DWIDTH 23 0
BBX 20 36 2 -8
BITMAP
07F840
1F1EC0
3C07C0
7803C0
7801C0
7800C0
F800C0
FC0040
FE0040
FF8000
7FE000
7FF800
3FFC00
1FFF00
0FFF80
03FFC0
01FFE0
007FE0
801FE0
8007E0
C003F0
C003E0
E001E0
E001E0
F001C0
F80380
FE0700
C7FE00
807000
006000
00F000
00F800
007800
007000
00F000
03C000
ENDCHAR
STARTCHAR 015F
ENCODING 351
SWIDTH 384 0
DWIDTH 16 0
BBX 13 28 2 -8
BITMAP
0400
3FE0
70F0
F070
F030
F830
FC10
FF00
FF80
7FC0
3FE0
1FF0
0FF0
03F8
81F8
80F8
C0F0
E0F0
F0E0
FFC0
8600
0600
0F00
0780
0780
0780
0F00
3C00
ENDCHAR
STARTCHAR 0160
ENCODING 352
SWIDTH 552 0
DWIDTH 23 0
BBX 20 38 2 -1
BITMAP
180300
0C0E00
0F1E00
07BC00
07F800
03F800
03F000
01F000
000000
07F840
1F1EC0
3C07C0
7803C0
7801C0
7800C0
F800C0
FC0040
FE0040
FF8000
7FE000
7FF800
3FFC00
1FFF00
0FFF80
03FFC0
01FFE0
007FE0
801FE0
8007E0
C003F0
C003E0
E001E0
E001E0
F001C0
F80380
FE0700
C7FE00
807000
ENDCHAR
STARTCHAR 0161
ENCODING 353
SWIDTH 384 0
DWIDTH 16 0
BBX 13 30 2 -1
BITMAP
C030
E070
70E0
79E0
3FC0
3F80
1F80
1F00
0000
0400
3FE0
70F0
F070
F030
F830
FC10
FF00
FF80
7FC0
3FE0
1FF0
0FF0
03F8
81F8
80F8
C0F0
E0F0
F0E0
FFC0
8200
ENDCHAR
STARTCHAR 0162
ENCODING 354
SWIDTH 672 0
DWIDTH 28 0
BBX 24 38 2 -10
BITMAP
FFFFFF
FFFFFF
F07E0F
C07E03
807E03
807E01
807E01
007E01
007E00
007E00
007E00
007E00
007E00
007E00
007E00
007E00
007E00
007E00
007E00
007E00
007E00
007E00
007E00
007E00
007E00
00FE00
00FF00
07FFE0
000000
000000
003800
007C00
007C00
003C00
000400
000C00
001800
006000
ENDCHAR
STARTCHAR 0163
ENCODING 355
SWIDTH 336 0
DWIDTH 14 0
BBX 12 36 1 -10
BITMAP
0100
0300
0300
0700
0F00
1F00
3F00
7FF0
FFF0
3F00
3F00
3F00
3F00
3F00
3F00
3F00
3F00
3F00
3F00
3F00
3F00
3F00
3F10
1F90
1FE0
0FC0
0000
0000
0F00
0F80
0F80
0780
0180
0100
0300
0C00
ENDCHAR
STARTCHAR 0164
ENCODING 356
SWIDTH 672 0
DWIDTH 28 0
BBX 24 37 2 0
BITMAP
0300C0
0381C0
01C380
01EF00
00FF00
00FE00
007E00
007C00
000000
FFFFFF
FFFFFF
F07E0F
C07E03
807E03
807E01
807E01
007E01
007E00
007E00
007E00
007E00
007E00
007E00
007E00
007E00
007E00
007E00
007E00
007E00
007E00
007E00
007E00
007E00
007E00
00FE00
00FF00
07FFE0
ENDCHAR
STARTCHAR 0165
ENCODING 357
SWIDTH 528 0
DWIDTH 22 0
BBX 20 28 1 0
BITMAP
0003C0
0007E0
0107F0
0307F0
0307F0
0703F0
0F0030
1F0030
3F0060
7FF060
FFF0C0
3F0180
3F0600
3F0000
3F0000
3F0000
3F0000
3F0000
3F0000
3F0000
3F0000
3F0000
3F0000
3F0000
3F1000
1F9000
1FE000
0FC000
ENDCHAR
STARTCHAR 0166
ENCODING 358
SWIDTH 672 0
DWIDTH 28 0
BBX 24 28 2 0
BITMAP
FFFFFF
FFFFFF
F07E0F
C07E03
807E03
807E01
807E01
007E01
007E00
007E00
007E00
007E00
007E00
3FFFF8
007E00
007E00
007E00
007E00
007E00
007E00
007E00
007E00
007E00
007E00
007E00
00FE00
00FF00
07FFE0
ENDCHAR
STARTCHAR 0167
ENCODING 359
SWIDTH 336 0
DWIDTH 14 0
BBX 12 26 1 0
BITMAP
0100
0300
0300
0700
0F00
1F00
3F00
7FF0
FFF0
3F00
3F00
3F00
3F00
3F00
FFF0
3F00
3F00
3F00
3F00
3F00
3F00
3F00
3F10
1F90
1FE0
0FC0
ENDCHAR
STARTCHAR 0168
ENCODING 360
SWIDTH 720 0
DWIDTH 30 0
BBX 28 37 1 -1
BITMAP
003C0800
007F9800
00FFF800
00FFF000
0087F000
0081C000
00000000
00000000
FFFC1FF0
3FE007C0
1FC00380
1FC00180
0FC00180
0FC00180
0FC00180
0FC00180
0FC00180
0FC00180
0FC00180
0FC00180
0FC00180
0FC00180
0FC00180
0FC00180
0FC00180
0FC00180
0FC00100
0FC00100
0FC00100
0FC00300
0FC00300
0FE00300
07E00600
07F00C00
03FE7800
00FFF000
000E0000
ENDCHAR
STARTCHAR 0169
ENCODING 361
SWIDTH 552 0
DWIDTH 23 0
BBX 21 29 1 -1
BITMAP
01C080
07F980
07FF80
0FFF80
0C7F00
081C00
000000
000000
000000
FF1FE0
3F07E0
3F07E0
3F07E0
3F07E0
3F07E0
3F07E0
3F07E0
3F07E0
3F07E0
3F07E0
3F07E0
3F07E0
3F07E0
3F07E0
1F0FE0
1F9FE0
1FF7E0
0FE7F8
010000
ENDCHAR
STARTCHAR 016A
ENCODING 362
SWIDTH 720 0
DWIDTH 30 0
BBX 28 35 1 -1
BITMAP
01FFF000
01FFF000
01FFF000
00000000
00000000
00000000
FFFC1FF0
3FE007C0
1FC00380
1FC00180
0FC00180
0FC00180
0FC00180
0FC00180
0FC00180
0FC00180
0FC00180
0FC00180
0FC00180
0FC00180
0FC00180
0FC00180
0FC00180
0FC00180
0FC00100
0FC00100
0FC00100
0FC00300
0FC00300
0FE00300
07E00600
07F00C00
03FE7800
00FFF000
000E0000
ENDCHAR
STARTCHAR 016B
ENCODING 363
SWIDTH 552 0
DWIDTH 23 0
BBX 21 27 1 -1
BITMAP
0FFF80
0FFF80
0FFF80
0FFF80
000000
000000
000000
FF1FE0
3F07E0
3F07E0
3F07E0
3F07E0
3F07E0
3F07E0
3F07E0
3F07E0
3F07E0
3F07E0
3F07E0
3F07E0
3F07E0
3F07E0
1F0FE0
1F9FE0
1FF7E0
0FE7F8
010000
ENDCHAR
STARTCHAR 016C
ENCODING 364
SWIDTH 720 0
DWIDTH 30 0
BBX 28 38 1 -1
BITMAP
00801000
00C03000
00F0F000
007FE000
003FE000
001FC000
00060000
00000000
00000000
FFFC1FF0
3FE007C0
1FC00380
1FC00180
0FC00180
0FC00180
0FC00180
0FC00180
0FC00180
0FC00180
0FC00180
0FC00180
0FC00180
0FC00180
0FC00180
0FC00180
0FC00180
0FC00180
0FC00100
0FC00100
0FC00100
0FC00300
0FC00300
0FE00300
07E00600
07F00C00
03FE7800
00FFF000
000E0000
ENDCHAR
STARTCHAR 016D
ENCODING 365
SWIDTH 552 0
DWIDTH 23 0
BBX 21 29 1 -1
BITMAP
040180
060300
07FF00
03FF00
03FE00
00F800
000000
000000
000000
FF1FE0
3F07E0
3F07E0
3F07E0
3F07E0
3F07E0
3F07E0
3F07E0
3F07E0
3F07E0
3F07E0
3F07E0
3F07E0
3F07E0
3F07E0
1F0FE0
1F9FE0
1FF7E0
0FE7F8
010000
ENDCHAR
STARTCHAR 016E
ENCODING 366
SWIDTH 720 0
DWIDTH 30 0
BBX 28 39 1 -1
BITMAP
00070000
001FC000
0018C000
00306000
00306000
00306000
0018C000
000F8000
00070000
00000000
FFFC1FF0
3FE007C0
1FC00380
1FC00180
0FC00180
0FC00180
0FC00180
0FC00180
0FC00180
0FC00180
0FC00180
0FC00180
0FC00180
0FC00180
0FC00180
0FC00180
0FC00180
0FC00180
0FC00100
0FC00100
0FC00100
0FC00300
0FC00300
0FE00300
07E00600
07F00C00
03FE7800
00FFF000
000E0000
ENDCHAR
STARTCHAR 016F
ENCODING 367
SWIDTH 552 0
DWIDTH 23 0
BBX 21 30 1 -1
BITMAP
00F800
01DC00
010600
030600
030600
010600
01CC00
00F800
000000
000000
FF1FE0
3F07E0
3F07E0
3F07E0
3F07E0
3F07E0
3F07E0
3F07E0
3F07E0
3F07E0
3F07E0
3F07E0
3F07E0
3F07E0
3F07E0
1F0FE0
1F9FE0
1FF7E0
0FE7F8
010000
ENDCHAR
STARTCHAR 0170
ENCODING 368
SWIDTH 720 0
DWIDTH 30 0
BBX 28 38 1 -1
BITMAP
001E3C00
001E7800
001C7000
00387000
0030E000
0030C000
0060C000
00000000
00000000
FFFC1FF0
3FE007C0
1FC00380
1FC00180
0FC00180
0FC00180
0FC00180
0FC00180
0FC00180
0FC00180
0FC00180
0FC00180
0FC00180
0FC00180
0FC00180
0FC00180
0FC00180
0FC00180
0FC00100
0FC00100
0FC00100
0FC00300
0FC00300
0FE00300
07E00600
07F00C00
03FE7800
00FFF000
000E0000
ENDCHAR
STARTCHAR 0171
ENCODING 369
SWIDTH 552 0
DWIDTH 23 0
BBX 21 30 1 -1
BITMAP
00F1E0
00F3C0
00E3C0
01C380
01C700
018600
030600
030C00
000000
000000
FF1FE0
3F07E0
3F07E0
3F07E0
3F07E0
3F07E0
3F07E0
3F07E0
3F07E0
3F07E0
3F07E0
3F07E0
3F07E0
3F07E0
3F07E0
1F0FE0
1F9FE0
1FF7E0
0FE7F8
010000
ENDCHAR
STARTCHAR 0172
ENCODING 370
SWIDTH 720 0
DWIDTH 30 0
BBX 28 37 1 -9
BITMAP
FFFC1FF0
3FF007C0
1FC00380
0FC00180
0FC00180
0FC00180
0FC00180
0FC00180
0FC00180
0FC00180
0FC00180
0FC00180
0FC00180
0FC00180
0FC00180
0FC00180
0FC00180
0FC00180
0FC00180
0FC00100
0FC00100
0FC00300
0FC00300
0FE00300
07E00600
07F00C00
03FEF800
00FFF000
000F0000
00070000
000E0000
000F0000
000F0000
000F8000
000FC000
0007F800
0003F800
ENDCHAR
STARTCHAR 0173
ENCODING 371
SWIDTH 552 0
DWIDTH 23 0
BBX 21 28 1 -9
BITMAP
FF1FE0
3F07E0
3F07E0
3F07E0
3F07E0
3F07E0
3F07E0
3F07E0
3F07E0
3F07E0
3F07E0
3F07E0
3F07E0
3F07E0
1F07E0
1F0FE0
1F9FE0
1FF7E0
0FE7F8
010700
000E00
000E00
001E00
001E00
001F00
000F80
000FF8
0003F0
ENDCHAR
STARTCHAR 0174
ENCODING 372
SWIDTH 1008 0
DWIDTH 42 0
BBX 41 39 0 -1
BITMAP
00003F000000
00003F000000
00007F800000
00007F800000
0000F3C00000
0000E1C00000
000180E00000
000300600000
000000000000
000000000000
FFF1FFF03F80
3FE07FC00F00
1FC03F800600
1FC01FC00600
1FC01FC00400
0FE01FC00C00
0FE00FE00C00
07F00FE00800
07F007E01800
07F00FF01000
03F80FF03000
03F80BF83000
01FC1BF82000
01FC11F86000
00FC31FC6000
00FE31FC4000
00FE60FEC000
007F60FE8000
007F40FF8000
003FC07F8000
003F807F0000
003F803F0000
001F803E0000
001F003E0000
000F001E0000
000E001C0000
000E000C0000
0004000C0000
000400080000
ENDCHAR
STARTCHAR 0175
ENCODING 373
SWIDTH 720 0
DWIDTH 30 0
BBX 30 30 0 -1
BITMAP
0007C000
000FC000
001FE000
001FE000
003CF000
00387000
00701800
00400800
00000000
00000000
FFCFF8FC
3F07F030
3F03F030
1F83F020
1F83F860
0FC3F840
0FC7F840
0FC4FCC0
07E4FC80
07ECFC80
03E87F80
03F87F00
03F83F00
01F03F00
01F03E00
01E01E00
00E01E00
00E01C00
00C00C00
00400800
ENDCHAR
STARTCHAR 0176
ENCODING 374
SWIDTH 720 0
DWIDTH 30 0
BBX 30 38 0 0
BITMAP
0007C000
0007E000
000FE000
000FF000
001E7800
003C3800
00301C00
00600C00
00000000
00000000
FFFC07FC
3FE001F0
1FE000E0
0FE000C0
0FF000C0
07F00180
03F80100
03F80300
01FC0600
01FC0600
00FE0C00
00FF0800
007F1800
007FB000
003FB000
003FE000
001FC000
000FC000
000FC000
000FC000
000FC000
000FC000
000FC000
000FC000
000FC000
000FC000
001FE000
01FFFE00
ENDCHAR
STARTCHAR 0177
ENCODING 375
SWIDTH 504 0
DWIDTH 21 0
BBX 20 38 0 -9
BITMAP
00F800
01FC00
01FC00
03FE00
038E00
070700
060300
0C0180
000000
000000
FFC3F0
3F80E0
3F80C0
1F80C0
1F8080
0FC080
0FC180
07E100
07E300
03F200
03F200
01FE00
01FC00
01FC00
00FC00
00F800
007800
007000
003000
003000
002000
002000
384000
7C4000
7CC000
7D8000
3F0000
1E0000
ENDCHAR
STARTCHAR 0178
ENCODING 376
SWIDTH 720 0
DWIDTH 30 0
BBX 30 36 0 0
BITMAP
00181800
003C3C00
003E7C00
003E7C00
003C3C00
00181800
00000000
00000000
FFFC07FC
3FE001F0
1FE000E0
0FE000C0
0FF000C0
07F00180
03F80100
03F80300
01FC0600
01FC0600
00FE0C00
00FF0800
007F1800
007FB000
003FB000
003FE000
001FC000
000FC000
000FC000
000FC000
000FC000
000FC000
000FC000
000FC000
000FC000
000FC000
001FE000
01FFFE00
ENDCHAR
STARTCHAR 0179
ENCODING 377
SWIDTH 672 0
DWIDTH 28 0
BBX 26 37 1 0
BITMAP
0007E000
0007C000
00078000
000F0000
000E0000
000C0000
00180000
00000000
00000000
1FFFFF00
1FFFFF00
3E00FE00
3801FE00
3003FC00
3003F800
2007F800
200FF000
000FE000
001FE000
001FC000
003FC000
007F8000
007F0000
00FF0000
01FE0000
01FC0000
03FC0000
03F80040
07F80040
0FF00040
0FE000C0
1FE000C0
3FC00180
3F800380
7F800F80
7FFFFF80
FFFFFF80
ENDCHAR
STARTCHAR 017A
ENCODING 378
SWIDTH 456 0
DWIDTH 19 0
BBX 18 29 0 0
BITMAP
003F00
007E00
007C00
007800
00F000
00E000
00C000
018000
000000
000000
3FFFC0
3C1F80
303F80
207F00
207E00
20FE00
00FC00
01FC00
03F800
03F000
07F000
07E000
0FE040
1FC080
1F8080
3F8080
3F0180
7F1F80
FFFF80
ENDCHAR
STARTCHAR 017B
ENCODING 379
SWIDTH 672 0
DWIDTH 28 0
BBX 26 36 1 0
BITMAP
000E0000
001F0000
001F0000
003F0000
001F0000
001E0000
00000000
00000000
1FFFFF00
1FFFFF00
3E00FE00
3801FE00
3003FC00
3003F800
2007F800
200FF000
000FE000
001FE000
001FC000
003FC000
007F8000
007F0000
00FF0000
01FE0000
01FC0000
03FC0000
03F80040
07F80040
0FF00040
0FE000C0
1FE000C0
3FC00180
3F800380
7F800F80
7FFFFF80
FFFFFF80
ENDCHAR
STARTCHAR 017C
ENCODING 380
SWIDTH 456 0
DWIDTH 19 0
BBX 18 28 0 0
BITMAP
007000
00F800
01F800
01F800
01F800
00F000
000000
000000
000000
3FFFC0
3C1F80
303F80
207F00
207E00
20FE00
00FC00
01FC00
03F800
03F000
07F000
07E000
0FE040
1FC080
1F8080
3F8080
3F0180
7F1F80
FFFF80
ENDCHAR
STARTCHAR 017D
ENCODING 381
SWIDTH 672 0
DWIDTH 28 0
BBX 26 37 1 0
BITMAP
01806000
01C0E000
00E1C000
00F78000
007F8000
007F0000
003F0000
003E0000
00000000
1FFFFF00
1FFFFF00
3E00FE00
3801FE00
3003FC00
3003F800
2007F800
200FF000
000FE000
001FE000
001FC000
003FC000
007F8000
007F0000
00FF0000
01FE0000
01FC0000
03FC0000
03F80040
07F80040
0FF00040
0FE000C0
1FE000C0
3FC00180
3F800380
7F800F80
7FFFFF80
FFFFFF80
ENDCHAR
STARTCHAR 017E
ENCODING 382
SWIDTH 456 0
DWIDTH 19 0
BBX 18 29 0 0
BITMAP
0C0300
0E0700
070E00
079E00
03FC00
03F800
01F800
01F000
000000
000000
3FFFC0
3C1F80
303F80
207F00
207E00
20FE00
00FC00
01FC00
03F800
03F000
07F000
07E000
0FE040
1FC080
1F8080
3F8080
3F0180
7F1F80
FFFF80
ENDCHAR
STARTCHAR 017F
ENCODING 383
SWIDTH 288 0
DWIDTH 12 0
BBX 16 28 0 0
BITMAP
01FC
079E
0F9F
0F9F
1F9E
1F80
1F80
1F80
1F80
1F80
1F80
1F80
1F80
1F80
1F80
1F80
1F80
1F80
1F80
1F80
1F80
1F80
1F80
1F80
1F80
1F80
1F80
FFE0
ENDCHAR
STARTCHAR 018F
ENCODING 399
SWIDTH 744 0
DWIDTH 31 0
BBX 27 29 2 -1
BITMAP
107FC000
1BFFF800
1F00FC00
1C007E00
1C003F00
18003F80
10001F80
10001FC0
10001FC0
00000FE0
00000FE0
00000FE0
00000FE0
FFFFFFE0
FFFFFFE0
FE000FE0
FE000FE0
FE000FE0
FE000FE0
FE000FC0
7E000FC0
7E001FC0
3F001F80
3F001F00
1F003E00
0F807C00
07E0F800
01FFE000
001E0000
ENDCHAR
STARTCHAR 0192
ENCODING 402
SWIDTH 504 0
DWIDTH 21 0
BBX 21 37 0 -9
BITMAP
0001F0
000778
000678
000E78
000E30
001E00
001E00
003E00
003E00
01FE00
03FFC0
03FFC0
007C00
00FC00
00FC00
00FC00
00FC00
00F800
01F800
01F800
01F800
01F800
01F000
03F000
03F000
03F000
03E000
03E000
03E000
03E000
03C000
03C000
038000
F38000
F30000
F60000
780000
ENDCHAR
STARTCHAR 01A0
ENCODING 416
SWIDTH 768 0
DWIDTH 32 0
BBX 31 32 2 -1
BITMAP
00000008
0000003C
0000003E
003FC03E
01F8F81E
03E03E1C
0FC01FF0
1F800F80
3F000FC0
3F0007E0
7F0007F0
7E0007F0
FE0007F0
FE0007F8
FE0003F8
FE0003F8
FE0003F8
FE0003F8
FE0003F8
FE0003F8
FE0007F8
FE0007F0
7E0007F0
7F0007F0
7F0007E0
3F000FC0
1F800FC0
0F801F80
07C03F00
03F07C00
00FFF000
00070000
ENDCHAR
STARTCHAR 01A1
ENCODING 417
SWIDTH 552 0
DWIDTH 23 0
BBX 22 22 2 -1
BITMAP
000038
00807C
0FF87C
1E3C3C
3C1E1C
7C1FF8
7C1F00
FC1F80
FC1F80
FC1F80
FC1F80
FC1F80
FC1F80
FC1F80
FC1F80
FC1F80
7C1F00
7C1F00
3C1E00
1E3C00
0FF800
008000
ENDCHAR
STARTCHAR 01AF
ENCODING 431
SWIDTH 792 0
DWIDTH 33 0
BBX 34 34 1 -1
BITMAP
0000000380
00000007C0
00000007C0
00000003C0
0000000180
FFFC1FFF00
3FE007C000
1FC0038000
1FC0018000
0FC0018000
0FC0018000
0FC0018000
0FC0018000
0FC0018000
0FC0018000
0FC0018000
0FC0018000
0FC0018000
0FC0018000
0FC0018000
0FC0018000
0FC0018000
0FC0018000
0FC0010000
0FC0010000
0FC0010000
0FC0030000
0FC0030000
0FE0030000
07E0060000
07F00C0000
03FE780000
00FFF00000
000E000000
ENDCHAR
STARTCHAR 01B0
ENCODING 432
SWIDTH 600 0
DWIDTH 25 0
BBX 25 21 1 -1
BITMAP
00000200
FF1FEF00
3F07EF80
3F07EF80
3F07E780
3F07E700
3F07FC00
3F07E000
3F07E000
3F07E000
3F07E000
3F07E000
3F07E000
3F07E000
3F07E000
3F07E000
1F0FE000
1F9FE000
1FF7E000
0FE7F800
01000000
ENDCHAR
STARTCHAR 01CD
ENCODING 461
SWIDTH 720 0
DWIDTH 30 0
BBX 30 37 0 0
BITMAP
00601800
00303800
003C7000
001EF000
001FE000
000FE000
000FC000
00000000
00000000
00010000
00030000
00038000
00078000
00078000
000FC000
000FC000
000FE000
001FE000
0017F000
0037F000
0023F800
0063F800
0063F800
00C1FC00
00C1FC00
0080FE00
0180FE00
01007F00
03FFFF00
02007F00
06003F80
06003F80
0C001FC0
0C001FC0
1C000FE0
3C001FF0
FFC0FFFC
ENDCHAR
STARTCHAR 01CE
ENCODING 462
SWIDTH 504 0
DWIDTH 21 0
BBX 18 29 2 0
BITMAP
300600
181C00
1C3C00
0E7800
0FF000
07F000
07E000
03E000
000000
00C000
0FF800
387C00
783E00
783E00
FC3F00
FC3F00
783F00
107F00
01FF00
073F00
1E3F00
3C3F00
7C3F00
F83F00
FC3F00
FC7F00
FFFF40
FF3F80
7E1F00
ENDCHAR
STARTCHAR 01CF
ENCODING 463
SWIDTH 384 0
DWIDTH 16 0
BBX 14 37 1 0
BITMAP
6018
3038
3870
1FF0
1FE0
0FC0
0FC0
0000
0000
FFFC
3FF0
1FE0
0FC0
0FC0
0FC0
0FC0
0FC0
0FC0
0FC0
0FC0
0FC0
0FC0
0FC0
0FC0
0FC0
0FC0
0FC0
0FC0
0FC0
0FC0
0FC0
0FC0
0FC0
0FC0
0FE0
1FE0
FFFC
ENDCHAR
STARTCHAR 01D0
ENCODING 464
SWIDTH 288 0
DWIDTH 12 0
BBX 12 29 0 0
BITMAP
C030
E070
70E0
79E0
3FC0
3F80
1F80
1F00
0000
0000
7F80
1F80
1F80
1F80
1F80
1F80
1F80
1F80
1F80
1F80
1F80
1F80
1F80
1F80
1F80
1F80
1F80
1F80
7FE0
ENDCHAR
STARTCHAR 01D1
ENCODING 465
SWIDTH 768 0
DWIDTH 32 0
BBX 29 38 2 -1
BITMAP
00C03000
00607000
0078E000
003DE000
003FC000
001F8000
001F8000
00000000
00000000
003FE000
01F8FC00
07E03E00
0FC01F00
1F800F80
3F000FC0
3F0007E0
7F0007F0
7F0007F0
FE0007F0
FE0007F8
FE0003F8
FE0003F8
FE0003F8
FE0003F8
FE0003F8
FE0003F8
FE0007F8
FE0007F0
7E0007F0
7F0007F0
7F0007E0
3F000FC0
1F800FC0
0F801F80
07C03F00
03F07C00
00FFF000
00070000
ENDCHAR
STARTCHAR 01D2
ENCODING 466
SWIDTH 504 0
DWIDTH 21 0
BBX 17 30 2 -1
BITMAP
300600
180C00
1C3C00
0F7800
0FF800
07F000
07E000
03E000
000000
008000
0FF800
1E3C00
3C1E00
7C1F00
7C1F00
FC1F80
FC1F80
FC1F80
FC1F80
FC1F80
FC1F80
FC1F80
FC1F80
FC1F80
7C1F00
7C1F00
3C1E00
1E3C00
0FF800
008000
ENDCHAR
STARTCHAR 01D3
ENCODING 467
SWIDTH 720 0
DWIDTH 30 0
BBX 28 38 1 -1
BITMAP
00601800
00707000
0038F000
003DE000
001FC000
001FC000
000F8000
00000000
00000000
FFFC1FF0
3FE007C0
1FC00380
1FC00180
0FC00180
0FC00180
0FC00180
0FC00180
0FC00180
0FC00180
0FC00180
0FC00180
0FC00180
0FC00180
0FC00180
0FC00180
0FC00180
0FC00180
0FC00100
0FC00100
0FC00100
0FC00300
0FC00300
0FE00300
07E00600
07F00C00
03FE7800
00FFF000
000E0000
ENDCHAR
STARTCHAR 01D4
ENCODING 468
SWIDTH 552 0
DWIDTH 23 0
BBX 21 30 1 -1
BITMAP
0C0180
060300
070F00
03DE00
03FC00
01FC00
01F800
00F800
000000
000000
FF1FE0
3F07E0
3F07E0
3F07E0
3F07E0
3F07E0
3F07E0
3F07E0
3F07E0
3F07E0
3F07E0
3F07E0
3F07E0
3F07E0
3F07E0
1F0FE0
1F9FE0
1FF7E0
0FE7F8
010000
ENDCHAR
STARTCHAR 01D5
ENCODING 469
SWIDTH 720 0
DWIDTH 30 0
BBX 28 38 1 -1
BITMAP
007FE000
007FE000
00000000
00000000
0030C000
0070E000
0070E000
00204000
00000000
FFFC1FF0
3FE007C0
1FC00380
1FC00180
0FC00180
0FC00180
0FC00180
0FC00180
0FC00180
0FC00180
0FC00180
0FC00180
0FC00180
0FC00180
0FC00180
0FC00180
0FC00180
0FC00180
0FC00100
0FC00100
0FC00100
0FC00300
0FC00300
0FE00300
07E00600
07F00C00
03FE7800
00FFF000
000E0000
ENDCHAR
STARTCHAR 01D6
ENCODING 470
SWIDTH 552 0
DWIDTH 23 0
BBX 21 33 1 -1
BITMAP
0FFF80
0FFF80
0FFF80
000000
000000
000000
078F00
0F8F80
0F8F80
0F8F80
070700
000000
000000
FF1FE0
3F07E0
3F07E0
3F07E0
3F07E0
3F07E0
3F07E0
3F07E0
3F07E0
3F07E0
3F07E0
3F07E0
3F07E0
3F07E0
3F07E0
1F0FE0
1F9FE0
1FF7E0
0FE7F8
010000
ENDCHAR
STARTCHAR 01D7
ENCODING 471
SWIDTH 720 0
DWIDTH 30 0
BBX 28 38 1 -1
BITMAP
00078000
00070000
00060000
00000000
0030C000
0070E000
0070E000
00204000
00000000
FFFC1FF0
3FE007C0
1FC00380
1FC00180
0FC00180
0FC00180
0FC00180
0FC00180
0FC00180
0FC00180
0FC00180
0FC00180
0FC00180
0FC00180
0FC00180
0FC00180
0FC00180
0FC00180
0FC00100
0FC00100
0FC00100
0FC00300
0FC00300
0FE00300
07E00600
07F00C00
03FE7800
00FFF000
000E0000
ENDCHAR
STARTCHAR 01D8
ENCODING 472
SWIDTH 552 0
DWIDTH 23 0
BBX 21 36 1 -1
BITMAP
001F80
001F00
003E00
003C00
003800
007000
006000
004000
000000
078F00
0F8F80
0F8F80
0F8F80
070700
000000
000000
FF1FE0
3F07E0
3F07E0
3F07E0
3F07E0
3F07E0
3F07E0
3F07E0
3F07E0
3F07E0
3F07E0
3F07E0
3F07E0
3F07E0
3F07E0
1F0FE0
1F9FE0
1FF7E0
0FE7F8
010000
ENDCHAR
STARTCHAR 01D9
ENCODING 473
SWIDTH 720 0
DWIDTH 30 0
BBX 28 38 1 -1
BITMAP
0030C000
001F8000
000F0000
00000000
0030C000
0070E000
0070E000
00204000
00000000
FFFC1FF0
3FE007C0
1FC00380
1FC00180
0FC00180
0FC00180
0FC00180
0FC00180
0FC00180
0FC00180
0FC00180
0FC00180
0FC00180
0FC00180
0FC00180
0FC00180
0FC00180
0FC00180
0FC00100
0FC00100
0FC00100
0FC00300
0FC00300
0FE00300
07E00600
07F00C00
03FE7800
00FFF000
000E0000
ENDCHAR
STARTCHAR 01DA
ENCODING 474
SWIDTH 552 0
DWIDTH 23 0
BBX 21 36 1 -1
BITMAP
060380
070700
038E00
03DE00
01FC00
01FC00
00F800
000000
000000
078F00
0F8F80
0F8F80
0F8F80
070700
000000
000000
FF1FE0
3F07E0
3F07E0
3F07E0
3F07E0
3F07E0
3F07E0
3F07E0
3F07E0
3F07E0
3F07E0
3F07E0
3F07E0
3F07E0
3F07E0
1F0FE0
1F9FE0
1FF7E0
0FE7F8
010000
ENDCHAR
STARTCHAR 01DB
ENCODING 475
SWIDTH 720 0
DWIDTH 30 0
BBX 28 38 1 -1
BITMAP
001E0000
000E0000
00060000
00000000
0030C000
0070E000
0070E000
00204000
00000000
FFFC1FF0
3FE007C0
1FC00380
1FC00180
0FC00180
0FC00180
0FC00180
0FC00180
0FC00180
0FC00180
0FC00180
0FC00180
0FC00180
0FC00180
0FC00180
0FC00180
0FC00180
0FC00180
0FC00100
0FC00100
0FC00100
0FC00300
0FC00300
0FE00300
07E00600
07F00C00
03FE7800
00FFF000
000E0000
ENDCHAR
STARTCHAR 01DC
ENCODING 476
SWIDTH 552 0
DWIDTH 23 0
BBX 21 36 1 -1
BITMAP
0FC000
07C000
03E000
01E000
00E000
007000
003000
001000
000000
078F00
0F8F80
0F8F80
0F8F80
070700
000000
000000
FF1FE0
3F07E0
3F07E0
3F07E0
3F07E0
3F07E0
3F07E0
3F07E0
3F07E0
3F07E0
3F07E0
3F07E0
3F07E0
3F07E0
3F07E0
1F0FE0
1F9FE0
1FF7E0
0FE7F8
010000
ENDCHAR
STARTCHAR 01FA
ENCODING 506
SWIDTH 720 0
DWIDTH 30 0
BBX 30 43 0 0
BITMAP
0001F800
0001F000
0003E000
0003C000
00038000
00070000
00060000
00000000
00078000
000FE000
00186000
00183000
00183000
00182000
000C6000
0007C000
00030000
00038000
00078000
00078000
000FC000
000FC000
000FE000
001FE000
0017F000
0037F000
0023F800
0063F800
0063F800
00C1FC00
00C1FC00
0080FE00
0180FE00
01007F00
03FFFF00
02007F00
06003F80
06003F80
0C001FC0
0C001FC0
1C000FE0
3C001FF0
FFC0FFFC
ENDCHAR
STARTCHAR 01FB
ENCODING 507
SWIDTH 504 0
DWIDTH 21 0
BBX 18 37 2 0
BITMAP
00FC00
00F800
01F000
01E000
01C000
038000
030000
000000
03E000
067000
0C1000
0C1800
0C1800
0C1000
067000
03E000
000000
00C000
0FF800
387C00
783E00
783E00
FC3F00
FC3F00
783F00
107F00
01FF00
073F00
1E3F00
3C3F00
7C3F00
F83F00
FC3F00
FC7F00
FFFF40
FF3F80
7E1F00
ENDCHAR
STARTCHAR 01FC
ENCODING 508
SWIDTH 1008 0
DWIDTH 42 0
BBX 40 37 0 0
BITMAP
000003F000
000003E000
000007C000
0000078000
0000070000
00000E0000
00000C0000
0000000000
0000000000
0007FFFFFC
0000FFFFFC
0000FFC07C
0000DFC01C
0000DFC01C
00019FC00C
00011FC00C
00031FC104
00061FC104
00061FC100
000C1FC100
00181FC300
00181FC700
00301FFF00
00201FFF00
007FFFC700
00C01FC300
00C01FC100
01801FC100
03001FC101
03001FC101
06001FC002
04001FC002
0C001FC006
18001FC00E
18001FC01E
7C001FF9FE
FF03FFFFFE
ENDCHAR
STARTCHAR 01FD
ENCODING 509
SWIDTH 720 0
DWIDTH 30 0
BBX 27 30 2 -1
BITMAP
0007E000
0007C000
000F8000
000F0000
000E0000
001C0000
00180000
00180000
00000000
00803000
0FF8FE00
387FC700
783F8780
783F03C0
FC3F03C0
FC3F03E0
7C3F03E0
303F03E0
01FFFFE0
03BF0000
0E1F0000
3C1F0000
7C1F8000
781F8000
FC1FC020
FC1FE0C0
FFFFFB80
FFC7FF00
7F83FE00
08002000
ENDCHAR
STARTCHAR 01FE
ENCODING 510
SWIDTH 768 0
DWIDTH 32 0
BBX 29 38 2 -2
BITMAP
0003F000
0003E000
0007C000
00078000
00070000
000E0000
000C0000
00000000
00000020
003FE060
01F9FCC0
03E03EC0
0FC01F80
1F800F80
3F000FC0
3F000FE0
7F001FE0
7F0037F0
FE0037F0
FE0067F8
FE00C7F8
FE0183F8
FE0303F8
FE0603F8
FE0C03F8
FE1C03F8
FE1807F8
FE3007F0
7E6007F0
7FC007F0
7F8007E0
3F000FC0
1F800FC0
0F801F80
0FC01F00
1BF07C00
30FFF000
600F0000
ENDCHAR
STARTCHAR 01FF
ENCODING 511
SWIDTH 504 0
DWIDTH 21 0
BBX 17 30 2 -1
BITMAP
00FE00
00FC00
00F800
01F000
01E000
01C000
038000
030000
000000
008080
0FF980
1E3F00
3C1E00
7C1F00
7C1F80
FC1F80
FC3F80
FC6F80
FCCF80
FD8F80
FD0F80
FE0F80
FE0F80
FC1F80
7C1F00
7C1F00
7C1E00
DE3C00
8FF800
008000
ENDCHAR
STARTCHAR 0218
ENCODING 536
SWIDTH 552 0
DWIDTH 23 0
BBX 20 38 2 -10
BITMAP
07F840
1F1EC0
3C07C0
7803C0
7801C0
7800C0
F800C0
FC0040
FE0040
FF8000
7FE000
7FF800
3FFC00
1FFF00
0FFF80
03FFC0
01FFE0
007FE0
801FE0
8007E0
C003F0
C003E0
E001E0
E001E0
F001C0
F80380
FE0700
C7FE00
807000
000000
01E000
01F000
01F000
01F000
003000
002000
006000
018000
ENDCHAR
STARTCHAR 0219
ENCODING 537
SWIDTH 384 0
DWIDTH 16 0
BBX 13 30 2 -10
BITMAP
0400
3FE0
70F0
F070
F030
F830
FC10
FF00
FF80
7FC0
3FE0
1FF0
0FF0
03F8
81F8
80F8
C0F0
E0F0
F0E0
FFC0
8200
0000
0F00
1F00
1F80
0F80
0100
0300
0600
0800
ENDCHAR
STARTCHAR 021A
ENCODING 538
SWIDTH 672 0
DWIDTH 28 0
BBX 24 38 2 -10
BITMAP
FFFFFF
FFFFFF
F07E0F
C07E03
807E03
807E01
807E01
007E01
007E00
007E00
007E00
007E00
007E00
007E00
007E00
007E00
007E00
007E00
007E00
007E00
007E00
007E00
007E00
007E00
007E00
00FE00
00FF00
07FFE0
000000
000000
003C00
007E00
007E00
003E00
000600
000400
000800
003000
ENDCHAR
STARTCHAR 021B
ENCODING 539
SWIDTH 336 0
DWIDTH 14 0
BBX 12 36 1 -10
BITMAP
0100
0300
0300
0700
0F00
1F00
3F00
7FF0
FFF0
3F00
3F00
3F00
3F00
3F00
3F00
3F00
3F00
3F00
3F00
3F00
3F00
3F00
3F10
1F90
1FE0
0FC0
0000
0000
0F00
0F80
0F80
0780
0180
0180
0300
0C00
ENDCHAR
STARTCHAR 0259
ENCODING 601
SWIDTH 456 0
DWIDTH 19 0
BBX 16 21 1 -1
BITMAP
0180
0FF0
1FF8
3FFC
60FE
407E
007F
003F
003F
003F
001F
FFFF
FFFF
F81F
781E
781E
7C3C
3C3C
1C78
0FE0
0100
ENDCHAR
STARTCHAR 02C6
ENCODING 710
SWIDTH 336 0
DWIDTH 14 0
BBX 13 8 0 21
BITMAP
0FC0
0FC0
1FE0
1FE0
3CF0
3870
6038
C008
ENDCHAR
STARTCHAR 02C7
ENCODING 711
SWIDTH 336 0
DWIDTH 14 0
BBX 12 8 1 21
BITMAP
C030
E070
70E0
79E0
3FC0
3F80
1F80
1F00
ENDCHAR
STARTCHAR 02C9
ENCODING 713
SWIDTH 336 0
DWIDTH 14 0
BBX 13 4 0 22
BITMAP
FFF8
FFF8
FFF8
FFF8
ENDCHAR
STARTCHAR 02D8
ENCODING 728
SWIDTH 336 0
DWIDTH 14 0
BBX 12 6 1 22
BITMAP
C030
C030
FFF0
7FE0
3FC0
1F80
ENDCHAR
STARTCHAR 02D9
ENCODING 729
SWIDTH 336 0
DWIDTH 14 0
BBX 6 6 4 22
BITMAP
30
F8
FC
FC
FC
78
ENDCHAR
STARTCHAR 02DA
ENCODING 730
SWIDTH 336 0
DWIDTH 14 0
BBX 8 8 3 21
BITMAP
3C
66
C3
81
81
C3
E6
7C
ENDCHAR
STARTCHAR 02DB
ENCODING 731
SWIDTH 336 0
DWIDTH 14 0
BBX 9 9 2 -9
BITMAP
3800
7000
7000
F000
F000
F800
7C00
7F80
1F80
ENDCHAR
STARTCHAR 02DC
ENCODING 732
SWIDTH 336 0
DWIDTH 14 0
BBX 14 6 0 22
BITMAP
1E0C
3F8C
7FF8
7FF8
47F0
C1E0
ENDCHAR
STARTCHAR 02DD
ENCODING 733
SWIDTH 336 0
DWIDTH 14 0
BBX 12 7 3 22
BITMAP
3CF0
78F0
71E0
71C0
E1C0
C380
C300
ENDCHAR
STARTCHAR 0300
ENCODING 768
SWIDTH 0 0
DWIDTH 0 0
BBX 7 7 -11 30
BITMAP
F8
7C
3C
1C
0E
06
06
ENDCHAR
STARTCHAR 0301
ENCODING 769
SWIDTH 0 0
DWIDTH 0 0
BBX 8 7 -8 30
BITMAP
3F
3E
7C
78
70
E0
C0
ENDCHAR
STARTCHAR 0303
ENCODING 771
SWIDTH 0 0
DWIDTH 0 0
BBX 14 6 -17 30
BITMAP
1E0C
3F8C
7FF8
7FF8
47F0
C1E0
ENDCHAR
STARTCHAR 0309
ENCODING 777
SWIDTH 0 0
DWIDTH 0 0
BBX 9 7 -10 30
BITMAP
7F00
E380
E380
0300
0600
0800
0800
ENDCHAR
STARTCHAR 0323
ENCODING 803
SWIDTH 0 0
DWIDTH 0 0
BBX 7 7 -21 -9
BITMAP
38
7C
FE
FE
FE
7C
38
ENDCHAR
STARTCHAR 037E
ENCODING 894
SWIDTH 336 0
DWIDTH 14 0
BBX 8 26 3 -6
BITMAP
7C
7E
7E
7E
7E
3C
00
00
00
00
00
00
00
7C
7E
FE
FF
FF
7F
07
06
06
0C
0C
10
60
ENDCHAR
STARTCHAR 0384
ENCODING 900
SWIDTH 336 0
DWIDTH 14 0
BBX 8 8 5 21
BITMAP
3F
3E
7C
78
70
E0
C0
80
ENDCHAR
STARTCHAR 0385
ENCODING 901
SWIDTH 336 0
DWIDTH 14 0
BBX 18 8 -2 21
BITMAP
00FC00
00F800
71F380
F9E7C0
F9C7C0
FB87C0
F303C0
020000
ENDCHAR
STARTCHAR 0386
ENCODING 902
SWIDTH 720 0
DWIDTH 30 0
BBX 30 29 0 0
BITMAP
03F00000
03E10000
03E30000
07C38000
07878000
07078000
0E0FC000
0C0FC000
000FE000
001FE000
0017F000
0037F000
0023F800
0063F800
0063F800
00C1FC00
00C1FC00
0080FE00
0180FE00
01007F00
03FFFF00
02007F00
06003F80
06003F80
0C001FC0
0C001FC0
1C000FE0
3C001FF0
FFC0FFFC
ENDCHAR
STARTCHAR 0387
ENCODING 903
SWIDTH 336 0
DWIDTH 14 0
BBX 6 7 4 13
BITMAP
20
F8
FC
FC
FC
FC
78
ENDCHAR
STARTCHAR 0388
ENCODING 904
SWIDTH 792 0
DWIDTH 33 0
BBX 34 29 -3 0
BITMAP
1F80000000
3F7FFFFF00
3E0FFFFF00
3C07F01F00
7807F00700
7007F00300
E007F00100
C007F00100
0007F02100
0007F04000
0007F06000
0007F06000
0007F0E000
0007F1E000
0007FFE000
0007FFE000
0007F1E000
0007F0E000
0007F06000
0007F06000
0007F06000
0007F02040
0007F00040
0007F000C0
0007F000C0
0007F001C0
0007F007C0
0007FFFF80
007FFFFF80
ENDCHAR
STARTCHAR 0389
ENCODING 905
SWIDTH 912 0
DWIDTH 38 0
BBX 40 29 -3 0
BITMAP
1F80000000
3F7FFF3FFF
3E0FF80FFC
3C07F007F0
7807F003F0
7007F003F0
E007F003F0
C007F003F0
0007F003F0
0007F003F0
0007F003F0
0007F003F0
0007F003F0
0007F003F0
0007FFFFF0
0007FFFFF0
0007F003F0
0007F003F0
0007F003F0
0007F003F0
0007F003F0
0007F003F0
0007F003F0
0007F003F0
0007F003F0
0007F003F0
0007F007F0
0007F807F8
007FFF3FFF
ENDCHAR
STARTCHAR 038A
ENCODING 906
SWIDTH 528 0
DWIDTH 22 0
BBX 24 29 -3 0
BITMAP
1F8000
3F7FFF
3E0FF8
3C07F0
7807F0
7007F0
E007F0
C007F0
0007F0
0007F0
0007F0
0007F0
0007F0
0007F0
0007F0
0007F0
0007F0
0007F0
0007F0
0007F0
0007F0
0007F0
0007F0
0007F0
0007F0
0007F0
0007F0
0007F8
007FFF
ENDCHAR
STARTCHAR 038C
ENCODING 908
SWIDTH 768 0
DWIDTH 32 0
BBX 33 30 -2 -1
BITMAP
3F00000000
3E03FE0000
7C1F8FC000
787E03E000
70FC01F000
E1F800F800
C3F000FC00
83F0007E00
07F0007E00
07E0007F00
0FE0007F00
0FE0007F00
0FE0007F80
0FE0007F80
0FE0003F80
0FE0003F80
0FE0003F80
0FE0007F80
0FE0007F80
0FE0007F00
0FE0007F00
07F0007F00
07F0007E00
03F000FC00
01F800FC00
00F801F800
007C03F000
003F07C000
000FFF0000
0000F00000
ENDCHAR
STARTCHAR 038E
ENCODING 910
SWIDTH 864 0
DWIDTH 36 0
BBX 39 29 -3 0
BITMAP
1F80000000
3F7FFE03FE
3E1FF000F8
3C0FF00070
7807F00060
7007F80060
E003F800C0
C003FC0080
0001FC0180
0000FE0300
0000FE0300
00007F0600
00007F0400
00003F8C00
00003FD800
00001FD800
00001FF000
00000FE000
00000FE000
000007E000
000007E000
000007E000
000007E000
000007E000
000007E000
000007E000
000007E000
00000FF000
0000FFFF00
ENDCHAR
STARTCHAR 038F
ENCODING 911
SWIDTH 792 0
DWIDTH 33 0
BBX 35 29 -3 0
BITMAP
1F80000000
3F03FFC000
3E0FC7F000
3C3F00FC00
787E007E00
70FC007F00
61F8003F00
C1F8003F80
03F8001F80
03F8001FC0
03F8001FC0
07F8001FC0
07F8001FC0
03F8001FC0
03F8001FC0
03F8001F80
03F8003F80
01F8003F00
00F8003F00
007C007E00
003E007800
000F01E020
0401010020
0401010060
07FF81FFE0
07FF81FFE0
07FF81FFE0
07FF81FFE0
07FF83FFE0
ENDCHAR
STARTCHAR 0390
ENCODING 912
SWIDTH 312 0
DWIDTH 13 0
BBX 19 30 -3 -1
BITMAP
00FC00
00F800
70F1C0
F9E3C0
F9E7E0
F9C7E0
FB83C0
230000
000000
000000
0FF000
03F000
03F000
03F000
03F000
03F000
03F000
03F000
03F000
03F000
03F000
03F000
03F000
03F100
03F100
03F100
01FE00
01FE00
00FC00
002000
ENDCHAR
STARTCHAR 0391
ENCODING 913
SWIDTH 720 0
DWIDTH 30 0
BBX 30 28 0 0
BITMAP
00010000
00030000
00038000
00078000
00078000
000FC000
000FC000
000FE000
001FE000
0017F000
0037F000
0023F800
0063F800
0063F800
00C1FC00
00C1FC00
0080FE00
0180FE00
01007F00
03FFFF00
02007F00
06003F80
06003F80
0C001FC0
0C001FC0
1C000FE0
3C001FF0
FFC0FFFC
ENDCHAR
STARTCHAR 0392
ENCODING 914
SWIDTH 672 0
DWIDTH 28 0
BBX 25 28 1 0
BITMAP
FFFE0000
3FFFF000
1FC3FC00
0FC0FE00
0FC07E00
0FC07F00
0FC07F00
0FC07F00
0FC07F00
0FC07F00
0FC0FE00
0FC1FC00
0FC3F000
0FFFC000
0FC7F800
0FC0FE00
0FC07F00
0FC07F80
0FC03F80
0FC03F80
0FC03F80
0FC03F80
0FC03F80
0FC03F80
0FC07F00
0FC0FE00
1FFFF800
FFFFC000
ENDCHAR
STARTCHAR 0393
ENCODING 915
SWIDTH 648 0
DWIDTH 27 0
BBX 24 28 1 0
BITMAP
FFFFFF
1FFFFF
1FC00F
0FC003
0FC003
0FC001
0FC001
0FC001
0FC000
0FC000
0FC000
0FC000
0FC000
0FC000
0FC000
0FC000
0FC000
0FC000
0FC000
0FC000
0FC000
0FC000
0FC000
0FC000
0FC000
0FE000
1FE000
FFFC00
ENDCHAR
STARTCHAR 0394
ENCODING 916
SWIDTH 624 0
DWIDTH 26 0
BBX 24 28 1 0
BITMAP
001800
001800
001800
003C00
003C00
007E00
007E00
007F00
00FF00
00BF00
01BF80
019F80
031FC0
031FC0
020FC0
060FE0
0407E0
0C07F0
0C07F0
0803F8
1803F8
1001F8
3001FC
3000FC
6000FE
6000FE
40007F
FFFFFF
ENDCHAR
STARTCHAR 0395
ENCODING 917
SWIDTH 672 0
DWIDTH 28 0
BBX 25 28 1 0
BITMAP
FFFFFE00
3FFFFE00
1FC03E00
0FC00E00
0FC00600
0FC00600
0FC00200
0FC08200
0FC08200
0FC08000
0FC18000
0FC18000
0FC38000
0FFF8000
0FFF8000
0FC38000
0FC18000
0FC18000
0FC08000
0FC08080
0FC08080
0FC00180
0FC00100
0FC00300
0FC00700
0FE00F00
1FFFFF00
FFFFFF00
ENDCHAR
STARTCHAR 0396
ENCODING 918
SWIDTH 672 0
DWIDTH 28 0
BBX 26 28 1 0
BITMAP
1FFFFF00
1FFFFF00
3E00FE00
3801FE00
3003FC00
3003F800
2007F800
200FF000
000FE000
001FE000
001FC000
003FC000
007F8000
007F0000
00FF0000
01FE0000
01FC0000
03FC0000
03F80040
07F80040
0FF00040
0FE000C0
1FE000C0
3FC00180
3F800380
7F800F80
7FFFFF80
FFFFFF80
ENDCHAR
STARTCHAR 0397
ENCODING 919
SWIDTH 768 0
DWIDTH 32 0
BBX 31 28 1 0
BITMAP
FFFCFFFE
3FF01FF0
0FE00FE0
0FC00FE0
0FC00FE0
0FC00FE0
0FC00FE0
0FC00FE0
0FC00FE0
0FC00FE0
0FC00FE0
0FC00FE0
0FC00FE0
0FFFFFE0
0FFFFFE0
0FC00FE0
0FC00FE0
0FC00FE0
0FC00FE0
0FC00FE0
0FC00FE0
0FC00FE0
0FC00FE0
0FC00FE0
0FC00FE0
0FE00FE0
1FE00FE0
FFFCFFFE
ENDCHAR
STARTCHAR 0398
ENCODING 920
SWIDTH 768 0
DWIDTH 32 0
BBX 29 29 2 -1
BITMAP
003FE000
01F8FC00
07E03E00
0FC01F00
1F800F80
3F000FC0
3F0007E0
7F0007E0
7E0007F0
FE2027F0
FE2027F8
FE3067F8
FE3FE7F8
FE3FE3F8
FE3FE3F8
FE3FE3F8
FE3FE7F8
FE2067F8
FE2027F0
FE0007F0
7F0007F0
7F0007E0
3F000FC0
1F800FC0
0F801F80
07C03F00
03F07C00
00FFF000
00070000
ENDCHAR
STARTCHAR 0399
ENCODING 921
SWIDTH 384 0
DWIDTH 16 0
BBX 14 28 1 0
BITMAP
FFFC
3FF0
1FE0
0FC0
0FC0
0FC0
0FC0
0FC0
0FC0
0FC0
0FC0
0FC0
0FC0
0FC0
0FC0
0FC0
0FC0
0FC0
0FC0
0FC0
0FC0
0FC0
0FC0
0FC0
0FC0
0FE0
1FE0
FFFC
ENDCHAR
STARTCHAR 039A
ENCODING 922
SWIDTH 768 0
DWIDTH 32 0
BBX 32 28 1 0
BITMAP
FFFC0FFE
3FF003F8
0FE001E0
0FE001C0
0FC00300
0FC00600
0FC01C00
0FC03800
0FC06000
0FC0C000
0FC38000
0FC78000
0FCFC000
0FDFC000
0FFFE000
0FEFF000
0FC7F800
0FC3FC00
0FC3FC00
0FC1FE00
0FC0FF00
0FC07F80
0FC07FC0
0FC03FC0
0FE01FE0
0FE00FF0
1FE00FF8
FFFC3FFF
ENDCHAR
STARTCHAR 039B
ENCODING 923
SWIDTH 720 0
DWIDTH 30 0
BBX 30 28 0 0
BITMAP
00010000
00030000
00038000
00078000
0007C000
000FC000
000FE000
001FE000
001FE000
0017F000
0037F000
0023F800
0063F800
0041FC00
00C1FC00
0081FC00
0180FE00
0180FE00
03007F00
03007F00
02003F80
06003F80
04003F80
0C001FC0
0C001FC0
1C000FE0
3C000FF0
FF80FFFC
ENDCHAR
STARTCHAR 039C
ENCODING 924
SWIDTH 936 0
DWIDTH 39 0
BBX 38 28 1 0
BITMAP
FFE0003FFC
3FF0003FE0
1FF0007FC0
0FF0007FC0
0BF8005FC0
0BF800DFC0
09FC00DFC0
09FC019FC0
08FE019FC0
08FE011FC0
08FE031FC0
087F021FC0
087F061FC0
083F861FC0
083F841FC0
081FCC1FC0
081FC81FC0
081FD81FC0
080FF01FC0
080FF01FC0
0807F01FC0
0807E01FC0
0803E01FC0
0803C01FC0
0803C01FC0
1C01C01FC0
1C01803FC0
FF8081FFFC
ENDCHAR
STARTCHAR 039D
ENCODING 925
SWIDTH 720 0
DWIDTH 30 0
BBX 28 29 1 -1
BITMAP
FF801FF0
7FC007C0
1FE00380
1FF00180
0FF80180
0FF80180
0BFC0180
09FE0180
09FF0180
08FF8180
087F8180
083FC180
081FE180
081FF180
080FF980
0807F980
0803FD80
0801FF80
0800FF80
0800FF80
08007F80
08003F80
08001F80
08000F80
08000F80
1C000780
1C000380
FF800180
00000080
ENDCHAR
STARTCHAR 039E
ENCODING 926
SWIDTH 672 0
DWIDTH 28 0
BBX 24 28 2 0
BITMAP
7FFFFE
7FFFFE
7FFFFE
7FFFFE
7FFFFE
7FFFFE
400002
400002
000000
040010
040030
07FFF0
07FFF0
07FFF0
07FFF0
07FFF0
060070
040030
040010
800001
800001
800001
F0000F
FFFFFF
FFFFFF
FFFFFF
FFFFFF
FFFFFF
ENDCHAR
STARTCHAR 039F
ENCODING 927
SWIDTH 768 0
DWIDTH 32 0
BBX 29 29 2 -1
BITMAP
003FE000
01F8FC00
07E03E00
0FC01F00
1F800F80
3F000FC0
3F0007E0
7F0007F0
7F0007F0
FE0007F0
FE0007F8
FE0003F8
FE0003F8
FE0003F8
FE0003F8
FE0003F8
FE0003F8
FE0007F8
FE0007F0
7E0007F0
7F0007F0
7F0007E0
3F000FC0
1F800FC0
0F801F80
07C03F00
03F07C00
00FFF000
00070000
ENDCHAR
STARTCHAR 03A0
ENCODING 928
SWIDTH 768 0
DWIDTH 32 0
BBX 31 28 1 0
BITMAP
FFFFFFFE
1FFFFFF0
1FC00FE0
0FC00FE0
0FC00FE0
0FC00FE0
0FC00FE0
0FC00FE0
0FC00FE0
0FC00FE0
0FC00FE0
0FC00FE0
0FC00FE0
0FC00FE0
0FC00FE0
0FC00FE0
0FC00FE0
0FC00FE0
0FC00FE0
0FC00FE0
0FC00FE0
0FC00FE0
0FC00FE0
0FC00FE0
0FC00FE0
0FE00FE0
1FE00FE0
FFFCFFFE
ENDCHAR
STARTCHAR 03A1
ENCODING 929
SWIDTH 600 0
DWIDTH 25 0
BBX 23 28 1 0
BITMAP
FFFC00
1FFFE0
0FC3F8
0FC1FC
0FC0FC
0FC0FE
0FC0FE
0FC0FE
0FC0FE
0FC0FE
0FC0FE
0FC0FC
0FC1F8
0FC3F0
0FFFE0
0FE000
0FC000
0FC000
0FC000
0FC000
0FC000
0FC000
0FC000
0FC000
0FC000
0FC000
1FE000
FFFC00
ENDCHAR
STARTCHAR 03A3
ENCODING 931
SWIDTH 648 0
DWIDTH 27 0
BBX 26 28 0 0
BITMAP
FFFFFF00
7FFFFF00
3F801F00
1FC00700
1FE00300
0FE00300
07F00300
03F80100
03F80000
01FC0000
00FE0000
00FF0000
007E0000
003C0000
00180000
00300000
00700000
00600000
00C00040
01800040
030000C0
070000C0
060007C0
0FFFFF80
1FFFFF80
3FFFFF80
7FFFFF80
7FFFFF80
ENDCHAR
STARTCHAR 03A4
ENCODING 932
SWIDTH 672 0
DWIDTH 28 0
BBX 24 28 2 0
BITMAP
FFFFFF
FFFFFF
F07E0F
C07E03
807E03
807E01
807E01
007E01
007E00
007E00
007E00
007E00
007E00
007E00
007E00
007E00
007E00
007E00
007E00
007E00
007E00
007E00
007E00
007E00
007E00
00FE00
00FF00
07FFE0
ENDCHAR
STARTCHAR 03A5
ENCODING 933
SWIDTH 720 0
DWIDTH 30 0
BBX 30 28 0 0
BITMAP
FFFC07FC
3FE001F0
1FE000E0
0FE000C0
0FF000C0
07F00180
03F80100
03F80300
01FC0600
01FC0600
00FE0C00
00FF0800
007F1800
007FB000
003FB000
003FE000
001FC000
000FC000
000FC000
000FC000
000FC000
000FC000
000FC000
000FC000
000FC000
000FC000
001FE000
01FFFE00
ENDCHAR
STARTCHAR 03A6
ENCODING 934
SWIDTH 840 0
DWIDTH 35 0
BBX 31 28 2 0
BITMAP
00FFFC00
003FF000
000FE000
000FE000
00FFFE00
07FFFFC0
1F8FE3E0
3F0FE1F0
3E0FE1F8
7E0FE0FC
FE0FE0FC
FC0FE0FE
FC0FE0FE
FC0FE0FE
FC0FE0FE
FC0FE0FE
FC0FE0FE
FE0FE0FC
7E0FE0FC
7E0FE1F8
3F0FE1F0
1F8FE3E0
07FFFFC0
00FFFE00
000FE000
000FE000
001FE000
00FFFC00
ENDCHAR
STARTCHAR 03A7
ENCODING 935
SWIDTH 720 0
DWIDTH 30 0
BBX 30 28 0 0
BITMAP
7FFE1FF8
3FF007E0
1FF00380
0FF00380
07F80700
07F80600
03FC0C00
01FE1800
01FE3000
00FF3000
007FE000
003FC000
003FC000
001FE000
000FE000
000FF000
000FF800
001BF800
0033FC00
0061FE00
00C0FE00
00C0FF00
01807F80
03003FC0
06003FC0
0E001FE0
1F001FF0
FFE0FFFC
ENDCHAR
STARTCHAR 03A8
ENCODING 936
SWIDTH 792 0
DWIDTH 33 0
BBX 31 28 1 0
BITMAP
F0FFFC3E
7C1FF078
3E0FE0F8
3F0FE1F8
3F0FE1F8
3F0FE3F8
3F0FE3F8
3F0FE3F8
3F0FE3F8
3F0FE3F0
3F0FE3F0
1F8FE3F0
1F8FE3E0
0F8FE7C0
03EFFF80
00FFFC00
000FE000
000FE000
000FE000
000FE000
000FE000
000FE000
000FE000
000FE000
000FE000
000FE000
001FE000
00FFFC00
ENDCHAR
STARTCHAR 03A9
ENCODING 937
SWIDTH 792 0
DWIDTH 33 0
BBX 30 28 2 0
BITMAP
007FF000
01F8FE00
07E01F80
0FC00FC0
1F800FE0
3F0007E0
3F0007F0
7F0003F0
7F0003F8
7F0003F8
FF0003F8
FF0003F8
7F0003F8
7F0003F8
7F0003F0
7F0007F0
3F0007E0
1F0007E0
0F800FC0
07C00F00
01E03C04
80202004
8020200C
FFF03FFC
FFF03FFC
FFF03FFC
FFF03FFC
FFF07FFC
ENDCHAR
STARTCHAR 03AA
ENCODING 938
SWIDTH 384 0
DWIDTH 16 0
BBX 14 36 1 0
BITMAP
3030
7C78
7CFC
7CFC
7C78
3030
0000
0000
FFFC
3FF0
1FE0
0FC0
0FC0
0FC0
0FC0
0FC0
0FC0
0FC0
0FC0
0FC0
0FC0
0FC0
0FC0
0FC0
0FC0
0FC0
0FC0
0FC0
0FC0
0FC0
0FC0
0FC0
0FC0
0FE0
1FE0
FFFC
ENDCHAR
STARTCHAR 03AB
ENCODING 939
SWIDTH 720 0
DWIDTH 30 0
BBX 30 36 0 0
BITMAP
00303000
007C7800
007CFC00
007CFC00
007C7800
00303000
00000000
00000000
FFFC07FC
3FE001F0
1FE000E0
0FE000C0
0FF000C0
07F00180
03F80100
03F80300
01FC0600
01FC0600
00FE0C00
00FF0800
007F1800
007FB000
003FB000
003FE000
001FC000
000FC000
000FC000
000FC000
000FC000
000FC000
000FC000
000FC000
000FC000
000FC000
001FE000
01FFFE00
ENDCHAR
STARTCHAR 03AC
ENCODING 940
SWIDTH 552 0
DWIDTH 23 0
BBX 20 30 2 -1
BITMAP
003F00
007E00
007C00
007800
00F000
00E000
00C000
018000
000000
010000
0FC7E0
1E67E0
3C37E0
7C1FC0
7C1FC0
7C0FC0
FC0FC0
FC0FC0
FC0F80
FC0F80
FC1F80
FC1F80
FC1F00
FC1F00
7C3F10
7C3F90
3C3DF0
1E7CF0
0FF0E0
018040
ENDCHAR
STARTCHAR 03AD
ENCODING 941
SWIDTH 432 0
DWIDTH 18 0
BBX 16 30 1 -1
BITMAP
00FC
00F8
01F0
01E0
01C0
0380
0380
0300
0000
0060
0FFC
3F0E
3E0F
7E1F
7E0E
7E00
3E00
1E00
07F8
03F0
1F00
3E00
7E00
FE00
FE0F
7E0F
7E0F
3F0E
1FFC
00C0
ENDCHAR
STARTCHAR 03AE
ENCODING 942
SWIDTH 576 0
DWIDTH 24 0
BBX 21 38 0 -9
BITMAP
000FC0
000F80
001F00
001E00
001C00
003800
003000
002000
000000
040100
3F0FE0
7F9FF0
7FF3F0
4FE1F0
8FC1F8
0FC1F8
0FC1F8
0FC1F8
0FC1F8
0FC1F8
0FC1F8
0FC1F8
0FC1F8
0FC1F8
0FC1F8
0FC1F8
0FC1F8
0FC1F8
0FC1F8
0001F8
0001F8
0001F8
0001F8
0001F8
0001F8
0001F8
0001F8
0000F8
ENDCHAR
STARTCHAR 03AF
ENCODING 943
SWIDTH 312 0
DWIDTH 13 0
BBX 12 30 1 -1
BITMAP
07F0
07E0
07C0
0F80
0F00
0E00
1C00
1800
0000
0000
FF00
3F00
3F00
3F00
3F00
3F00
3F00
3F00
3F00
3F00
3F00
3F00
3F00
3F10
3F10
3F10
1FE0
1FE0
0FC0
0200
ENDCHAR
STARTCHAR 03B0
ENCODING 944
SWIDTH 528 0
DWIDTH 22 0
BBX 20 30 0 -1
BITMAP
003F00
007E00
187CE0
3C79F0
7EF1F0
7EE1F0
3CC1F0
018040
000000
040000
3F0700
7F8380
7FC1C0
4FC0E0
8FC0E0
8FC0F0
0FC0F0
0FC070
0FC070
0FC070
0FC070
0FC0F0
0FC0F0
0FC0E0
0FC0E0
07C0C0
07C1C0
03E380
01FF00
001000
ENDCHAR
STARTCHAR 03B1
ENCODING 945
SWIDTH 552 0
DWIDTH 23 0
BBX 20 21 2 -1
BITMAP
010000
0FC7E0
1E67E0
3C37E0
7C1FC0
7C1FC0
7C0FC0
FC0FC0
FC0FC0
FC0F80
FC0F80
FC1F80
FC1F80
FC1F00
FC1F00
7C3F10
7C3F90
3C3DF0
1E7CF0
0FF0E0
018040
ENDCHAR
STARTCHAR 03B2
ENCODING 946
SWIDTH 528 0
DWIDTH 22 0
BBX 18 37 2 -9
BITMAP
07F800
1F1E00
3E1F00
7E0F80
7E0F80
7E0F80
7E0F80
7E0F80
7E0F80
7E0F00
7E5E00
7EF800
7EDE00
7E0F00
7E0F80
7E0F80
7E07C0
7E07C0
7E07C0
7E07C0
7E07C0
7E07C0
7E0FC0
7E0FC0
7E0F80
7E0F80
7FBF00
7FFE00
7E3000
7E0000
7E0000
7C0000
7C0000
7C0000
7C0000
FC0000
FC0000
ENDCHAR
STARTCHAR 03B3
ENCODING 947
SWIDTH 480 0
DWIDTH 20 0
BBX 19 28 0 -8
BITMAP
3C07E0
7E07E0
7F0FC0
FF0FC0
C30F80
830F80
818F00
019F00
019E00
019E00
009C00
00FC00
00F800
00F800
007000
007000
006000
00E000
00E000
00E000
01E000
01E000
03E000
03E000
03E000
03E000
03E000
01C000
ENDCHAR
STARTCHAR 03B4
ENCODING 948
SWIDTH 528 0
DWIDTH 22 0
BBX 18 29 2 -1
BITMAP
07F800
1DFE00
103E00
103E00
100E00
180000
0E0000
0F8000
03E000
01F800
00FC00
07FE00
1E3F00
3E3F80
7C1F80
FC1FC0
FC1FC0
FC0FC0
F80FC0
F80FC0
F80FC0
FC0FC0
FC0F80
FC0F80
7C1F00
3C1E00
1E3C00
0FF800
018000
ENDCHAR
STARTCHAR 03B5
ENCODING 949
SWIDTH 432 0
DWIDTH 18 0
BBX 16 21 1 -1
BITMAP
0060
0FFC
3F0E
3E0F
7E1F
7E0E
7E00
3E00
1E00
07F8
03F0
1F00
3E00
7E00
FE00
FE0F
7E0F
7E0F
3F0E
1FFC
00C0
ENDCHAR
STARTCHAR 03B6
ENCODING 950
SWIDTH 408 0
DWIDTH 17 0
BBX 16 38 1 -9
BITMAP
0400
1C1E
183E
387E
38FC
1DF8
0FC0
0600
0C00
0800
1800
1000
3000
2000
6000
6000
4000
4000
C000
C000
C000
E000
E000
7800
7FFC
7FFE
3FFE
3FFF
1FFF
03EF
0003
0003
0003
0003
01EE
01FE
01FC
00F0
ENDCHAR
STARTCHAR 03B7
ENCODING 951
SWIDTH 576 0
DWIDTH 24 0
BBX 21 29 0 -9
BITMAP
040100
3F0FE0
7F9FF0
7FF3F0
4FE1F0
8FC1F8
0FC1F8
0FC1F8
0FC1F8
0FC1F8
0FC1F8
0FC1F8
0FC1F8
0FC1F8
0FC1F8
0FC1F8
0FC1F8
0FC1F8
0FC1F8
0FC1F8
0001F8
0001F8
0001F8
0001F8
0001F8
0001F8
0001F8
0001F8
0000F8
ENDCHAR
STARTCHAR 03B8
ENCODING 952
SWIDTH 528 0
DWIDTH 22 0
BBX 18 29 2 -1
BITMAP
03F000
0F3C00
1E1E00
3C1E00
3C0F00
7C0F80
7C0F80
FC0F80
FC0FC0
FC0FC0
FC0FC0
FC0FC0
FC0FC0
FFFFC0
FFFFC0
FC0FC0
FC0FC0
FC0FC0
FC0FC0
FC0FC0
FC0F80
7C0F80
7C0F80
3C0F00
3C1F00
1E1E00
0E3C00
07F800
008000
ENDCHAR
STARTCHAR 03B9
ENCODING 953
SWIDTH 312 0
DWIDTH 13 0
BBX 12 20 1 -1
BITMAP
FF00
3F00
3F00
3F00
3F00
3F00
3F00
3F00
3F00
3F00
3F00
3F00
3F00
3F10
3F10
3F10
1FE0
1FE0
0FC0
0200
ENDCHAR
STARTCHAR 03BA
ENCODING 954
SWIDTH 552 0
DWIDTH 23 0
BBX 22 20 1 0
BITMAP
000020
FF01F8
3F03F8
3F07F8
3F0630
3F0C00
3F1800
3F3800
3F7C00
3F7C00
3FFE00
3FFF00
3F3F00
3F1F80
3F1FC0
3F0FC0
3F07E0
3F07F0
3F03F8
3F01FC
ENDCHAR
STARTCHAR 03BB
ENCODING 955
SWIDTH 480 0
DWIDTH 20 0
BBX 20 28 1 0
BITMAP
1E0000
3F0000
3F0000
778000
418000
418000
408000
00C000
00C000
00C000
00C000
01E000
01E000
03E000
03E000
07F000
07F000
0FD000
0FD000
1F9800
1F9800
1F0800
3F0810
3E0C10
7E0F70
7E07F0
FC07E0
FC03C0
ENDCHAR
STARTCHAR 03BC
ENCODING 956
SWIDTH 576 0
DWIDTH 24 0
BBX 21 28 2 -9
BITMAP
7E0FC0
7E0FC0
7E0FC0
7E0FC0
7E0FC0
7E0FC0
7E0FC0
7E0FC0
7E0FC0
7E0FC0
7E0FC0
7E0FC0
7E0FC0
7E0FC0
7E0FC8
7E1FC8
7F3FF8
7FEFF0
7FC7E0
720080
700000
780000
780000
F80000
F80000
F80000
F80000
700000
ENDCHAR
STARTCHAR 03BD
ENCODING 957
SWIDTH 456 0
DWIDTH 19 0
BBX 18 21 0 -1
BITMAP
020100
FE0780
FE07C0
3F07C0
3F07C0
1F8380
1F8380
1F8300
0FC300
0FC200
07E200
07E400
07F400
03F800
03F800
01F000
01F000
00E000
00E000
00C000
004000
ENDCHAR
STARTCHAR 03BE
ENCODING 958
SWIDTH 456 0
DWIDTH 19 0
BBX 17 38 1 -9
BITMAP
080000
387800
31F800
33F800
3FF000
0FC000
0C0000
180000
180000
100000
187E00
0DFE00
07FE00
0DF800
180000
300000
200000
600000
400000
C00000
C00000
C00000
E00000
F80000
7FFE00
7FFF00
3FFF80
3FFF80
1FFF80
03F380
000080
000080
000080
000180
00FF80
00FF00
00FE00
007800
ENDCHAR
STARTCHAR 03BF
ENCODING 959
SWIDTH 504 0
DWIDTH 21 0
BBX 17 21 2 -1
BITMAP
008000
0FF800
1E3C00
3C1E00
7C1F00
7C1F00
FC1F80
FC1F80
FC1F80
FC1F80
FC1F80
FC1F80
FC1F80
FC1F80
FC1F80
7C1F00
7C1F00
3C1E00
1E3C00
0FF800
008000
ENDCHAR
STARTCHAR 03C0
ENCODING 960
SWIDTH 552 0
DWIDTH 23 0
BBX 22 20 0 -1
BITMAP
0FFFFC
1FFFFC
3FFFFC
3FFFFC
7FFFFC
418780
818780
038780
038780
038780
078780
078F80
0F0F80
0F0F88
1F0F88
3F0F88
3F0FF0
3E07F0
3E07E0
080000
ENDCHAR
STARTCHAR 03C1
ENCODING 961
SWIDTH 528 0
DWIDTH 22 0
BBX 18 29 2 -9
BITMAP
006000
07FE00
0E1F00
1E0F80
3E0F80
7E0FC0
7C0FC0
7C07C0
7C07C0
7C07C0
7C07C0
7C07C0
7C07C0
7C07C0
7C0FC0
7C0FC0
7C0F80
7E0F00
7F1F00
7DFC00
7C2000
7C0000
7C0000
7C0000
7C0000
7C0000
FC0000
FC0000
FC0000
ENDCHAR
STARTCHAR 03C2
ENCODING 962
SWIDTH 432 0
DWIDTH 18 0
BBX 16 29 1 -9
BITMAP
0010
01FE
07FF
0FFF
1C1F
3000
2000
6000
4000
4000
C000
C000
C000
E000
F800
FFFC
7FFE
7FFE
3FFF
1FFF
01EF
0003
0001
0001
0003
01EE
01FE
01FC
00F0
ENDCHAR
STARTCHAR 03C3
ENCODING 963
SWIDTH 552 0
DWIDTH 23 0
BBX 20 20 2 -1
BITMAP
01FFF0
0FFFF0
3FFFF0
7FFFF0
7FFFF0
FF1C00
FC0F00
FC0F80
F80F80
F80FC0
F80FC0
F80FC0
F80FC0
FC0FC0
7C0FC0
3C0F80
3E0F00
1F1E00
07FC00
00C000
ENDCHAR
STARTCHAR 03C4
ENCODING 964
SWIDTH 456 0
DWIDTH 19 0
BBX 18 20 0 -1
BITMAP
0FFFC0
1FFFC0
3FFFC0
7FFFC0
7FFFC0
C0F000
80F000
00F000
01F000
01F000
01F000
01F000
01F000
01F100
01F100
01F200
01FE00
01FE00
00FC00
002000
ENDCHAR
STARTCHAR 03C5
ENCODING 965
SWIDTH 528 0
DWIDTH 22 0
BBX 20 21 0 -1
BITMAP
040000
3F0700
7F8380
7FC1C0
4FC0E0
8FC0E0
8FC0F0
0FC0F0
0FC070
0FC070
0FC070
0FC070
0FC0F0
0FC0F0
0FC0E0
0FC0E0
07C0C0
07C1C0
03E380
01FF00
001000
ENDCHAR
STARTCHAR 03C6
ENCODING 966
SWIDTH 624 0
DWIDTH 26 0
BBX 22 29 2 -9
BITMAP
008200
071FC0
1E3FE0
3C39F0
7C78F8
7C78FC
F878FC
F8787C
F8787C
F8787C
F8787C
F8787C
F8787C
F8787C
7C78F8
7C78F8
3C78F0
3E79E0
0F7BC0
07FF80
007800
007800
007800
007800
007800
007800
007800
007800
007800
ENDCHAR
STARTCHAR 03C7
ENCODING 967
SWIDTH 456 0
DWIDTH 19 0
BBX 20 28 0 -9
BITMAP
3C07E0
7E07C0
7F0FC0
670F80
430F80
819F00
019F00
00BE00
00BE00
00FC00
007C00
00F800
00F800
01F800
01F000
03F000
03F000
07F000
07D000
0FD000
0F9800
1F8810
1F0810
3F0C30
3E0FE0
7E07E0
7C07E0
7C03C0
ENDCHAR
STARTCHAR 03C8
ENCODING 968
SWIDTH 696 0
DWIDTH 29 0
BBX 27 28 1 -9
BITMAP
F80E07E0
7C0E07C0
7E0E0F80
3E0E0F80
3E0E0F80
3E0E1F80
3F0E1F80
3F0E1F80
3F0E1F80
3F0E1F80
3F0E1F00
1F0E1F00
1F0E3F00
1F8E3E00
0F8E3E00
0F8E3C00
07CE7800
03CEF000
00FFE000
001E0000
000E0000
000E0000
000E0000
000E0000
000E0000
000E0000
000E0000
000E0000
ENDCHAR
STARTCHAR 03C9
ENCODING 969
SWIDTH 720 0
DWIDTH 30 0
BBX 27 21 2 -1
BITMAP
0060C000
07807C00
1F001E00
3E000F00
7C1E0F80
7C1F0FC0
FC1F07C0
FC1F07C0
FC1F07E0
FC1F07E0
FC1E07E0
FC1E07E0
FC0E07E0
FC0C07E0
FC0C07C0
7C0C0FC0
7E0E0FC0
3E131F80
3FF1FF00
0FC0FE00
03001000
ENDCHAR
STARTCHAR 03CA
ENCODING 970
SWIDTH 312 0
DWIDTH 13 0
BBX 13 29 0 -1
BITMAP
7060
F8F0
F9F8
F9F8
F8F0
2000
0000
0000
0000
7F80
1F80
1F80
1F80
1F80
1F80
1F80
1F80
1F80
1F80
1F80
1F80
1F80
1F88
1F88
1F88
0FF0
0FF0
07E0
0100
ENDCHAR
STARTCHAR 03CB
ENCODING 971
SWIDTH 528 0
DWIDTH 22 0
BBX 20 29 0 -1
BITMAP
030700
078F80
0FCF80
0FCF80
078F80
020200
000000
000000
040000
3F0700
7F8380
7FC1C0
4FC0E0
8FC0E0
8FC0F0
0FC0F0
0FC070
0FC070
0FC070
0FC070
0FC0F0
0FC0F0
0FC0E0
0FC0E0
07C0C0
07C1C0
03E380
01FF00
001000
ENDCHAR
STARTCHAR 03CC
ENCODING 972
SWIDTH 504 0
DWIDTH 21 0
BBX 17 30 2 -1
BITMAP
00FE00
00FC00
00F800
01F000
01E000
01C000
038000
030000
000000
008000
0FF800
1E3C00
3C1E00
7C1F00
7C1F00
FC1F80
FC1F80
FC1F80
FC1F80
FC1F80
FC1F80
FC1F80
FC1F80
FC1F80
7C1F00
7C1F00
3C1E00
1E3C00
0FF800
008000
ENDCHAR
STARTCHAR 03CD
ENCODING 973
SWIDTH 528 0
DWIDTH 22 0
BBX 20 30 0 -1
BITMAP
001F80
003F00
003E00
003C00
007800
007000
006000
00C000
000000
040000
3F0700
7F8380
7FC1C0
4FC0E0
8FC0E0
8FC0F0
0FC0F0
0FC070
0FC070
0FC070
0FC070
0FC0F0
0FC0F0
0FC0E0
0FC0E0
07C0C0
07C1C0
03E380
01FF00
001000
ENDCHAR
STARTCHAR 03CE
ENCODING 974
SWIDTH 720 0
DWIDTH 30 0
BBX 27 30 2 -1
BITMAP
0007E000
0007C000
00078000
000F8000
000F0000
000E0000
001C0000
00180000
00000000
0060C000
07807C00
1F001E00
3E000F00
7C1E0F80
7C1F0FC0
FC1F07C0
FC1F07C0
FC1F07E0
FC1F07E0
FC1E07E0
FC1E07E0
FC0E07E0
FC0C07E0
FC0C07C0
7C0C0FC0
7E0E0FC0
3E131F80
3FF1FF00
0FC0FE00
03001000
ENDCHAR
STARTCHAR 0401
ENCODING 1025
SWIDTH 672 0
DWIDTH 28 0
BBX 25 36 1 0
BITMAP
00C0C000
01E3E000
03F3E000
03F3E000
01E3E000
00C0C000
00000000
00000000
FFFFFE00
3FFFFE00
1FC03E00
0FC00E00
0FC00600
0FC00600
0FC00200
0FC08200
0FC08200
0FC08000
0FC18000
0FC18000
0FC38000
0FFF8000
0FFF8000
0FC38000
0FC18000
0FC18000
0FC08000
0FC08080
0FC08080
0FC00180
0FC00100
0FC00300
0FC00700
0FE00F00
1FFFFF00
FFFFFF00
ENDCHAR
STARTCHAR 0402
ENCODING 1026
SWIDTH 792 0
DWIDTH 33 0
BBX 31 28 1 0
BITMAP
FFFFFF00
FFFFFF00
F8FE1F00
E0FE0700
C0FE0300
C0FE0300
80FE0100
00FE0000
00FE0000
00FE1FC0
00FE7FE0
00FEFFF0
00FF87F8
00FF03FC
00FE01FC
00FE01FE
00FE00FE
00FE00FE
00FE00FE
00FE00FE
00FE00FE
00FE00FE
00FE00FC
00FE00FC
00FE01F8
00FE01F8
01FE11F0
0FFFCFC0
ENDCHAR
STARTCHAR 0403
ENCODING 1027
SWIDTH 648 0
DWIDTH 27 0
BBX 24 37 1 0
BITMAP
000FC0
000F80
001F00
001E00
001C00
003800
003000
000000
000000
FFFFFF
1FFFFF
1FC00F
0FC003
0FC003
0FC001
0FC001
0FC001
0FC000
0FC000
0FC000
0FC000
0FC000
0FC000
0FC000
0FC000
0FC000
0FC000
0FC000
0FC000
0FC000
0FC000
0FC000
0FC000
0FC000
0FE000
1FE000
FFFC00
ENDCHAR
STARTCHAR 0404
ENCODING 1028
SWIDTH 672 0
DWIDTH 28 0
BBX 24 29 2 -1
BITMAP
007FC1
01FFFB
07E01F
0FC007
1F8003
3F8003
3F0001
7F0001
7E0001
FE0000
FE0000
FE0000
FE0000
FFFFC0
FFFFC0
FE0000
FE0000
FE0000
FE0000
FE0000
7F0000
7F0000
3F0000
1F8001
0FC002
07E00E
03F838
00FFF0
000E00
ENDCHAR
STARTCHAR 0405
ENCODING 1029
SWIDTH 552 0
DWIDTH 23 0
BBX 20 29 2 -1
BITMAP
07F840
1F1EC0
3C07C0
7803C0
7801C0
7800C0
F800C0
FC0040
FE0040
FF8000
7FE000
7FF800
3FFC00
1FFF00
0FFF80
03FFC0
01FFE0
007FE0
801FE0
8007E0
C003F0
C003E0
E001E0
E001E0
F001C0
F80380
FE0700
C7FE00
807000
ENDCHAR
STARTCHAR 0406
ENCODING 1030
SWIDTH 384 0
DWIDTH 16 0
BBX 14 28 1 0
BITMAP
FFFC
3FF0
1FE0
0FC0
0FC0
0FC0
0FC0
0FC0
0FC0
0FC0
0FC0
0FC0
0FC0
0FC0
0FC0
0FC0
0FC0
0FC0
0FC0
0FC0
0FC0
0FC0
0FC0
0FC0
0FC0
0FE0
1FE0
FFFC
ENDCHAR
STARTCHAR 0407
ENCODING 1031
SWIDTH 384 0
DWIDTH 16 0
BBX 14 36 1 0
BITMAP
3030
7C78
7CFC
7CFC
7C78
3030
0000
0000
FFFC
3FF0
1FE0
0FC0
0FC0
0FC0
0FC0
0FC0
0FC0
0FC0
0FC0
0FC0
0FC0
0FC0
0FC0
0FC0
0FC0
0FC0
0FC0
0FC0
0FC0
0FC0
0FC0
0FC0
0FC0
0FE0
1FE0
FFFC
ENDCHAR
STARTCHAR 0408
ENCODING 1032
SWIDTH 504 0
DWIDTH 21 0
BBX 21 29 0 -1
BITMAP
03FFF8
007FC0
003F80
003F80
003F80
003F80
003F80
003F80
003F80
003F80
003F80
003F80
003F80
003F80
003F80
003F80
003F80
003F80
003F80
003F80
7C3F80
7C3F80
FC3F00
7C3F00
783F00
783E00
3C7C00
0FF800
018000
ENDCHAR
STARTCHAR 0409
ENCODING 1033
SWIDTH 1008 0
DWIDTH 42 0
BBX 40 28 0 0
BITMAP
01FFFFF800
003FFFE000
00181FC000
00181FC000
00081FC000
00081FC000
00081FC000
00081FC000
00081FC000
00081FC000
00081FC000
00081FC000
00081FC000
00081FFFE0
00081FFFF8
00181FC3FC
00181FC1FE
00181FC0FF
00181FC07F
00181FC07F
00101FC07F
00101FC07F
78301FC07F
F8201FC07F
F8601FC0FE
FCC01FC1FC
7F803FE3F8
3F01FFFFE0
ENDCHAR
STARTCHAR 040A
ENCODING 1034
SWIDTH 1008 0
DWIDTH 42 0
BBX 39 28 1 0
BITMAP
FFFBFFF000
3FF07FC000
1FE03F8000
0FC03F8000
0FC03F8000
0FC03F8000
0FC03F8000
0FC03F8000
0FC03F8000
0FC03F8000
0FC03F8000
0FC03F8000
0FC03F8000
0FFFFFFF80
0FFFFFFFF0
0FC03F87F8
0FC03F83FC
0FC03F81FE
0FC03F80FE
0FC03F80FE
0FC03F80FE
0FC03F80FE
0FC03F80FE
0FC03F80FE
0FC03F81FC
0FE03F83F8
1FE07FCFF0
FFFBFFFFC0
ENDCHAR
STARTCHAR 040B
ENCODING 1035
SWIDTH 792 0
DWIDTH 33 0
BBX 31 28 1 0
BITMAP
FFFFFC00
FFFFFC00
F8FE7C00
E0FE1C00
C0FE0C00
C0FE0400
80FE0400
00FE0000
00FE0000
00FE3F80
00FE7FC0
00FEFFE0
00FFFFF0
00FF07F0
00FE07F0
00FE03F0
00FE03F0
00FE03F0
00FE03F0
00FE03F0
00FE03F0
00FE03F0
00FE03F0
00FE03F0
00FE03F0
00FE03F0
01FE07F8
0FFF9FFE
ENDCHAR
STARTCHAR 040C
ENCODING 1036
SWIDTH 720 0
DWIDTH 30 0
BBX 29 37 1 0
BITMAP
0003F000
0003E000
0007C000
00078000
00070000
000E0000
000C0000
00000000
00000000
FFFC03C0
3FF00FE0
1FE01FF0
0FC019F0
0FC031F0
0FC031F0
0FC020C0
0FC06000
0FC06000
0FC04000
0FC0C000
0FC0C000
0FC18000
0FFF0000
0FFFC000
0FCFE000
0FC7F000
0FC3F800
0FC3F800
0FC1FC00
0FC1FC00
0FC0FE00
0FC0FE00
0FC07F00
0FC07F80
0FE03F80
1FE01FC0
FFFC1FF8
ENDCHAR
STARTCHAR 040D
ENCODING 1037
SWIDTH 768 0
DWIDTH 32 0
BBX 31 37 1 0
BITMAP
007E0000
003E0000
001E0000
000F0000
00070000
00030000
00018000
00000000
00000000
FFFCFFFE
1FF01FF0
1FE00FE0
0FC00FE0
0FC00FE0
0FC00FE0
0FC01FE0
0FC03FE0
0FC03FE0
0FC06FE0
0FC06FE0
0FC0CFE0
0FC18FE0
0FC18FE0
0FC30FE0
0FC60FE0
0FC60FE0
0FCC0FE0
0FDC0FE0
0FD80FE0
0FF00FE0
0FF00FE0
0FE00FE0
0FC00FE0
0FC00FE0
0FE00FE0
1FE01FE0
FFFCFFFE
ENDCHAR
STARTCHAR 040E
ENCODING 1038
SWIDTH 744 0
DWIDTH 31 0
BBX 30 37 0 -1
BITMAP
00300700
00780780
007C0F80
007C1F00
001FFE00
0003F000
00000000
00000000
FFFC07FC
3FF000F8
0FE00070
0FF00060
07F000C0
03F800C0
03F80180
01FC0180
01FC0300
00FE0300
00FE0600
007F0600
007F8C00
003F8C00
001FD800
001FD800
000FF000
000FF000
0007E000
0007E000
0003C000
0003C000
01C18000
03C18000
07E30000
03E20000
03FE0000
01FC0000
00600000
ENDCHAR
STARTCHAR 040F
ENCODING 1039
SWIDTH 768 0
DWIDTH 32 0
BBX 30 36 1 -8
BITMAP
FFFCFFFC
1FE01FF0
1FE00FE0
0FC00FE0
0FC00FE0
0FC00FE0
0FC00FE0
0FC00FE0
0FC00FE0
0FC00FE0
0FC00FE0
0FC00FE0
0FC00FE0
0FC00FE0
0FC00FE0
0FC00FE0
0FC00FE0
0FC00FE0
0FC00FE0
0FC00FE0
0FC00FE0
0FC00FE0
0FC00FE0
0FC00FE0
0FC00FE0
0FE00FE0
1FFFFFE0
FFFFFFFC
001FE000
0007C000
00038000
00030000
00030000
00010000
00010000
00010000
ENDCHAR
STARTCHAR 0410
ENCODING 1040
SWIDTH 720 0
DWIDTH 30 0
BBX 30 28 0 0
BITMAP
00010000
00030000
00038000
00078000
00078000
000FC000
000FC000
000FE000
001FE000
0017F000
0037F000
0023F800
0063F800
0063F800
00C1FC00
00C1FC00
0080FE00
0180FE00
01007F00
03FFFF00
02007F00
06003F80
06003F80
0C001FC0
0C001FC0
1C000FE0
3C001FF0
FFC0FFFC
ENDCHAR
STARTCHAR 0411
ENCODING 1041
SWIDTH 672 0
DWIDTH 28 0
BBX 25 28 1 0
BITMAP
FFFFFF00
3FFFFF00
1FC03F00
0FC00700
0FC00700
0FC00300
0FC00300
0FC00100
0FC00000
0FC00000
0FC00000
0FC00000
0FC00000
0FFFE000
0FFFFC00
0FC1FE00
0FC0FF00
0FC07F80
0FC07F80
0FC03F80
0FC03F80
0FC03F80
0FC03F80
0FC07F80
0FC07F00
0FE0FE00
1FF3FC00
FFFFE000
ENDCHAR
STARTCHAR 0412
ENCODING 1042
SWIDTH 672 0
DWIDTH 28 0
BBX 25 28 1 0
BITMAP
FFFE0000
3FFFF000
1FC3FC00
0FC0FE00
0FC07E00
0FC07F00
0FC07F00
0FC07F00
0FC07F00
0FC07F00
0FC0FE00
0FC1FC00
0FC3F000
0FFFC000
0FC7F800
0FC0FE00
0FC07F00
0FC07F80
0FC03F80
0FC03F80
0FC03F80
0FC03F80
0FC03F80
0FC03F80
0FC07F00
0FC0FE00
1FFFF800
FFFFC000
ENDCHAR
STARTCHAR 0413
ENCODING 1043
SWIDTH 648 0
DWIDTH 27 0
BBX 24 28 1 0
BITMAP
FFFFFF
1FFFFF
1FC00F
0FC003
0FC003
0FC001
0FC001
0FC001
0FC000
0FC000
0FC000
0FC000
0FC000
0FC000
0FC000
0FC000
0FC000
0FC000
0FC000
0FC000
0FC000
0FC000
0FC000
0FC000
0FC000
0FE000
1FE000
FFFC00
ENDCHAR
STARTCHAR 0414
ENCODING 1044
SWIDTH 696 0
DWIDTH 29 0
BBX 28 36 0 -8
BITMAP
07FFFFF0
00FFFF80
00603F00
00603F00
00603F00
00603F00
00603F00
00603F00
00603F00
00603F00
00603F00
00603F00
00603F00
00603F00
00403F00
00403F00
00C03F00
00C03F00
00C03F00
00803F00
01803F00
01803F00
03003F00
03003F00
06003F00
0C003F00
3FFFFF80
FFFFFFF0
FE0007F0
F80000F0
E0000070
C0000030
C0000030
80000010
80000010
80000010
ENDCHAR
STARTCHAR 0415
ENCODING 1045
SWIDTH 672 0
DWIDTH 28 0
BBX 25 28 1 0
BITMAP
FFFFFE00
3FFFFE00
1FC03E00
0FC00E00
0FC00600
0FC00600
0FC00200
0FC08200
0FC08200
0FC08000
0FC18000
0FC18000
0FC38000
0FFF8000
0FFF8000
0FC38000
0FC18000
0FC18000
0FC08000
0FC08080
0FC08080
0FC00180
0FC00100
0FC00300
0FC00700
0FE00F00
1FFFFF00
FFFFFF00
ENDCHAR
STARTCHAR 0416
ENCODING 1046
SWIDTH 984 0
DWIDTH 41 0
BBX 40 28 1 0
BITMAP
3E07FFE078
7F01FF01FE
FF80FE03FE
F980FE033E
F8C0FE063E
F8C0FE061E
2060FE040C
0060FE0C00
0060FE0C00
0020FE0C00
0030FE1800
0030FE1800
0018FE3000
000FFFE000
003FFFFC00
007EFE7E00
00FCFE7E00
01F8FE3F00
01F8FE3F80
03F0FE1F80
03F0FE1FC0
07E0FE0FC0
07E0FE0FE0
0FC0FE07E0
0FC0FE07F0
1F80FE03F0
3F80FE03F8
FF07FFE1FF
ENDCHAR
STARTCHAR 0417
ENCODING 1047
SWIDTH 528 0
DWIDTH 22 0
BBX 20 29 1 -1
BITMAP
47FC00
7EFF00
703F80
601FC0
601FC0
601FC0
401FE0
401FC0
001FC0
001FC0
001F80
003F00
007C00
07F000
07FE00
007F80
001FC0
001FE0
000FE0
000FE0
000FF0
000FF0
000FE0
000FE0
801FE0
603FC0
387F80
1FFE00
01E000
ENDCHAR
STARTCHAR 0418
ENCODING 1048
SWIDTH 768 0
DWIDTH 32 0
BBX 31 28 1 0
BITMAP
FFFCFFFE
1FF01FF0
1FE00FE0
0FC00FE0
0FC00FE0
0FC00FE0
0FC01FE0
0FC03FE0
0FC03FE0
0FC06FE0
0FC06FE0
0FC0CFE0
0FC18FE0
0FC18FE0
0FC30FE0
0FC60FE0
0FC60FE0
0FCC0FE0
0FDC0FE0
0FD80FE0
0FF00FE0
0FF00FE0
0FE00FE0
0FC00FE0
0FC00FE0
0FE00FE0
1FE01FE0
FFFCFFFE
ENDCHAR
STARTCHAR 0419
ENCODING 1049
SWIDTH 768 0
DWIDTH 32 0
BBX 31 36 1 0
BITMAP
00E00E00
01F01E00
01F03E00
00F83E00
007FFC00
000FC000
00000000
00000000
FFFCFFFE
1FF01FF0
1FE00FE0
0FC00FE0
0FC00FE0
0FC00FE0
0FC01FE0
0FC03FE0
0FC03FE0
0FC06FE0
0FC06FE0
0FC0CFE0
0FC18FE0
0FC18FE0
0FC30FE0
0FC60FE0
0FC60FE0
0FCC0FE0
0FDC0FE0
0FD80FE0
0FF00FE0
0FF00FE0
0FE00FE0
0FC00FE0
0FC00FE0
0FE00FE0
1FE01FE0
FFFCFFFE
ENDCHAR
STARTCHAR 041A
ENCODING 1050
SWIDTH 720 0
DWIDTH 30 0
BBX 29 28 1 0
BITMAP
FFFC03C0
3FF00FE0
1FE01FF0
0FC019F0
0FC031F0
0FC031F0
0FC020C0
0FC06000
0FC06000
0FC04000
0FC0C000
0FC0C000
0FC18000
0FFF0000
0FFFC000
0FCFE000
0FC7F000
0FC3F800
0FC3F800
0FC1FC00
0FC1FC00
0FC0FE00
0FC0FE00
0FC07F00
0FC07F80
0FE03F80
1FE01FC0
FFFC1FF8
ENDCHAR
STARTCHAR 041B
ENCODING 1051
SWIDTH 744 0
DWIDTH 31 0
BBX 30 28 0 0
BITMAP
01FFFFFC
003FFFF0
00180FE0
00180FC0
00080FC0
00080FC0
00080FC0
00080FC0
00080FC0
00080FC0
00080FC0
00080FC0
00080FC0
00080FC0
00080FC0
00180FC0
00180FC0
00180FC0
00180FC0
00180FC0
00100FC0
00100FC0
78300FC0
F8200FC0
F8600FC0
FCC00FE0
7F801FE0
3F00FFFC
ENDCHAR
STARTCHAR 041C
ENCODING 1052
SWIDTH 936 0
DWIDTH 39 0
BBX 38 28 1 0
BITMAP
FFE0003FFC
3FF0003FE0
1FF0007FC0
0FF0007FC0
0BF8005FC0
0BF800DFC0
09FC00DFC0
09FC019FC0
08FE019FC0
08FE011FC0
08FE031FC0
087F021FC0
087F061FC0
083F861FC0
083F841FC0
081FCC1FC0
081FC81FC0
081FD81FC0
080FF01FC0
080FF01FC0
0807F01FC0
0807E01FC0
0803E01FC0
0803C01FC0
0803C01FC0
1C01C01FC0
1C01803FC0
FF8081FFFC
ENDCHAR
STARTCHAR 041D
ENCODING 1053
SWIDTH 768 0
DWIDTH 32 0
BBX 31 28 1 0
BITMAP
FFFCFFFE
3FF01FF0
0FE00FE0
0FC00FE0
0FC00FE0
0FC00FE0
0FC00FE0
0FC00FE0
0FC00FE0
0FC00FE0
0FC00FE0
0FC00FE0
0FC00FE0
0FFFFFE0
0FFFFFE0
0FC00FE0
0FC00FE0
0FC00FE0
0FC00FE0
0FC00FE0
0FC00FE0
0FC00FE0
0FC00FE0
0FC00FE0
0FC00FE0
0FE00FE0
1FE00FE0
FFFCFFFE
ENDCHAR
STARTCHAR 041E
ENCODING 1054
SWIDTH 768 0
DWIDTH 32 0
BBX 29 29 2 -1
BITMAP
003FE000
01F8FC00
07E03E00
0FC01F00
1F800F80
3F000FC0
3F0007E0
7F0007F0
7F0007F0
FE0007F0
FE0007F8
FE0003F8
FE0003F8
FE0003F8
FE0003F8
FE0003F8
FE0003F8
FE0007F8
FE0007F0
7E0007F0
7F0007F0
7F0007E0
3F000FC0
1F800FC0
0F801F80
07C03F00
03F07C00
00FFF000
00070000
ENDCHAR
STARTCHAR 041F
ENCODING 1055
SWIDTH 768 0
DWIDTH 32 0
BBX 31 28 1 0
BITMAP
FFFFFFFE
1FFFFFF0
1FC00FE0
0FC00FE0
0FC00FE0
0FC00FE0
0FC00FE0
0FC00FE0
0FC00FE0
0FC00FE0
0FC00FE0
0FC00FE0
0FC00FE0
0FC00FE0
0FC00FE0
0FC00FE0
0FC00FE0
0FC00FE0
0FC00FE0
0FC00FE0
0FC00FE0
0FC00FE0
0FC00FE0
0FC00FE0
0FC00FE0
0FE00FE0
1FE00FE0
FFFCFFFE
ENDCHAR
STARTCHAR 0420
ENCODING 1056
SWIDTH 600 0
DWIDTH 25 0
BBX 23 28 1 0
BITMAP
FFFC00
1FFFE0
0FC3F8
0FC1FC
0FC0FC
0FC0FE
0FC0FE
0FC0FE
0FC0FE
0FC0FE
0FC0FE
0FC0FC
0FC1F8
0FC3F0
0FFFE0
0FE000
0FC000
0FC000
0FC000
0FC000
0FC000
0FC000
0FC000
0FC000
0FC000
0FC000
1FE000
FFFC00
ENDCHAR
STARTCHAR 0421
ENCODING 1057
SWIDTH 720 0
DWIDTH 30 0
BBX 26 29 2 -1
BITMAP
003FE040
00FFFCC0
03F00FC0
07E003C0
0FC001C0
1F8001C0
3F0000C0
3F0000C0
7F000040
7E000000
FE000000
FE000000
FE000000
FE000000
FE000000
FE000000
FE000000
FE000000
FE000000
FF000000
7F000000
7F000000
3F800080
1F800080
0FC00380
07E00700
03FC3C00
00FFF800
00070000
ENDCHAR
STARTCHAR 0422
ENCODING 1058
SWIDTH 672 0
DWIDTH 28 0
BBX 24 28 2 0
BITMAP
FFFFFF
FFFFFF
F07E0F
C07E03
807E03
807E01
807E01
007E01
007E00
007E00
007E00
007E00
007E00
007E00
007E00
007E00
007E00
007E00
007E00
007E00
007E00
007E00
007E00
007E00
007E00
00FE00
00FF00
07FFE0
ENDCHAR
STARTCHAR 0423
ENCODING 1059
SWIDTH 744 0
DWIDTH 31 0
BBX 30 29 0 -1
BITMAP
FFFC07FC
3FF000F8
0FE00070
0FF00060
07F000C0
03F800C0
03F80180
01FC0180
01FC0300
00FE0300
00FE0600
007F0600
007F8C00
003F8C00
001FD800
001FD800
000FF000
000FF000
0007E000
0007E000
0003C000
0003C000
01C18000
03C18000
07E30000
03E20000
03FE0000
01FC0000
00600000
ENDCHAR
STARTCHAR 0424
ENCODING 1060
SWIDTH 864 0
DWIDTH 36 0
BBX 32 28 2 0
BITMAP
007FFE00
001FF800
000FF000
0007E000
003FFC00
07FFFFE0
1F87E1F0
3F07E0FC
7E07E0FC
7E07E07E
FE07E07F
FC07E07F
FC07E07F
FC07E03F
FC07E03F
FC07E07F
FC07E07F
FE07E07F
7E07E07E
7E07E07C
3F07E0FC
1F87E1F8
07FFFFE0
00FFFE00
0007E000
000FE000
000FF000
007FFE00
ENDCHAR
STARTCHAR 0425
ENCODING 1061
SWIDTH 720 0
DWIDTH 30 0
BBX 30 28 0 0
BITMAP
7FFE1FF8
3FF007E0
1FF00380
0FF00380
07F80700
07F80600
03FC0C00
01FE1800
01FE3000
00FF3000
007FE000
003FC000
003FC000
001FE000
000FE000
000FF000
000FF800
001BF800
0033FC00
0061FE00
00C0FE00
00C0FF00
01807F80
03003FC0
06003FC0
0E001FE0
1F001FF0
FFE0FFFC
ENDCHAR
STARTCHAR 0426
ENCODING 1062
SWIDTH 768 0
DWIDTH 32 0
BBX 30 36 1 -8
BITMAP
FFFCFFFC
1FE01FF0
1FE00FE0
0FC00FE0
0FC00FE0
0FC00FE0
0FC00FE0
0FC00FE0
0FC00FE0
0FC00FE0
0FC00FE0
0FC00FE0
0FC00FE0
0FC00FE0
0FC00FE0
0FC00FE0
0FC00FE0
0FC00FE0
0FC00FE0
0FC00FE0
0FC00FE0
0FC00FE0
0FC00FE0
0FC00FE0
0FC00FE0
0FE00FE0
1FFFFFE0
FFFFFFFC
000000FC
0000003C
0000001C
0000000C
0000000C
00000004
00000004
00000004
ENDCHAR
STARTCHAR 0427
ENCODING 1063
SWIDTH 744 0
DWIDTH 31 0
BBX 30 28 0 0
BITMAP
FFFCFFFC
3FF03FE0
0FE01FC0
0FE01FC0
0FE01FC0
0FE01FC0
0FE01FC0
0FE01FC0
0FE01FC0
0FE01FC0
0FE01FC0
0FE01FC0
0FE01FC0
0FE01FC0
0FF07FC0
07FFFFC0
03FF9FC0
00F81FC0
00001FC0
00001FC0
00001FC0
00001FC0
00001FC0
00001FC0
00001FC0
00001FC0
00001FC0
0001FFFC
ENDCHAR
STARTCHAR 0428
ENCODING 1064
SWIDTH 1104 0
DWIDTH 46 0
BBX 42 28 2 0
BITMAP
FFF1FFE7FFC0
3FC07F81FF00
3FC07F00FE00
1F803F00FE00
1F803F00FE00
1F803F00FE00
1F803F00FE00
1F803F00FE00
1F803F00FE00
1F803F00FE00
1F803F00FE00
1F803F00FE00
1F803F00FE00
1F803F00FE00
1F803F00FE00
1F803F00FE00
1F803F00FE00
1F803F00FE00
1F803F00FE00
1F803F00FE00
1F803F00FE00
1F803F00FE00
1F803F00FE00
1F803F00FE00
1F803F00FE00
1FC07F00FE00
3FFFFFFFFF00
FFFFFFFFFFC0
ENDCHAR
STARTCHAR 0429
ENCODING 1065
SWIDTH 1104 0
DWIDTH 46 0
BBX 42 36 2 -8
BITMAP
FFF1FFE7FFC0
3FC07F81FF00
3FC07F00FE00
1F803F00FE00
1F803F00FE00
1F803F00FE00
1F803F00FE00
1F803F00FE00
1F803F00FE00
1F803F00FE00
1F803F00FE00
1F803F00FE00
1F803F00FE00
1F803F00FE00
1F803F00FE00
1F803F00FE00
1F803F00FE00
1F803F00FE00
1F803F00FE00
1F803F00FE00
1F803F00FE00
1F803F00FE00
1F803F00FE00
1F803F00FE00
1F803F00FE00
1FC07F00FE00
3FFFFFFFFF00
FFFFFFFFFFC0
000000000FC0
0000000003C0
0000000001C0
0000000001C0
0000000000C0
000000000040
000000000040
000000000040
ENDCHAR
STARTCHAR 042A
ENCODING 1066
SWIDTH 768 0
DWIDTH 32 0
BBX 29 28 2 0
BITMAP
FFFFC000
FFFE0000
F9FC0000
C1FC0000
81FC0000
81FC0000
01FC0000
01FC0000
01FC0000
01FC0000
01FC0000
01FC0000
01FC0000
01FFFE00
01FFFF80
01FC3FC0
01FC1FE0
01FC0FF0
01FC07F0
01FC07F8
01FC07F8
01FC07F8
01FC07F0
01FC07F0
01FC0FE0
01FC1FC0
03FE7F80
1FFFFE00
ENDCHAR
STARTCHAR 042B
ENCODING 1067
SWIDTH 984 0
DWIDTH 41 0
BBX 39 28 1 0
BITMAP
FFFC007FFE
3FF0001FF8
1FE0000FE0
0FC00007E0
0FC00007E0
0FC00007E0
0FC00007E0
0FC00007E0
0FC00007E0
0FC00007E0
0FC00007E0
0FC00007E0
0FC00007E0
0FFFE007E0
0FFFFC07E0
0FC1FE07E0
0FC0FF07E0
0FC07F87E0
0FC07F87E0
0FC03F87E0
0FC03F87E0
0FC03F87E0
0FC03F87E0
0FC07F87E0
0FC07F07E0
0FE0FE0FE0
1FF3FC0FF0
FFFFE07FFE
ENDCHAR
STARTCHAR 042C
ENCODING 1068
SWIDTH 672 0
DWIDTH 28 0
BBX 25 28 1 0
BITMAP
FFFC0000
3FF00000
1FE00000
0FC00000
0FC00000
0FC00000
0FC00000
0FC00000
0FC00000
0FC00000
0FC00000
0FC00000
0FC00000
0FFFE000
0FFFFC00
0FC1FE00
0FC0FF00
0FC07F80
0FC07F80
0FC03F80
0FC03F80
0FC03F80
0FC03F80
0FC07F80
0FC07F00
0FE0FE00
1FF3FC00
FFFFE000
ENDCHAR
STARTCHAR 042D
ENCODING 1069
SWIDTH 672 0
DWIDTH 28 0
BBX 25 29 2 -1
BITMAP
83FE0000
FFBFC000
F807E000
F003F000
E001F800
C000FC00
C000FE00
80007E00
80007F00
00007F00
00007F00
00007F80
00007F80
03FFFF80
03FFFF80
00007F80
00007F80
00007F00
00007F00
00007F00
00007F00
0000FE00
0000FC00
C001FC00
6001F800
3003F000
1C1FC000
07FF8000
00700000
ENDCHAR
STARTCHAR 042E
ENCODING 1070
SWIDTH 1128 0
DWIDTH 47 0
BBX 44 29 1 -1
BITMAP
FFFC007FE000
3FF001F1F800
1FE007C07E00
0FC00F803F00
0FC01F001F80
0FC03F000FC0
0FC07F000FC0
0FC07E000FE0
0FC0FE0007E0
0FC0FE0007F0
0FC0FE0007F0
0FC1FE0007F0
0FC1FC0007F0
0FFFFC0007F0
0FFFFC0007F0
0FC1FC0007F0
0FC1FE0007F0
0FC1FE0007F0
0FC0FE0007F0
0FC0FE0007E0
0FC0FE000FE0
0FC07E000FE0
0FC03F000FC0
0FC03F001F80
0FC01F801F00
0FC00FC03E00
1FE003E07C00
FFFC00FFF000
0000000E0000
ENDCHAR
STARTCHAR 042F
ENCODING 1071
SWIDTH 720 0
DWIDTH 30 0
BBX 29 28 0 0
BITMAP
0003FFF8
00FFFFE0
03FC1FC0
03F01FC0
07E01FC0
0FE01FC0
0FE01FC0
0FE01FC0
0FE01FC0
0FE01FC0
0FE01FC0
07E01FC0
03F01FC0
01FC1FC0
007FFFC0
003F9FC0
007F1FC0
00FF1FC0
00FE1FC0
01FC1FC0
03FC1FC0
07F81FC0
07F01FC0
0FF01FC0
1FE01FC0
1FC01FC0
3F803FC0
FF81FFF8
ENDCHAR
STARTCHAR 0430
ENCODING 1072
SWIDTH 504 0
DWIDTH 21 0
BBX 18 20 2 0
BITMAP
00C000
0FF800
387C00
783E00
783E00
FC3F00
FC3F00
783F00
107F00
01FF00
073F00
1E3F00
3C3F00
7C3F00
F83F00
FC3F00
FC7F00
FFFF40
FF3F80
7E1F00
ENDCHAR
STARTCHAR 0431
ENCODING 1073
SWIDTH 504 0
DWIDTH 21 0
BBX 18 29 1 -1
BITMAP
003FC0
03FF80
07FF80
0FFF00
1FFE00
1F0000
380000
300000
204000
63FC00
6F1E00
5E0F00
5E0F80
7E0F80
7E0FC0
7E0FC0
FE0FC0
7E0FC0
7C0FC0
7E0FC0
7E0FC0
7E0FC0
7E0FC0
3E0F80
3E0F80
1E0F00
0F1E00
07FC00
00C000
ENDCHAR
STARTCHAR 0432
ENCODING 1074
SWIDTH 552 0
DWIDTH 23 0
BBX 20 19 1 0
BITMAP
FFFE00
3F9F80
3F87C0
1F87C0
1F87C0
1F87C0
1F87C0
1F8F80
1FFE00
1FFF80
1F87E0
1F83E0
1F83F0
1F83F0
1F83F0
1F83F0
1F87E0
3F8FC0
FFFE00
ENDCHAR
STARTCHAR 0433
ENCODING 1075
SWIDTH 456 0
DWIDTH 19 0
BBX 17 19 1 0
BITMAP
FFFF80
3F0380
1F0080
1F0080
1F0080
1F0000
1F0000
1F0000
1F0000
1F0000
1F0000
1F0000
1F0000
1F0000
1F0000
1F0000
1F0000
3F8000
FFE000
ENDCHAR
STARTCHAR 0434
ENCODING 1076
SWIDTH 504 0
DWIDTH 21 0
BBX 20 24 0 -5
BITMAP
1FFFF0
060FC0
060FC0
060FC0
060FC0
060FC0
060FC0
060FC0
060FC0
040FC0
040FC0
040FC0
0C0FC0
0C0FC0
080FC0
180FC0
100FC0
301FC0
FFFFF0
F000F0
C00070
C00030
800010
800010
ENDCHAR
STARTCHAR 0435
ENCODING 1077
SWIDTH 456 0
DWIDTH 19 0
BBX 16 21 2 -1
BITMAP
0180
0FF0
1C78
3C3C
783C
783E
F83E
F81E
FFFE
FFFF
F800
F800
FC00
FC00
FC00
FE02
7F06
7FFC
3FF8
0FF0
0100
ENDCHAR
STARTCHAR 0436
ENCODING 1078
SWIDTH 720 0
DWIDTH 30 0
BBX 30 19 0 0
BITMAP
3C3FF0F0
7E0FC1F8
7B0FC178
790FC278
790FC238
018FC610
008FC400
00CFCC00
007FF800
03FFFF00
03EFDF80
07EFCF80
0FCFCFC0
0FCFC7C0
1F8FC7E0
1F8FC3E0
3F0FC3F0
3F0FC1F0
FE3FF1FC
ENDCHAR
STARTCHAR 0437
ENCODING 1079
SWIDTH 408 0
DWIDTH 17 0
BBX 15 21 1 -1
BITMAP
4300
7FF0
61F8
40F8
40FC
40FC
00F8
00F8
01F0
07C0
07F0
01F8
00FC
007C
007E
007E
007C
C0FC
7FF8
3FF0
0300
ENDCHAR
STARTCHAR 0438
ENCODING 1080
SWIDTH 576 0
DWIDTH 24 0
BBX 22 19 1 0
BITMAP
FFCFFC
3F87F0
3F03E0
1F03E0
1F07E0
1F07E0
1F0FE0
1F1BE0
1F13E0
1F33E0
1F23E0
1F63E0
1FC3E0
1F83E0
1F83E0
1F03E0
3F03F0
3F87F0
FFCFFC
ENDCHAR
STARTCHAR 0439
ENCODING 1081
SWIDTH 576 0
DWIDTH 24 0
BBX 22 28 1 0
BITMAP
060180
0F03C0
0F03C0
0F03C0
078F80
01FE00
000000
000000
000000
FFCFFC
3F87F0
3F03E0
1F03E0
1F07E0
1F07E0
1F0FE0
1F1BE0
1F13E0
1F33E0
1F23E0
1F63E0
1FC3E0
1F83E0
1F83E0
1F03E0
3F03F0
3F87F0
FFCFFC
ENDCHAR
STARTCHAR 043A
ENCODING 1082
SWIDTH 576 0
DWIDTH 24 0
BBX 22 19 1 0
BITMAP
FFC0F8
3F81FC
3F037C
1F027C
1F063C
1F0418
1F0C00
1F0800
1FF000
1FFE00
1F3F00
1F1F80
1F1F80
1F0FC0
1F0FE0
1F07E0
1F03F0
3F83F8
FFC1FC
ENDCHAR
STARTCHAR 043B
ENCODING 1083
SWIDTH 552 0
DWIDTH 23 0
BBX 22 19 0 0
BITMAP
07FFFC
0183F0
0183F0
0183F0
0183F0
0183F0
0183F0
0183F0
0183F0
0183F0
0183F0
0183F0
0183F0
3183F0
7983F0
F903F0
FB03F0
7F03F0
7C0FFC
ENDCHAR
STARTCHAR 043C
ENCODING 1084
SWIDTH 672 0
DWIDTH 28 0
BBX 26 19 1 0
BITMAP
FF803FC0
3F807F00
1F807F00
1FC07F00
1FC0FF00
17E0BF00
17E1BF00
13F13F00
13F13F00
13F23F00
11FA3F00
11FE3F00
10FC3F00
10FC3F00
10783F00
10783F00
10703F00
30303F00
FC30FFC0
ENDCHAR
STARTCHAR 043D
ENCODING 1085
SWIDTH 576 0
DWIDTH 24 0
BBX 22 19 1 0
BITMAP
FFCFFC
3F87F0
3F03E0
1F03E0
1F03E0
1F03E0
1F03E0
1F03E0
1F03E0
1FFFE0
1F03E0
1F03E0
1F03E0
1F03E0
1F03E0
1F03E0
3F03F0
3F87F0
FFCFFC
ENDCHAR
STARTCHAR 043E
ENCODING 1086
SWIDTH 504 0
DWIDTH 21 0
BBX 17 21 2 -1
BITMAP
008000
0FF800
1E3C00
3C1E00
7C1F00
7C1F00
FC1F80
FC1F80
FC1F80
FC1F80
FC1F80
FC1F80
FC1F80
FC1F80
FC1F80
7C1F00
7C1F00
3C1E00
1E3C00
0FF800
008000
ENDCHAR
STARTCHAR 043F
ENCODING 1087
SWIDTH 576 0
DWIDTH 24 0
BBX 22 19 1 0
BITMAP
FFFFFC
3F03F0
3F03F0
1F03E0
1F03E0
1F03E0
1F03E0
1F03E0
1F03E0
1F03E0
1F03E0
1F03E0
1F03E0
1F03E0
1F03E0
1F03E0
3F03F0
3F87F0
FFCFFC
ENDCHAR
STARTCHAR 0440
ENCODING 1088
SWIDTH 552 0
DWIDTH 23 0
BBX 20 29 1 -9
BITMAP
000C00
FF3F80
3F7FC0
3F87E0
3F87E0
3F03F0
3F03F0
3F03F0
3F03F0
3F03F0
3F03F0
3F03F0
3F03F0
3F03F0
3F03F0
3F03F0
3F03E0
3F87E0
3FFFC0
3F7F00
3F0800
3F0000
3F0000
3F0000
3F0000
3F0000
3F0000
3F0000
FFE000
ENDCHAR
STARTCHAR 0441
ENCODING 1089
SWIDTH 456 0
DWIDTH 19 0
BBX 15 21 2 -1
BITMAP
0080
0FF8
1C7C
3C7E
783E
783E
F83E
F81C
F800
F800
F800
FC00
FC00
FC00
FE00
7E00
7F06
3FFC
1FF8
0FF0
0180
ENDCHAR
STARTCHAR 0442
ENCODING 1090
SWIDTH 480 0
DWIDTH 20 0
BBX 19 19 1 0
BITMAP
FFFFE0
E3F0E0
83F060
83F020
83F020
03F000
03F000
03F000
03F000
03F000
03F000
03F000
03F000
03F000
03F000
03F000
03F000
03F000
0FFC00
ENDCHAR
STARTCHAR 0443
ENCODING 1091
SWIDTH 504 0
DWIDTH 21 0
BBX 20 28 0 -9
BITMAP
FFC3F0
3F80E0
3F80C0
1F80C0
1F8080
0FC080
0FC180
07E100
07E300
03F200
03F200
01FE00
01FC00
01FC00
00FC00
00F800
007800
007000
003000
003000
002000
002000
384000
7C4000
7CC000
7D8000
3F0000
1E0000
ENDCHAR
STARTCHAR 0444
ENCODING 1092
SWIDTH 696 0
DWIDTH 29 0
BBX 25 37 2 -9
BITMAP
01FE0000
007E0000
007E0000
003E0000
003E0000
003E0000
003E0000
003E0000
023E2000
1FBEFC00
3FFFFE00
7E7E3E00
7C3E1F00
FC3E1F00
FC3E1F80
FC3E1F80
F83E1F80
F83E1F80
F83E1F80
F83E1F80
F83E1F80
FC3E1F80
FC3E1F80
FC3E1F00
7C3E1F00
7E7E3E00
3FFFFE00
1FBEFC00
023E2000
003E0000
003E0000
003E0000
003E0000
003E0000
003E0000
007F0000
01FF8000
ENDCHAR
STARTCHAR 0445
ENCODING 1093
SWIDTH 504 0
DWIDTH 21 0
BBX 19 19 1 0
BITMAP
FFEFC0
3F8700
1F8600
1FC400
0FCC00
0FF800
07F000
07F000
03F000
03F800
01F800
01FC00
01FC00
027E00
067E00
0C3F00
083F80
1C3F80
FE7FE0
ENDCHAR
STARTCHAR 0446
ENCODING 1094
SWIDTH 576 0
DWIDTH 24 0
BBX 22 24 1 -5
BITMAP
FFCFFC
3F87F0
3F03E0
1F03E0
1F03E0
1F03E0
1F03E0
1F03E0
1F03E0
1F03E0
1F03E0
1F03E0
1F03E0
1F03E0
1F03E0
1F03E0
3F03F0
3F87F0
FFFFFC
00003C
00001C
00000C
000004
000004
ENDCHAR
STARTCHAR 0447
ENCODING 1095
SWIDTH 576 0
DWIDTH 24 0
BBX 21 19 1 0
BITMAP
FFDFF8
3F07E0
3F07E0
3F07E0
3F07E0
3F07E0
3F07E0
3F07E0
3F07E0
1FFFE0
0FF7E0
0007E0
0007E0
0007E0
0007E0
0007E0
0007E0
0007E0
001FF8
ENDCHAR
STARTCHAR 0448
ENCODING 1096
SWIDTH 840 0
DWIDTH 35 0
BBX 33 19 1 0
BITMAP
FFCFF9FF80
3F87F0FE00
3F03F07E00
1F03E07E00
1F03E07E00
1F03E07E00
1F03E07E00
1F03E07E00
1F03E07E00
1F03E07E00
1F03E07E00
1F03E07E00
1F03E07E00
1F03E07E00
1F03E07E00
1F03E07E00
1F03E07E00
3F87F0FE00
FFFFFFFF80
ENDCHAR
STARTCHAR 0449
ENCODING 1097
SWIDTH 840 0
DWIDTH 35 0
BBX 33 24 1 -5
BITMAP
FFCFF9FF80
3F87F0FE00
3F03F07E00
1F03E07E00
1F03E07E00
1F03E07E00
1F03E07E00
1F03E07E00
1F03E07E00
1F03E07E00
1F03E07E00
1F03E07E00
1F03E07E00
1F03E07E00
1F03E07E00
1F03E07E00
1F03E07E00
3F87F0FE00
FFFFFFFF80
0000000780
0000000380
0000000180
0000000080
0000000080
ENDCHAR
STARTCHAR 044A
ENCODING 1098
SWIDTH 576 0
DWIDTH 24 0
BBX 22 19 1 0
BITMAP
FFF800
E7E000
87E000
87E000
87E000
07E000
07E000
07E000
07E000
07FFE0
07E3F0
07E1F8
07E0FC
07E0FC
07E0FC
07E0FC
07E1F8
0FE3F0
1FFF80
ENDCHAR
STARTCHAR 044B
ENCODING 1099
SWIDTH 792 0
DWIDTH 33 0
BBX 29 19 2 0
BITMAP
FF801FF8
7F0007E0
3E0007E0
3E0007E0
3E0007E0
3E0007E0
3E0007E0
3E0007E0
3E0007E0
3FFE07E0
3E1F87E0
3E0FC7E0
3E07E7E0
3E07E7E0
3E07E7E0
3E0FC7E0
3E0FC7E0
7F3F87E0
FFFC1FF8
ENDCHAR
STARTCHAR 044C
ENCODING 1100
SWIDTH 528 0
DWIDTH 22 0
BBX 19 19 2 0
BITMAP
FF8000
7F0000
7E0000
3E0000
3E0000
3E0000
3E0000
3E0000
3E0000
3FFE00
3E1F80
3E0FC0
3E07E0
3E07E0
3E07E0
3E0FC0
3E0FC0
7F3F80
FFFC00
ENDCHAR
STARTCHAR 044D
ENCODING 1101
SWIDTH 432 0
DWIDTH 18 0
BBX 16 21 1 -1
BITMAP
8300
FFE0
F0F0
E078
C07C
807E
007E
003E
003E
07FF
07FF
003F
003E
007E
007E
007E
007C
C0F8
61F0
3FE0
0300
ENDCHAR
STARTCHAR 044E
ENCODING 1102
SWIDTH 768 0
DWIDTH 32 0
BBX 28 21 2 -1
BITMAP
00003800
FF81FF00
7F03C780
7E0783C0
3E0F83E0
3E0F83E0
3E1F83F0
3E1F83F0
3E1F83F0
3E1F83F0
3FFF03F0
3E1F83F0
3E1F83F0
3E1F83F0
3E1F83F0
3E0F83E0
3E0F83E0
3E0783C0
7F03C780
FF81FF00
00001000
ENDCHAR
STARTCHAR 044F
ENCODING 1103
SWIDTH 552 0
DWIDTH 23 0
BBX 20 19 1 0
BITMAP
0FFFF0
3F8FC0
7F0FC0
7E0FC0
7E0FC0
7E0FC0
7E0FC0
7F0FC0
3F8FC0
0FFFC0
07CFC0
0FCFC0
0FCFC0
0F8FC0
1F8FC0
1F8FC0
1F0FC0
3F0FE0
FE3FF0
ENDCHAR
STARTCHAR 0451
ENCODING 1105
SWIDTH 456 0
DWIDTH 19 0
BBX 16 29 2 -1
BITMAP
1838
3C7C
7E7C
7E7C
3C7C
0010
0000
0000
0180
0FF0
1C78
3C3C
783C
783E
F83E
F81E
FFFE
FFFF
F800
F800
FC00
FC00
FC00
FE02
7F06
7FFC
3FF8
0FF0
0100
ENDCHAR
STARTCHAR 0452
ENCODING 1106
SWIDTH 528 0
DWIDTH 22 0
BBX 19 37 1 -9
BITMAP
FF0000
3F0000
3F0000
1F0000
FFFF00
1F0000
1F0000
1F0000
1F0C00
1F3F00
1F7F80
1F87C0
1F87C0
1F07E0
1F07E0
1F07E0
1F07E0
1F07E0
1F07E0
1F07E0
1F07E0
1F07E0
1F07E0
1F07E0
1F07E0
1F07E0
3F87E0
FFC7C0
0007C0
0007C0
000780
000780
000F00
000E00
000C00
003800
006000
ENDCHAR
STARTCHAR 0453
ENCODING 1107
SWIDTH 456 0
DWIDTH 19 0
BBX 17 29 1 0
BITMAP
00FE00
00FC00
00F800
01F000
01E000
01C000
038000
030000
000000
000000
FFFF80
3F0380
1F0080
1F0080
1F0080
1F0000
1F0000
1F0000
1F0000
1F0000
1F0000
1F0000
1F0000
1F0000
1F0000
1F0000
1F0000
3F8000
FFE000
ENDCHAR
STARTCHAR 0454
ENCODING 1108
SWIDTH 432 0
DWIDTH 18 0
BBX 16 21 1 -1
BITMAP
00C1
07FF
0F8F
1E07
3E03
3E01
7E00
7E00
7E00
7FE0
FFE0
7E00
7E00
7E00
7E00
7E00
3E00
1F03
0F86
07FC
0040
ENDCHAR
STARTCHAR 0455
ENCODING 1109
SWIDTH 384 0
DWIDTH 16 0
BBX 13 21 2 -1
BITMAP
0400
3FE0
70F0
F070
F030
F830
FC10
FF00
FF80
7FC0
3FE0
1FF0
0FF0
03F8
81F8
80F8
C0F0
E0F0
F0E0
FFC0
8200
ENDCHAR
STARTCHAR 0456
ENCODING 1110
SWIDTH 288 0
DWIDTH 12 0
BBX 10 28 1 0
BITMAP
1E00
3F00
3F00
3F00
3F00
1E00
0000
0000
0000
FF00
3F00
3F00
3F00
3F00
3F00
3F00
3F00
3F00
3F00
3F00
3F00
3F00
3F00
3F00
3F00
3F00
3F00
FFC0
ENDCHAR
STARTCHAR 0457
ENCODING 1111
SWIDTH 288 0
DWIDTH 12 0
BBX 13 28 -1 0
BITMAP
3070
78F8
FCF8
FCF8
78F8
0020
0000
0000
0000
3FC0
0FC0
0FC0
0FC0
0FC0
0FC0
0FC0
0FC0
0FC0
0FC0
0FC0
0FC0
0FC0
0FC0
0FC0
0FC0
0FC0
0FC0
3FF0
ENDCHAR
STARTCHAR 0458
ENCODING 1112
SWIDTH 336 0
DWIDTH 14 0
BBX 11 37 -1 -9
BITMAP
03C0
07E0
07E0
07E0
03E0
01C0
0000
0000
0000
1FE0
07E0
07E0
07E0
07E0
07E0
07E0
07E0
07E0
07E0
07E0
07E0
07E0
07E0
07E0
07E0
07E0
07E0
07E0
07E0
07E0
03E0
43E0
F3E0
F3E0
F3C0
7780
3F00
ENDCHAR
STARTCHAR 0459
ENCODING 1113
SWIDTH 792 0
DWIDTH 33 0
BBX 31 19 0 0
BITMAP
07FFFC00
0183F000
0183F000
0183F000
0183F000
0183F000
0183F000
0183F000
0183F000
0183FFF0
0183F1FC
0183F07E
0183F07E
3183F07E
7983F07E
F903F07E
FB03F0FC
7F03F9F8
7C0FFFE0
ENDCHAR
STARTCHAR 045A
ENCODING 1114
SWIDTH 792 0
DWIDTH 33 0
BBX 31 19 1 0
BITMAP
FFCFF800
3F87F000
1F03F000
1F03E000
1F03E000
1F03E000
1F03E000
1F03E000
1F03E000
1FFFFFF0
1F03E1F8
1F03E0FC
1F03E07E
1F03E07E
1F03E07E
1F03E07E
1F03F0FC
3F87F3F8
FFCFFFC0
ENDCHAR
STARTCHAR 045B
ENCODING 1115
SWIDTH 552 0
DWIDTH 23 0
BBX 20 28 2 0
BITMAP
FE0000
7E0000
7E0000
3E0000
FFFE00
3E0000
3E0000
3E0000
3E0C00
3E3F00
3EFF80
3F8FC0
3F0FC0
3E0FC0
3E0FC0
3E0FC0
3E0FC0
3E0FC0
3E0FC0
3E0FC0
3E0FC0
3E0FC0
3E0FC0
3E0FC0
3E0FC0
3E0FC0
7F0FC0
FFBFF0
ENDCHAR
STARTCHAR 045C
ENCODING 1116
SWIDTH 576 0
DWIDTH 24 0
BBX 22 29 1 0
BITMAP
001F80
001F00
003E00
003C00
003800
007000
006000
004000
000000
000000
FFC0F8
3F81FC
3F037C
1F027C
1F063C
1F0418
1F0C00
1F0800
1FF000
1FFE00
1F3F00
1F1F80
1F1F80
1F0FC0
1F0FE0
1F07E0
1F03F0
3F83F8
FFC1FC
ENDCHAR
STARTCHAR 045D
ENCODING 1117
SWIDTH 576 0
DWIDTH 24 0
BBX 22 29 1 0
BITMAP
0FC000
07E000
03E000
01E000
00F000
007000
003000
001800
000000
000000
FFCFFC
3F87F0
3F03E0
1F03E0
1F07E0
1F07E0
1F0FE0
1F1BE0
1F13E0
1F33E0
1F23E0
1F63E0
1FC3E0
1F83E0
1F83E0
1F03E0
3F03F0
3F87F0
FFCFFC
ENDCHAR
STARTCHAR 045E
ENCODING 1118
SWIDTH 504 0
DWIDTH 21 0
BBX 20 37 0 -9
BITMAP
060180
0F03C0
0F03C0
0F03C0
078780
01FE00
000000
000000
000000
FFC3F0
3F80E0
3F80C0
1F80C0
1F8080
0FC080
0FC180
07E100
07E300
03F200
03F200
01FE00
01FC00
01FC00
00FC00
00F800
007800
007000
003000
003000
002000
006000
384000
7C4000
7CC000
7D8000
3F0000
1E0000
ENDCHAR
STARTCHAR 045F
ENCODING 1119
SWIDTH 576 0
DWIDTH 24 0
BBX 22 24 1 -5
BITMAP
FFCFFC
3F87F0
3F03F0
1F03E0
1F03E0
1F03E0
1F03E0
1F03E0
1F03E0
1F03E0
1F03E0
1F03E0
1F03E0
1F03E0
1F03E0
1F03E0
1F03F0
3FC7F0
FFFFFC
00FC00
003000
003000
002000
002000
ENDCHAR
STARTCHAR 0490
ENCODING 1168
SWIDTH 528 0
DWIDTH 22 0
BBX 20 34 1 0
BITMAP
000010
000010
000010
000030
000030
000070
FFFFF0
1FFFF0
1FC000
0FC000
0FC000
0FC000
0FC000
0FC000
0FC000
0FC000
0FC000
0FC000
0FC000
0FC000
0FC000
0FC000
0FC000
0FC000
0FC000
0FC000
0FC000
0FC000
0FC000
0FC000
0FC000
0FE000
1FE000
FFFC00
ENDCHAR
STARTCHAR 0491
ENCODING 1169
SWIDTH 384 0
DWIDTH 16 0
BBX 14 22 1 1
BITMAP
0004
0004
000C
FFFC
3F00
1F00
1F00
1F00
1F00
1F00
1F00
1F00
1F00
1F00
1F00
1F00
1F00
1F00
1F00
1F00
3F80
FFC0
ENDCHAR
STARTCHAR 0492
ENCODING 1170
SWIDTH 648 0
DWIDTH 27 0
BBX 24 28 1 0
BITMAP
FFFFFF
1FFFFF
1FC00F
0FC003
0FC003
0FC001
0FC001
0FC001
0FC000
0FC000
0FC000
0FC000
0FC000
FFFF00
0FC000
0FC000
0FC000
0FC000
0FC000
0FC000
0FC000
0FC000
0FC000
0FC000
0FC000
0FE000
1FE000
FFFC00
ENDCHAR
STARTCHAR 0493
ENCODING 1171
SWIDTH 456 0
DWIDTH 19 0
BBX 17 19 1 0
BITMAP
FFFF80
3F0380
1F0080
1F0080
1F0080
1F0000
1F0000
1F0000
FFF000
1F0000
1F0000
1F0000
1F0000
1F0000
1F0000
1F0000
1F0000
3F8000
FFE000
ENDCHAR
STARTCHAR 0496
ENCODING 1174
SWIDTH 984 0
DWIDTH 41 0
BBX 40 36 1 -8
BITMAP
3E07FFE078
7F01FF01FE
FF80FE03FE
F980FE033E
F8C0FE063E
F8C0FE061E
2060FE060C
0060FE0C00
0060FE0C00
0020FE0C00
0030FE1800
0030FE1800
001CFE3000
000FFFE000
003FFFFC00
007EFE7E00
00FCFE7E00
01F8FE3F00
01F8FE3F00
03F0FE1F80
03F0FE1FC0
07E0FE0FC0
07E0FE0FE0
0FC0FE07E0
0FC0FE07F0
1F80FE03F0
3F80FF03F8
FF07FFE1FF
000000003F
000000000F
0000000007
0000000007
0000000003
0000000003
0000000003
0000000001
ENDCHAR
STARTCHAR 0497
ENCODING 1175
SWIDTH 720 0
DWIDTH 30 0
BBX 30 24 0 -5
BITMAP
3C3FF0F0
7E0FC1F8
7B0FC178
790FC278
790FC238
018FC610
008FC400
00CFCC00
007FF800
03FFFF00
03EFDF80
07EFCF80
0FCFCFC0
0FCFC7C0
1F8FC7E0
1F8FC3E0
3F0FC3F0
3F0FC1F0
FE3FF1FC
0000003C
0000000C
00000004
00000004
00000004
ENDCHAR
STARTCHAR 049A
ENCODING 1178
SWIDTH 720 0
DWIDTH 30 0
BBX 29 36 1 -8
BITMAP
FFFC03C0
3FF00FE0
1FE01FF0
0FC019F0
0FC031F0
0FC031F0
0FC020C0
0FC06000
0FC06000
0FC04000
0FC0C000
0FC0C000
0FC18000
0FFF0000
0FFFC000
0FCFE000
0FC7F000
0FC3F800
0FC3F800
0FC1FC00
0FC1FC00
0FC0FE00
0FC0FE00
0FC07F00
0FC07F80
0FE03F80
1FE01FC0
FFFC1FF8
000003F8
000000F8
00000078
00000038
00000018
00000018
00000018
00000008
ENDCHAR
STARTCHAR 049B
ENCODING 1179
SWIDTH 576 0
DWIDTH 24 0
BBX 22 24 1 -5
BITMAP
FFC0F8
3F81FC
3F037C
1F027C
1F063C
1F0418
1F0C00
1F0800
1FF000
1FFE00
1F3F00
1F1F80
1F1F80
1F0FC0
1F0FE0
1F07E0
1F03F0
3F83F8
FFC1FC
00003C
00000C
000004
000004
000004
ENDCHAR
STARTCHAR 049C
ENCODING 1180
SWIDTH 720 0
DWIDTH 30 0
BBX 29 28 1 0
BITMAP
FFFC03C0
3FF00FE0
1FE01FF0
0FC019F0
0FC031F0
0FC631F0
0FC620C0
0FC66000
0FC66000
0FC64000
0FC6C000
0FC6C000
0FC78000
0FFF0000
0FFFC000
0FCFE000
0FC7F000
0FC7F800
0FC7F800
0FC7FC00
0FC7FC00
0FC6FE00
0FC6FE00
0FC67F00
0FC07F80
0FE03F80
1FE01FC0
FFFC1FF8
ENDCHAR
STARTCHAR 049D
ENCODING 1181
SWIDTH 576 0
DWIDTH 24 0
BBX 22 19 1 0
BITMAP
FFC0F8
3F81FC
3F037C
1F227C
1F263C
1F2418
1F2C00
1F2800
1FF000
1FFE00
1F3F00
1F3F80
1F3F80
1F2FC0
1F2FE0
1F27E0
1F03F0
3F83F8
FFC1FC
ENDCHAR
STARTCHAR 04A2
ENCODING 1186
SWIDTH 768 0
DWIDTH 32 0
BBX 31 36 1 -8
BITMAP
FFFCFFFE
3FF01FF0
1FE00FE0
0FC00FE0
0FC00FE0
0FC00FE0
0FC00FE0
0FC00FE0
0FC00FE0
0FC00FE0
0FC00FE0
0FC00FE0
0FC00FE0
0FFFFFE0
0FFFFFE0
0FC00FE0
0FC00FE0
0FC00FE0
0FC00FE0
0FC00FE0
0FC00FE0
0FC00FE0
0FC00FE0
0FC00FE0
0FC00FE0
0FE00FE0
1FE00FF0
FFFCFFFE
000000FE
0000003E
0000001E
0000000E
00000006
00000006
00000002
00000002
ENDCHAR
STARTCHAR 04A3
ENCODING 1187
SWIDTH 576 0
DWIDTH 24 0
BBX 22 24 1 -5
BITMAP
FFCFFC
3F87F0
3F03E0
1F03E0
1F03E0
1F03E0
1F03E0
1F03E0
1F03E0
1FFFE0
1F03E0
1F03E0
1F03E0
1F03E0
1F03E0
1F03E0
1F03F0
3F87F0
FFCFFC
00007C
00001C
00000C
000004
000004
ENDCHAR
STARTCHAR 04AE
ENCODING 1198
SWIDTH 720 0
DWIDTH 30 0
BBX 30 28 0 0
BITMAP
FFFC07FC
3FE001F0
1FE000E0
0FE000C0
0FF000C0
07F00180
03F80100
03F80300
01FC0600
01FC0600
00FE0C00
00FF0800
007F1800
007FB000
003FB000
003FE000
001FC000
000FC000
000FC000
000FC000
000FC000
000FC000
000FC000
000FC000
000FC000
000FC000
001FE000
01FFFE00
ENDCHAR
STARTCHAR 04AF
ENCODING 1199
SWIDTH 504 0
DWIDTH 21 0
BBX 20 28 0 -9
BITMAP
FFE3F0
3F80E0
3F80C0
1F80C0
1F80C0
0FC080
0FC180
0FC180
07E100
07E300
07E200
03F200
03F600
03F400
01FC00
01FC00
01F800
00F800
00F800
00F800
00F800
00F800
00F800
00F800
00F800
00F800
01FC00
07FF00
ENDCHAR
STARTCHAR 04B0
ENCODING 1200
SWIDTH 720 0
DWIDTH 30 0
BBX 30 28 0 0
BITMAP
FFFC07FC
3FE001F0
1FE000E0
0FE000C0
0FF000C0
07F00180
03F80100
03F80300
01FC0600
01FC0600
00FE0C00
00FF0800
007F1800
007FB000
003FB000
003FE000
001FC000
000FC000
07FFFF80
07FFFF80
000FC000
000FC000
000FC000
000FC000
000FC000
000FC000
001FE000
01FFFE00
ENDCHAR
STARTCHAR 04B1
ENCODING 1201
SWIDTH 504 0
DWIDTH 21 0
BBX 20 28 0 -9
BITMAP
FFE3F0
3F80E0
3F80C0
1F80C0
1F80C0
0FC080
0FC180
0FC180
07E100
07E300
07E200
03F200
03F600
03F400
01FC00
01FC00
01F800
FFF800
FFFFF0
00F800
00F800
00F800
00F800
00F800
00F800
00F800
01FC00
07FF00
ENDCHAR
STARTCHAR 04B2
ENCODING 1202
SWIDTH 720 0
DWIDTH 30 0
BBX 30 36 0 -8
BITMAP
7FFE1FF8
3FF007E0
1FF00380
0FF00380
07F80700
07F80600
03FC0C00
01FE1800
01FE3000
00FF3000
007FE000
003FC000
003FC000
001FE000
000FE000
000FF000
000FF800
001BF800
0033FC00
0061FE00
00C0FE00
00C0FF00
01807F80
03003FC0
06003FC0
0E001FE0
1F001FF0
FFE0FFFC
000001FC
0000007C
0000001C
0000001C
0000000C
0000000C
00000004
00000004
ENDCHAR
STARTCHAR 04B3
ENCODING 1203
SWIDTH 504 0
DWIDTH 21 0
BBX 19 24 1 -5
BITMAP
FFEFC0
3F8700
1F8600
1FC400
0FCC00
0FF800
07F000
07F000
03F000
03F800
01F800
01FC00
01FC00
027E00
067E00
0C3F00
083F80
3C3F80
FE7FE0
0001E0
000060
000020
000020
000020
ENDCHAR
STARTCHAR 04B8
ENCODING 1208
SWIDTH 744 0
DWIDTH 31 0
BBX 30 28 0 0
BITMAP
FFFCFFFC
1FF03FE0
0FE01FC0
0FE01FC0
0FE01FC0
0FE01FC0
0FE31FC0
0FE31FC0
0FE31FC0
0FE31FC0
0FE31FC0
0FE31FC0
0FE31FC0
0FE31FC0
0FF37FC0
07FFFFC0
03FF9FC0
00FB1FC0
00031FC0
00031FC0
00031FC0
00031FC0
00001FC0
00001FC0
00001FC0
00001FC0
00001FE0
0001FFFC
ENDCHAR
STARTCHAR 04B9
ENCODING 1209
SWIDTH 576 0
DWIDTH 24 0
BBX 21 19 1 0
BITMAP
FFDFF8
3F07E0
3F07E0
3F07E0
3F27E0
3F27E0
3F27E0
3F27E0
3F27E0
1FFFE0
0FF7E0
0027E0
0027E0
0027E0
0027E0
0007E0
0007E0
0007E0
001FF8
ENDCHAR
STARTCHAR 04BA
ENCODING 1210
SWIDTH 744 0
DWIDTH 31 0
BBX 29 28 1 0
BITMAP
FFFC0000
1FF00000
0FE00000
0FC00000
0FC00000
0FC00000
0FC00000
0FC00000
0FC00000
0FC00000
0FC00000
0FC3FE00
0FCFFF00
0FFEFF80
0FE03F80
0FC01FC0
0FC01FC0
0FC01FC0
0FC01FC0
0FC01FC0
0FC01FC0
0FC01FC0
0FC01FC0
0FC01FC0
0FC01FC0
0FC01FC0
1FE03FC0
FFF8FFF8
ENDCHAR
STARTCHAR 04BB
ENCODING 1211
SWIDTH 552 0
DWIDTH 23 0
BBX 21 28 1 0
BITMAP
FF0000
3F0000
3F0000
3F0000
3F0000
3F0000
3F0000
3F0000
3F0400
3F3F80
3F7FC0
3FCFC0
3F87E0
3F07E0
3F07E0
3F07E0
3F07E0
3F07E0
3F07E0
3F07E0
3F07E0
3F07E0
3F07E0
3F07E0
3F07E0
3F07E0
3F87E0
FFDFF8
ENDCHAR
STARTCHAR 04D8
ENCODING 1240
SWIDTH 744 0
DWIDTH 31 0
BBX 27 29 2 -1
BITMAP
107FC000
1BFFF800
1F00FC00
1C007E00
1C003F00
18003F80
10001F80
10001FC0
10001FC0
00000FE0
00000FE0
00000FE0
00000FE0
FFFFFFE0
FFFFFFE0
FE000FE0
FE000FE0
FE000FE0
FE000FE0
FE000FC0
7E000FC0
7E001FC0
3F001F80
3F001F00
1F003E00
0F807C00
07E0F800
01FFE000
001E0000
ENDCHAR
STARTCHAR 04D9
ENCODING 1241
SWIDTH 456 0
DWIDTH 19 0
BBX 16 21 1 -1
BITMAP
0180
0FF0
1FF8
3FFC
60FE
407E
007F
003F
003F
003F
001F
FFFF
FFFF
F81F
781E
781E
7C3C
3C3C
1C78
0FE0
0100
ENDCHAR
STARTCHAR 04E8
ENCODING 1256
SWIDTH 768 0
DWIDTH 32 0
BBX 29 29 2 -1
BITMAP
003FE000
01F8FC00
03E03E00
0FC01F00
1F800F80
3F000FC0
3F0007E0
7F0007F0
7E0007F0
FE0007F0
FE0007F8
FE0003F8
FE0003F8
FFFFFFF8
FFFFFFF8
FE0003F8
FE0003F8
FE0007F8
FE0007F0
7E0007F0
7F0007F0
7F0007E0
3F000FC0
1F800FC0
0F801F80
07C03F00
03F07C00
00FFF000
00070000
ENDCHAR
STARTCHAR 04E9
ENCODING 1257
SWIDTH 504 0
DWIDTH 21 0
BBX 17 21 2 -1
BITMAP
008000
0FF800
1E3C00
3C1E00
7C1F00
7C1F00
FC1F80
FC1F80
FC1F80
F81F80
FFFF80
F81F80
FC1F80
FC1F80
FC1F80
FC1F00
7C1F00
3C1E00
1E3C00
0FF800
018000
ENDCHAR
STARTCHAR 05B0
ENCODING 1456
SWIDTH 336 0
DWIDTH 14 0
BBX 4 8 5 -9
BITMAP
60
F0
E0
00
00
E0
F0
60
ENDCHAR
STARTCHAR 05B1
ENCODING 1457
SWIDTH 336 0
DWIDTH 14 0
BBX 12 8 1 -9
BITMAP
C670
EF70
EE70
0000
0000
3870
3870
3870
ENDCHAR
STARTCHAR 05B2
ENCODING 1458
SWIDTH 336 0
DWIDTH 14 0
BBX 12 8 1 -9
BITMAP
FE60
FE70
0070
0000
0000
0070
00F0
0060
ENDCHAR
STARTCHAR 05B3
ENCODING 1459
SWIDTH 336 0
DWIDTH 14 0
BBX 14 8 0 -9
BITMAP
FF18
FF3C
0838
0800
1C00
1C38
1C3C
0018
ENDCHAR
STARTCHAR 05B4
ENCODING 1460
SWIDTH 336 0
DWIDTH 14 0
BBX 4 3 5 -6
BITMAP
60
F0
E0
ENDCHAR
STARTCHAR 05B5
ENCODING 1461
SWIDTH 336 0
DWIDTH 14 0
BBX 8 3 3 -6
BITMAP
E6
E7
E7
ENDCHAR
STARTCHAR 05B6
ENCODING 1462
SWIDTH 336 0
DWIDTH 14 0
BBX 8 8 3 -9
BITMAP
E6
E7
E7
00
00
38
3C
18
ENDCHAR
STARTCHAR 05B7
ENCODING 1463
SWIDTH 336 0
DWIDTH 14 0
BBX 8 2 3 -5
BITMAP
FF
FF
ENDCHAR
STARTCHAR 05B8
ENCODING 1464
SWIDTH 336 0
DWIDTH 14 0
BBX 8 7 3 -9
BITMAP
FF
FF
18
18
3C
3C
18
ENDCHAR
STARTCHAR 05B9
ENCODING 1465
SWIDTH 336 0
DWIDTH 14 0
BBX 4 3 5 24
BITMAP
60
F0
E0
ENDCHAR
STARTCHAR 05BA
ENCODING 1466
SWIDTH 336 0
DWIDTH 14 0
BBX 4 3 5 24
BITMAP
60
F0
E0
ENDCHAR
STARTCHAR 05BB
ENCODING 1467
SWIDTH 336 0
DWIDTH 14 0
BBX 12 8 1 -9
BITMAP
C000
E000
E600
0F00
0F00
0670
0070
0070
ENDCHAR
STARTCHAR 05BC
ENCODING 1468
SWIDTH 336 0
DWIDTH 14 0
BBX 4 3 5 10
BITMAP
F0
F0
60
ENDCHAR
STARTCHAR 05BD
ENCODING 1469
SWIDTH 336 0
DWIDTH 14 0
BBX 2 7 6 -9
BITMAP
C0
C0
C0
C0
C0
C0
C0
ENDCHAR
STARTCHAR 05BE
ENCODING 1470
SWIDTH 360 0
DWIDTH 15 0
BBX 11 7 2 14
BITMAP
FFE0
FFE0
FFE0
FFE0
FFE0
FFE0
FFE0
ENDCHAR
STARTCHAR 05BF
ENCODING 1471
SWIDTH 336 0
DWIDTH 14 0
BBX 8 2 3 25
BITMAP
FF
FF
ENDCHAR
STARTCHAR 05C0
ENCODING 1472
SWIDTH 336 0
DWIDTH 14 0
BBX 4 26 5 -2
BITMAP
F0
F0
F0
F0
F0
F0
F0
F0
F0
F0
F0
F0
F0
F0
F0
F0
F0
F0
F0
F0
F0
F0
F0
F0
F0
F0
ENDCHAR
STARTCHAR 05C1
ENCODING 1473
SWIDTH 336 0
DWIDTH 14 0
BBX 3 3 14 24
BITMAP
60
E0
E0
ENDCHAR
STARTCHAR 05C2
ENCODING 1474
SWIDTH 336 0
DWIDTH 14 0
BBX 3 3 -3 24
BITMAP
60
E0
E0
ENDCHAR
STARTCHAR 05C3
ENCODING 1475
SWIDTH 336 0
DWIDTH 14 0
BBX 6 22 4 -1
BITMAP
70
FC
FC
FC
FC
FC
30
00
00
00
00
00
00
00
00
00
78
FC
FC
FC
FC
F8
ENDCHAR
STARTCHAR 05D0
ENCODING 1488
SWIDTH 528 0
DWIDTH 22 0
BBX 20 24 1 -1
BITMAP
100800
301F00
781FE0
7C1FE0
7E1FE0
7F1FF0
7F8FE0
3FC7E0
3FE380
1FF300
0FFB00
1BFF00
39FF00
70FF00
787F80
783FC0
7C1FE0
7E0FE0
7F07F0
7F83F0
7F81E0
7F80E0
FF00C0
000080
ENDCHAR
STARTCHAR 05D1
ENCODING 1489
SWIDTH 456 0
DWIDTH 19 0
BBX 18 23 1 0
BITMAP
200000
780000
7FF800
7FFC00
7FFE00
7FFE00
7FFE00
3FFE00
0FFE00
000E00
000600
000600
000600
000600
000600
000600
7FFFC0
7FFF80
7FFF80
7FFF80
FFFF80
FFFF00
FFFF00
ENDCHAR
STARTCHAR 05D2
ENCODING 1490
SWIDTH 360 0
DWIDTH 15 0
BBX 14 23 1 0
BITMAP
1000
3E00
3FC0
3FE0
3FE0
3FE0
3FE0
1FE0
03C0
00C0
00C0
00C0
00C0
00E0
00F0
03F8
7F78
7F7C
7F3C
FE3C
FE38
FC18
FC18
ENDCHAR
STARTCHAR 05D3
ENCODING 1491
SWIDTH 456 0
DWIDTH 19 0
BBX 17 23 1 0
BITMAP
400000
700000
7FFF80
FFFF80
FFFF80
FFFF80
7FFF80
7FFF80
0FFE00
001C00
001800
003000
003000
007000
007000
007800
007800
007800
007800
007800
007800
007000
006000
ENDCHAR
STARTCHAR 05D4
ENCODING 1492
SWIDTH 504 0
DWIDTH 21 0
BBX 18 23 2 0
BITMAP
400000
F00000
FFFFC0
FFFFC0
FFFFC0
FFFFC0
FFFFC0
7FFFC0
0FFF80
000300
000300
000700
000700
3C0700
780700
F00700
F00700
F00780
F00780
F00700
F00700
F00700
E00600
ENDCHAR
STARTCHAR 05D5
ENCODING 1493
SWIDTH 288 0
DWIDTH 12 0
BBX 9 23 1 0
BITMAP
4000
7800
FF00
FF80
FF80
FF80
7F80
3F80
0F80
0380
0180
0180
0180
0180
0180
0180
0180
0180
0180
0180
0180
0180
0180
ENDCHAR
STARTCHAR 05D6
ENCODING 1494
SWIDTH 312 0
DWIDTH 13 0
BBX 11 23 1 0
BITMAP
4000
7C00
FFC0
FFE0
FFE0
FFE0
7FE0
3FE0
0FC0
0600
0C00
0C00
0E00
0E00
0E00
0E00
0F00
0F00
0F00
0F00
0F00
0E00
0C00
ENDCHAR
STARTCHAR 05D7
ENCODING 1495
SWIDTH 504 0
DWIDTH 21 0
BBX 19 23 1 0
BITMAP
200000
700000
7FFFE0
FFFFE0
FFFFE0
FFFFE0
7FFFE0
7FFFC0
0FFF80
1C0180
180300
380300
380300
380700
780780
780780
780780
780780
780780
780780
780780
700700
600600
ENDCHAR
STARTCHAR 05D8
ENCODING 1496
SWIDTH 528 0
DWIDTH 22 0
BBX 19 23 1 0
BITMAP
400000
780300
FE07C0
FF0FC0
FF1FE0
FF9FE0
7F9FE0
7F1FE0
1E18E0
183060
183060
180060
180060
180060
380060
380060
1FFFE0
1FFFE0
1FFFC0
1FFFC0
1FFFC0
1FFFC0
0FFF80
ENDCHAR
STARTCHAR 05D9
ENCODING 1497
SWIDTH 312 0
DWIDTH 13 0
BBX 10 15 1 8
BITMAP
4000
7800
FF80
FFC0
FFC0
FFC0
7FC0
7FC0
0FC0
00C0
00C0
00C0
00C0
0180
0300
ENDCHAR
STARTCHAR 05DA
ENCODING 1498
SWIDTH 456 0
DWIDTH 19 0
BBX 17 30 1 -7
BITMAP
400000
700000
FFFF00
FFFF80
FFFF80
FFFF80
7FFF80
7FFF00
0FFE00
000E00
000E00
000E00
000E00
000E00
000E00
000E00
000E00
000E00
000E00
000E00
000E00
000E00
000E00
000E00
000E00
000E00
000E00
000E00
000E00
000C00
ENDCHAR
STARTCHAR 05DB
ENCODING 1499
SWIDTH 456 0
DWIDTH 19 0
BBX 16 23 1 0
BITMAP
2000
7800
7FF0
7FFC
7FFC
7FFE
7FFE
3FFE
0FFF
0007
0003
0003
0003
0003
0003
000F
7FFF
7FFE
7FFE
7FFE
FFFC
FFF8
FFE0
ENDCHAR
STARTCHAR 05DC
ENCODING 1500
SWIDTH 432 0
DWIDTH 18 0
BBX 17 31 -1 0
BITMAP
600000
780000
FC0000
FE0000
7C0000
1C0000
0C0000
080000
180000
1C0000
3FFF00
3FFF80
3FFF80
3FFF80
3FFF80
1FFF80
07FF80
000180
000180
000180
000180
000300
000700
000E00
001C00
003800
007000
00F000
00F000
00F000
00E000
ENDCHAR
STARTCHAR 05DD
ENCODING 1501
SWIDTH 504 0
DWIDTH 21 0
BBX 17 23 2 0
BITMAP
400000
E00000
FFFE00
FFFF00
FFFF80
FFFF80
FFFF80
7FFF80
1FFF80
380380
300180
700180
E00180
E00180
E00180
E00180
FFFF80
FFFF80
FFFF80
FFFF80
FFFF80
FFFF80
FFFF80
ENDCHAR
STARTCHAR 05DE
ENCODING 1502
SWIDTH 528 0
DWIDTH 22 0
BBX 20 23 1 0
BITMAP
400000
780800
FE0E00
FF1F00
FF1F80
FF3FC0
7F7FC0
3FFFE0
0FFFE0
0381E0
0700E0
0E0070
0C0070
180030
380020
300020
307FE0
70FFE0
70FFE0
70FFE0
70FFE0
71FFC0
71FFC0
ENDCHAR
STARTCHAR 05DF
ENCODING 1503
SWIDTH 336 0
DWIDTH 14 0
BBX 11 30 1 -7
BITMAP
4000
7E00
FF80
FFC0
FFE0
FFE0
7FE0
3FE0
03E0
00C0
00C0
0180
0180
0180
0180
01C0
01C0
01C0
01C0
01C0
01C0
01E0
01E0
01E0
01E0
01E0
01C0
01C0
01C0
0180
ENDCHAR
STARTCHAR 05E0
ENCODING 1504
SWIDTH 312 0
DWIDTH 13 0
BBX 10 23 1 0
BITMAP
2000
7C00
7FC0
7FC0
7FC0
7FC0
7FC0
3FC0
07C0
0180
0180
0180
0180
01C0
01C0
00C0
7FC0
7FC0
7FC0
FFC0
FFC0
FFC0
FFC0
ENDCHAR
STARTCHAR 05E1
ENCODING 1505
SWIDTH 480 0
DWIDTH 20 0
BBX 17 24 1 -1
BITMAP
200000
700000
7FFE00
7FFE00
FFFF00
FFFF00
7FFF80
7FFF80
1FFF80
300380
300180
700180
700180
700180
700180
780380
7FFF80
7FFF80
3FFF00
3FFF00
1FFF00
0FFE00
07FC00
00C000
ENDCHAR
STARTCHAR 05E2
ENCODING 1506
SWIDTH 504 0
DWIDTH 21 0
BBX 19 24 1 -1
BITMAP
400800
781C00
FF1FC0
FF1FE0
FF9FE0
FF9FE0
7F9FE0
3F8FC0
0C01C0
080180
1E0180
1F0180
1F8300
0F8300
038700
018F00
03FF00
7FFF00
7FFF00
7FFF00
7FFE00
FFFC00
FFF800
FE0000
ENDCHAR
STARTCHAR 05E3
ENCODING 1507
SWIDTH 504 0
DWIDTH 21 0
BBX 18 30 1 -7
BITMAP
400000
700000
FFFE00
FFFF00
FFFF80
FFFF80
7FFF80
7FFF80
1FFF80
180380
100380
380180
380180
3F0180
3F8180
3F8180
3F8180
3F0180
2001C0
0001C0
0001C0
0001C0
0001C0
0001C0
0001C0
0001C0
0001C0
0001C0
000180
000100
ENDCHAR
STARTCHAR 05E4
ENCODING 1508
SWIDTH 456 0
DWIDTH 19 0
BBX 16 23 1 0
BITMAP
2000
7800
7FF8
7FFC
7FFE
7FFE
7FFF
3FFF
1FFF
3003
3803
3F03
3F03
3E03
0003
0007
7FFF
7FFF
7FFE
7FFE
FFFC
FFF8
FFE0
ENDCHAR
STARTCHAR 05E5
ENCODING 1509
SWIDTH 576 0
DWIDTH 24 0
BBX 21 30 1 -7
BITMAP
400400
780F00
FF8FF0
FFCFF8
FFCFF8
FFCFF8
7FCFF8
3F87F8
0781E0
038300
010E00
031C00
033800
037000
03E000
03C000
03C000
038000
038000
038000
038000
038000
03C000
03C000
03C000
03C000
038000
038000
030000
020000
ENDCHAR
STARTCHAR 05E6
ENCODING 1510
SWIDTH 504 0
DWIDTH 21 0
BBX 19 23 1 0
BITMAP
401000
781F00
FF1FC0
FF3FE0
FF3FE0
FF1FE0
7F1FE0
3F0FE0
038300
018600
01C600
01EC00
00FC00
007C00
003E00
001F00
3FFFC0
3FFFC0
7FFFC0
7FFFC0
7FFFC0
7FFFC0
7FFF80
ENDCHAR
STARTCHAR 05E7
ENCODING 1511
SWIDTH 480 0
DWIDTH 20 0
BBX 17 30 1 -7
BITMAP
200000
700000
7FFF00
FFFF80
FFFF80
FFFF80
7FFF80
3FFF80
0FFF80
000180
000180
000180
300180
300300
700E00
701C00
703800
707000
70E000
71E000
71C000
71E000
71C000
700000
700000
700000
700000
700000
700000
600000
ENDCHAR
STARTCHAR 05E8
ENCODING 1512
SWIDTH 456 0
DWIDTH 19 0
BBX 16 23 1 0
BITMAP
4000
7000
FFFC
FFFE
FFFF
FFFF
7FFF
7FFF
0FFF
0007
0003
0003
0003
0003
0003
0003
0003
0003
0003
0003
0003
0003
0003
ENDCHAR
STARTCHAR 05E9
ENCODING 1513
SWIDTH 696 0
DWIDTH 29 0
BBX 27 23 1 0
BITMAP
40200C00
F83C0E00
FE3F1F80
FF3F9FC0
FF3F9FC0
FF3FDFE0
7F3F9FE0
7F1F8FC0
1E0F07C0
180C0380
180C0300
18180300
18180600
38380E00
38300C00
1C601C00
1FFFFC00
1FFFF800
1FFFF800
1FFFF800
1FFFF800
1FFFF800
1FFFF000
ENDCHAR
STARTCHAR 05EA
ENCODING 1514
SWIDTH 528 0
DWIDTH 22 0
BBX 18 23 1 0
BITMAP
100000
3C0000
3FFF80
3FFF80
3FFFC0
3FFFC0
3FFFC0
1FFFC0
07FFC0
0301C0
0600C0
0600C0
0E00C0
0E00C0
0E00C0
0E00C0
7E00C0
7F00C0
FF00C0
FF00C0
FF00C0
FF00C0
FE00C0
ENDCHAR
STARTCHAR 05F0
ENCODING 1520
SWIDTH 600 0
DWIDTH 25 0
BBX 22 23 1 0
BITMAP
400200
780780
FF07F8
FF87F8
FF87FC
FF87FC
7F87FC
3F83FC
0F807C
03801C
01801C
01801C
01801C
01801C
01801C
01801C
01801C
01801C
01801C
01801C
01801C
01801C
018018
ENDCHAR
STARTCHAR 05F1
ENCODING 1521
SWIDTH 600 0
DWIDTH 25 0
BBX 22 23 1 0
BITMAP
400200
7803C0
FF87F8
FFC7FC
FFC7FC
FFC7FC
7FC3FC
7FC1FC
0FC07C
00C01C
00C00C
00C00C
00C00C
01800C
03000C
00000C
00000C
00000C
00000C
00000C
00000C
00000C
00000C
ENDCHAR
STARTCHAR 05F2
ENCODING 1522
SWIDTH 624 0
DWIDTH 26 0
BBX 23 15 1 8
BITMAP
400200
7807C0
FF87FC
FFC7FE
FFC7FE
FFC7FE
7FC3FE
7FC3FE
0FC07E
00C006
00C006
00C006
00C006
01800C
030018
ENDCHAR
STARTCHAR 05F3
ENCODING 1523
SWIDTH 264 0
DWIDTH 11 0
BBX 6 13 3 9
BITMAP
78
7C
FC
F8
F8
F8
F0
F0
E0
E0
C0
C0
80
ENDCHAR
STARTCHAR 05F4
ENCODING 1524
SWIDTH 456 0
DWIDTH 19 0
BBX 14 13 3 9
BITMAP
783C
7C7C
FC7C
F87C
F87C
F878
F078
F070
E070
E0E0
C0E0
C0C0
80C0
ENDCHAR
STARTCHAR 060C
ENCODING 1548
SWIDTH 312 0
DWIDTH 13 0
BBX 7 12 3 6
BITMAP
08
18
30
60
60
60
70
FC
7E
7E
7E
3C
ENDCHAR
STARTCHAR 061B
ENCODING 1563
SWIDTH 312 0
DWIDTH 13 0
BBX 7 19 3 6
BITMAP
08
38
30
60
40
C0
F0
FC
FE
7E
7E
3C
00
00
00
3C
3C
3C
3C
ENDCHAR
STARTCHAR 061F
ENCODING 1567
SWIDTH 360 0
DWIDTH 15 0
BBX 13 24 1 6
BITMAP
0300
1FE0
3870
7030
70F8
F8F8
F9F0
FCF0
7C60
7E00
3E00
1E00
0E00
0700
0300
0300
0200
0000
0000
0700
0F80
0F80
0F80
0700
ENDCHAR
STARTCHAR 0621
ENCODING 1569
SWIDTH 480 0
DWIDTH 20 0
BBX 14 19 3 2
BITMAP
0F80
1FE0
3FE0
3FE0
7FC0
71C0
F080
F00C
FC7C
FFFC
FFF8
7FF8
3FE0
3F00
3C00
7800
7000
E000
C000
ENDCHAR
STARTCHAR 0622
ENCODING 1570
SWIDTH 240 0
DWIDTH 10 0
BBX 10 30 0 5
BITMAP
2000
FCC0
1F80
0000
0000
0800
0C00
0C00
1C00
1C00
1C00
1C00
1E00
1E00
0E00
0E00
0E00
0E00
0E00
0E00
0E00
0F00
0700
0700
0600
0600
0600
0600
0C00
0C00
ENDCHAR
STARTCHAR 0623
ENCODING 1571
SWIDTH 216 0
DWIDTH 9 0
BBX 6 31 2 6
BITMAP
38
40
60
78
E0
00
20
30
30
70
70
70
70
78
78
38
38
38
38
38
38
3C
3C
1C
1C
1C
18
18
18
10
30
ENDCHAR
STARTCHAR 0624
ENCODING 1572
SWIDTH 456 0
DWIDTH 19 0
BBX 19 31 0 -3
BITMAP
004000
01C000
020000
030000
01E000
030000
000000
000000
000780
000F80
000FC0
001FC0
001FE0
0039E0
0038E0
0038E0
003FE0
003FE0
003FE0
001FE0
001FE0
0003E0
0001E0
0003C0
0007C0
E00F80
787F80
1FFF00
0FFE00
03FC00
00F000
ENDCHAR
STARTCHAR 0625
ENCODING 1573
SWIDTH 216 0
DWIDTH 9 0
BBX 6 34 2 -3
BITMAP
20
30
30
70
70
70
70
78
78
38
38
38
38
38
38
38
3C
1C
1C
18
18
18
18
30
30
00
00
00
38
70
40
78
70
80
ENDCHAR
STARTCHAR 0626
ENCODING 1574
SWIDTH 648 0
DWIDTH 27 0
BBX 21 26 3 -3
BITMAP
080000
1C0000
200000
300000
3C00F0
6001F8
0003F8
0007F8
000FF8
080E18
101C00
301800
203800
603FF0
603FF0
401FF0
C00FF0
C00030
C000E0
E003E0
F01FC0
FFFFC0
7FFF00
7FFC00
3FF000
020000
ENDCHAR
STARTCHAR 0627
ENCODING 1575
SWIDTH 216 0
DWIDTH 9 0
BBX 5 25 3 6
BITMAP
40
60
60
E0
E0
E0
E0
F0
F0
70
70
70
70
70
70
70
78
38
38
30
30
30
30
60
60
ENDCHAR
STARTCHAR 0628
ENCODING 1576
SWIDTH 648 0
DWIDTH 27 0
BBX 26 23 1 -3
BITMAP
30000100
20000180
60000180
600003C0
400003C0
E00001C0
E00001C0
F00000C0
FF8000C0
FFFFFFC0
7FFFFFC0
7FFFFFC0
3FFFFFC0
0FFFFFC0
00000000
00000000
00060000
000F8000
000FC000
001F8000
001F8000
00070000
00010000
ENDCHAR
STARTCHAR 0629
ENCODING 1577
SWIDTH 336 0
DWIDTH 14 0
BBX 12 27 1 5
BITMAP
0100
0380
23E0
7FC0
7F80
F980
7800
1000
0000
0000
0000
0C00
1F00
1F80
3FC0
1FE0
37E0
33F0
21F0
60F0
60F0
7FE0
7FE0
7FE0
7FC0
3F00
1C00
ENDCHAR
STARTCHAR 062A
ENCODING 1578
SWIDTH 648 0
DWIDTH 27 0
BBX 26 21 1 6
BITMAP
00018000
0023C000
003BC000
007FC000
007F8000
00788000
00380000
30000100
20000180
60000180
600003C0
400003C0
E00001C0
E00001C0
F00000C0
FF8000C0
FFFFFFC0
7FFFFFC0
7FFFFFC0
3FFFFFC0
0FFFFFC0
ENDCHAR
STARTCHAR 062B
ENCODING 1579
SWIDTH 648 0
DWIDTH 27 0
BBX 26 26 1 6
BITMAP
00100000
003C0000
003E0000
007C0000
003C0000
00190000
0003C000
0033C000
007FC000
007F8000
00F88000
00380000
30000100
20000180
60000380
600003C0
600003C0
E00001C0
E00001C0
F00000C0
FFFFFFC0
7FFFFFC0
7FFFFFC0
7FFFFFC0
3FFFFFC0
0FFFFFC0
ENDCHAR
STARTCHAR 062C
ENCODING 1580
SWIDTH 576 0
DWIDTH 24 0
BBX 22 30 1 -8
BITMAP
07FC00
1FFFF0
3FFFF0
7FFFF0
7FFFE0
7FFFE0
C3FE00
07E000
0F8000
1E0000
1C0000
380000
301000
701C00
603E00
607F00
607E00
603E00
E00C00
F00000
700000
780000
7C0000
7F0000
7FE000
3FFFFC
1FFFF8
0FFFE0
07FFC0
01FF00
ENDCHAR
STARTCHAR 062D
ENCODING 1581
SWIDTH 576 0
DWIDTH 24 0
BBX 22 30 1 -8
BITMAP
07FC00
1FFFF0
3FFFF0
7FFFF0
7FFFE0
7FFFE0
C3FE00
07E000
0F8000
1E0000
1C0000
380000
300000
700000
600000
600000
600000
600000
E00000
F00000
700000
780000
7C0000
7F0000
7FE000
3FFFFC
1FFFF8
0FFFE0
07FFC0
01FF00
ENDCHAR
STARTCHAR 062E
ENCODING 1582
SWIDTH 576 0
DWIDTH 24 0
BBX 22 39 1 -8
BITMAP
00C000
00F000
01F800
01F800
03F000
00F000
002000
000000
000000
07FC00
1FFFF0
3FFFF0
7FFFF0
7FFFE0
7FFFE0
C3FE00
07E000
0F8000
1E0000
1C0000
380000
300000
700000
600000
600000
600000
600000
E00000
F00000
700000
780000
7C0000
7F0000
7FE000
3FFFFC
1FFFF8
0FFFE0
07FFC0
01FF00
ENDCHAR
STARTCHAR 062F
ENCODING 1583
SWIDTH 336 0
DWIDTH 14 0
BBX 12 19 2 6
BITMAP
0100
0180
01C0
01E0
03E0
03E0
01F0
00F0
0070
0070
0030
0030
8030
E030
FFF0
FFF0
FFF0
FFF0
7FF0
ENDCHAR
STARTCHAR 0630
ENCODING 1584
SWIDTH 336 0
DWIDTH 14 0
BBX 12 29 2 6
BITMAP
0C00
1E00
1F80
3F00
3F00
0E00
0200
0000
0000
0000
0100
0180
01C0
01E0
03E0
03E0
01F0
00F0
0070
0070
0030
0030
8030
E030
FFF0
FFF0
FFF0
FFF0
7FF0
ENDCHAR
STARTCHAR 0631
ENCODING 1585
SWIDTH 432 0
DWIDTH 18 0
BBX 18 22 0 -3
BITMAP
000100
000180
000180
000380
0003C0
0003C0
0001C0
0000C0
0000C0
0000C0
0000C0
0000C0
0001C0
0003C0
0007C0
000F80
401F80
E07F00
3FFE00
1FFC00
07F800
01E000
ENDCHAR
STARTCHAR 0632
ENCODING 1586
SWIDTH 432 0
DWIDTH 18 0
BBX 18 32 0 -3
BITMAP
000800
001E00
001F80
003F80
003F00
001E00
000600
000000
000000
000000
000100
000180
000180
000380
0003C0
0003C0
0001C0
0000C0
0000C0
0000C0
0000C0
0000C0
0001C0
0003C0
0007C0
000F80
401F80
E07F00
3FFE00
1FFC00
07F800
01E000
ENDCHAR
STARTCHAR 0633
ENCODING 1587
SWIDTH 888 0
DWIDTH 37 0
BBX 36 22 1 -3
BITMAP
0000100010
0000100010
0000380630
0C00380670
0C00380670
1800780630
10003C0E30
30001DFFF0
20001FFFF0
60001FFFF0
60000FFFF0
60000FFFF0
E0000FF0F0
E0001C0000
F000380000
F800780000
7F87F80000
7FFFF80000
7FFFF00000
3FFFE00000
0FFF800000
0070000000
ENDCHAR
STARTCHAR 0634
ENCODING 1588
SWIDTH 888 0
DWIDTH 37 0
BBX 36 35 1 -3
BITMAP
0000001800
0000003C00
0000003C00
0000007C00
0000003C00
0000000980
00000023E0
0000003BC0
0000007FC0
0000007B80
0000007880
0000001000
0000000000
0000100010
0000100010
0000380630
0C00380670
0C00380670
1800780630
10003C0E30
30001DFFF0
20001FFFF0
60001FFFF0
60000FFFF0
60000FFFF0
E0000FF0F0
E0001C0000
F000380000
F800780000
7F87F80000
7FFFF80000
7FFFF00000
3FFFE00000
0FFF800000
0070000000
ENDCHAR
STARTCHAR 0635
ENCODING 1589
SWIDTH 1056 0
DWIDTH 44 0
BBX 43 24 1 -3
BITMAP
000000000F00
000000003FC0
000010007FC0
00001001FFE0
00003803FFE0
0C003807FFE0
0C00381F80E0
1800783E0060
10003CFC00E0
30001FF03FE0
20001FFFFFE0
60001FFFFFE0
60000FFFFFE0
60000FFFFFE0
E0000FFFFFE0
E0001C000000
F00038000000
F80078000000
7F87F8000000
7FFFF8000000
7FFFF0000000
3FFFE0000000
0FFF80000000
007000000000
ENDCHAR
STARTCHAR 0636
ENCODING 1590
SWIDTH 1056 0
DWIDTH 44 0
BBX 43 33 1 -3
BITMAP
0000000C0000
0000001E0000
0000003F8000
0000003F0000
0000003E0000
0000000E0000
000000000000
000000000000
000000000000
000000000F00
000000003FC0
000010007FC0
00001001FFE0
00003803FFE0
0C003807FFE0
0C00381F80E0
1800783E0060
10003CFC00E0
30001FF03FE0
20001FFFFFE0
60001FFFFFE0
60000FFFFFE0
60000FFFFFE0
E0000FFFFFE0
E0001C000000
F00038000000
F80078000000
7F87F8000000
7FFFF8000000
7FFFF0000000
3FFFE0000000
0FFF80000000
007000000000
ENDCHAR
STARTCHAR 0637
ENCODING 1591
SWIDTH 528 0
DWIDTH 22 0
BBX 23 28 -1 6
BITMAP
020000
020000
078000
07E000
07E000
0FE000
07C000
07C000
03C000
038000
038000
038000
01C000
01C0F0
01C3F8
01CFFC
01DFFE
01FFFE
01FFFE
01F81E
07E00E
0F801E
FF07FE
FFFFFE
FFFFFE
FFFFFE
FFFFFE
FFFFFE
ENDCHAR
STARTCHAR 0638
ENCODING 1592
SWIDTH 528 0
DWIDTH 22 0
BBX 23 28 -1 6
BITMAP
020000
020000
078000
07E000
07E300
0FE3C0
07C7E0
07C7E0
03C7C0
0381C0
038000
038000
01C000
01C0F0
01C3F8
01CFFC
01DFFE
01FFFE
01FFFE
01F81E
07E00E
0F801E
FF07FE
FFFFFE
FFFFFE
FFFFFE
FFFFFE
FFFFFE
ENDCHAR
STARTCHAR 0639
ENCODING 1593
SWIDTH 552 0
DWIDTH 23 0
BBX 21 34 1 -9
BITMAP
01E000
0FF800
1FFE00
1FFF00
3F0000
380000
300000
780040
7C0780
7E1F80
3FFF80
3FFF00
1FFE00
1FF000
1F8000
1F0000
3C0000
780000
700000
600000
E00000
C00000
C00000
E00000
E00000
F00000
FC0000
7F8000
7FFFF8
3FFFF0
3FFFC0
1FFF80
07FE00
001000
ENDCHAR
STARTCHAR 063A
ENCODING 1594
SWIDTH 552 0
DWIDTH 23 0
BBX 21 43 1 -9
BITMAP
030000
07C000
07E000
0FE000
0FC000
038000
008000
000000
000000
01E000
0FF800
1FFE00
1FFF00
3F0000
380000
300000
780040
7C0780
7E1F80
3FFF80
3FFF00
1FFE00
1FF000
1F8000
1F0000
3C0000
780000
700000
600000
E00000
C00000
C00000
E00000
E00000
F00000
FC0000
7F8000
7FFFF8
3FFFF0
3FFFC0
1FFF80
07FE00
001000
ENDCHAR
STARTCHAR 0640
ENCODING 1600
SWIDTH 192 0
DWIDTH 8 0
BBX 9 6 -1 6
BITMAP
FF80
FF80
FF80
FF80
FF80
FF80
ENDCHAR
STARTCHAR 0641
ENCODING 1601
SWIDTH 768 0
DWIDTH 32 0
BBX 31 27 1 5
BITMAP
000000C0
000001F0
000001F8
000003F0
000001F0
000000E0
00000020
00000000
00000000
00000070
000000F8
200001FC
300003FC
200003FC
600007FC
6000073C
C000071C
C00007DE
E00007FE
F00007FE
FC003FFE
FFFFFFFE
FFFFFFFE
FFFFFFFE
7FFFFFFE
3FFFFFFE
03F80000
ENDCHAR
STARTCHAR 0642
ENCODING 1602
SWIDTH 624 0
DWIDTH 26 0
BBX 25 32 1 -5
BITMAP
00001C00
00011E00
0001FE00
0003FE00
0003DC00
0007C400
00018000
00000000
00003C00
00007E00
0000FE00
0000FF00
0000FF00
0801DF00
0C018F00
1801C700
3001FF80
3001FF80
6001FF80
6000FF80
60007F80
C0000180
C0000180
E0000380
E0000300
F0000F00
FC003F00
FFFFFF00
7FFFFE00
7FFFFC00
1FFFF000
07FFC000
ENDCHAR
STARTCHAR 0643
ENCODING 1603
SWIDTH 552 0
DWIDTH 23 0
BBX 22 26 1 6
BITMAP
000040
0000C0
0000F0
0008F8
0019F8
0039F8
0038F8
006070
007060
007C70
007E70
007E70
203C30
200C30
603838
63F038
C18038
C00018
E00018
E00018
FF801C
FFFFFC
FFFFFC
7FFFFC
3FFFFC
0FFFFC
ENDCHAR
STARTCHAR 0644
ENCODING 1604
SWIDTH 456 0
DWIDTH 19 0
BBX 18 33 1 -2
BITMAP
000600
000600
000700
000FC0
000FC0
000F80
000780
000780
000700
000700
000700
000300
000300
000380
000380
000380
180180
100180
3001C0
6001C0
6001C0
4001C0
C001C0
C001C0
C001C0
C003C0
E007C0
F81F80
FFFF80
FFFF00
7FFE00
7FFC00
1FF000
ENDCHAR
STARTCHAR 0645
ENCODING 1605
SWIDTH 360 0
DWIDTH 15 0
BBX 14 26 1 -9
BITMAP
0380
0FC0
0FE0
1FF0
1FF8
31F8
20FC
03FC
1FFC
7FFC
7FFC
FFFC
FC00
C000
C000
C000
E000
6000
6000
7000
7000
3000
3000
3000
3000
2000
ENDCHAR
STARTCHAR 0646
ENCODING 1606
SWIDTH 552 0
DWIDTH 23 0
BBX 22 28 1 -2
BITMAP
003000
007C00
007E00
00FC00
00FC00
003800
000010
000010
000038
0C0038
0C0038
180078
10003C
30003C
20001C
60001C
60000C
60000C
E0000C
E0001C
F00038
F80078
FF87F8
7FFFF8
7FFFF0
3FFFE0
0FFF80
007800
ENDCHAR
STARTCHAR 0647
ENCODING 1607
SWIDTH 336 0
DWIDTH 14 0
BBX 11 16 2 6
BITMAP
1800
3E00
3F00
7F80
3FC0
6FC0
67E0
43E0
C1E0
C1E0
FFC0
FFC0
FFC0
FF80
7E00
3800
ENDCHAR
STARTCHAR 0648
ENCODING 1608
SWIDTH 456 0
DWIDTH 19 0
BBX 19 23 0 -3
BITMAP
000780
000F80
000FC0
001FC0
001FE0
0039E0
0038E0
0038E0
003FE0
003FE0
003FE0
001FE0
001FE0
0003E0
0001E0
0003C0
0007C0
E00F80
787F80
1FFF00
0FFE00
03FC00
00F000
ENDCHAR
STARTCHAR 0649
ENCODING 1609
SWIDTH 648 0
DWIDTH 27 0
BBX 21 22 3 -3
BITMAP
0000F0
0001F8
0003F8
0007F8
000FF8
080E18
101C00
301800
203800
603FF0
603FF0
401FF0
C00FF0
C00030
C000E0
E003E0
F01FC0
FFFFC0
7FFF00
7FFC00
3FF000
020000
ENDCHAR
STARTCHAR 064A
ENCODING 1610
SWIDTH 648 0
DWIDTH 27 0
BBX 21 27 3 -8
BITMAP
0000F0
0001F8
0003F8
0007F8
000FF8
080E18
101C00
301800
203800
603FF0
603FF0
401FF0
C00FF0
C00030
C000E0
E003E0
F01FC0
FFFFC0
7FFF00
7FFC00
3FF000
020000
000C00
01DE00
01FE00
03C400
00C000
ENDCHAR
STARTCHAR 064B
ENCODING 1611
SWIDTH 192 0
DWIDTH 8 0
BBX 7 7 1 29
BITMAP
0E
38
60
06
3C
60
80
ENDCHAR
STARTCHAR 064C
ENCODING 1612
SWIDTH 240 0
DWIDTH 10 0
BBX 8 8 2 28
BITMAP
07
0B
CF
EE
67
5B
70
80
ENDCHAR
STARTCHAR 064D
ENCODING 1613
SWIDTH 192 0
DWIDTH 8 0
BBX 7 7 1 -5
BITMAP
06
38
60
06
3C
60
80
ENDCHAR
STARTCHAR 064E
ENCODING 1614
SWIDTH 192 0
DWIDTH 8 0
BBX 7 4 1 29
BITMAP
06
3C
60
80
ENDCHAR
STARTCHAR 064F
ENCODING 1615
SWIDTH 216 0
DWIDTH 9 0
BBX 7 9 2 28
BITMAP
0C
1C
14
1C
1C
0E
12
60
80
ENDCHAR
STARTCHAR 0650
ENCODING 1616
SWIDTH 192 0
DWIDTH 8 0
BBX 6 3 2 -2
BITMAP
0C
70
C0
ENDCHAR
STARTCHAR 0651
ENCODING 1617
SWIDTH 216 0
DWIDTH 9 0
BBX 8 6 1 28
BITMAP
01
09
0B
9F
FE
70
ENDCHAR
STARTCHAR 0652
ENCODING 1618
SWIDTH 168 0
DWIDTH 7 0
BBX 6 7 1 28
BITMAP
30
78
4C
84
EC
78
20
ENDCHAR
STARTCHAR 0653
ENCODING 1619
SWIDTH 240 0
DWIDTH 10 0
BBX 10 3 0 32
BITMAP
2000
FCC0
1F80
ENDCHAR
STARTCHAR 0654
ENCODING 1620
SWIDTH 216 0
DWIDTH 9 0
BBX 5 6 2 31
BITMAP
38
78
40
78
70
80
ENDCHAR
STARTCHAR 0655
ENCODING 1621
SWIDTH 216 0
DWIDTH 9 0
BBX 5 6 2 -5
BITMAP
18
38
40
60
78
80
ENDCHAR
STARTCHAR 0660
ENCODING 1632
SWIDTH 552 0
DWIDTH 23 0
BBX 7 10 8 9
BITMAP
20
70
78
7C
FE
FE
FC
7C
3C
0C
ENDCHAR
STARTCHAR 0661
ENCODING 1633
SWIDTH 552 0
DWIDTH 23 0
BBX 8 24 7 6
BITMAP
20
30
70
78
78
FC
FC
7E
7E
3E
1E
1F
0F
0F
0F
07
07
07
03
03
03
03
02
02
ENDCHAR
STARTCHAR 0662
ENCODING 1634
SWIDTH 552 0
DWIDTH 23 0
BBX 12 24 5 6
BITMAP
2010
2010
7010
7C30
7FF0
FFF0
7FF0
7FF0
3FE0
1FC0
1F00
0F00
0F00
0780
0780
0380
0380
0380
0180
0180
0180
0180
0180
0100
ENDCHAR
STARTCHAR 0663
ENCODING 1635
SWIDTH 552 0
DWIDTH 23 0
BBX 17 24 3 6
BITMAP
002080
203080
303180
787F80
7FFF80
7FFF80
FFFF80
7FFF00
3FFF00
3F9E00
1F0000
1E0000
0E0000
0F0000
0F0000
070000
070000
070000
070000
070000
030000
020000
020000
020000
ENDCHAR
STARTCHAR 0664
ENCODING 1636
SWIDTH 552 0
DWIDTH 23 0
BBX 11 23 6 7
BITMAP
0100
0300
0700
0F00
1E00
3800
7800
7E00
FF80
FFC0
FF80
7F00
0E00
0C00
1800
3800
3E00
7FE0
7FC0
7FC0
7FC0
3FC0
0380
ENDCHAR
STARTCHAR 0665
ENCODING 1637
SWIDTH 552 0
DWIDTH 23 0
BBX 14 16 5 10
BITMAP
0FC0
0FE0
1FF0
3FF8
3FF8
7FFC
60FC
607C
E01C
F018
FFF8
FFF8
FFF0
FFF0
7FE0
3F80
ENDCHAR
STARTCHAR 0666
ENCODING 1638
SWIDTH 552 0
DWIDTH 23 0
BBX 14 24 4 6
BITMAP
C000
C000
FFE0
FFC0
FFC0
FFC0
FFC0
7FC0
1E40
00C0
00C0
00C0
00E0
00E0
00F0
00F0
00F8
00FC
007C
0078
0078
0038
0018
0008
ENDCHAR
STARTCHAR 0667
ENCODING 1639
SWIDTH 552 0
DWIDTH 23 0
BBX 16 23 3 7
BITMAP
4003
6007
7007
F007
F80F
F80F
FC1F
7C1E
3C1C
1E1C
1E38
0E30
0730
0730
0360
03E0
03E0
01E0
01C0
01C0
00C0
00C0
00C0
ENDCHAR
STARTCHAR 0668
ENCODING 1640
SWIDTH 552 0
DWIDTH 23 0
BBX 16 23 4 6
BITMAP
0300
0300
0300
0380
0780
0780
07C0
07C0
06C0
0CE0
0CE0
1C70
1C78
3878
383C
783E
F03F
F01F
F01E
E00E
E00E
C006
C002
ENDCHAR
STARTCHAR 0669
ENCODING 1641
SWIDTH 552 0
DWIDTH 23 0
BBX 13 24 5 6
BITMAP
0F00
1F80
3F80
3FC0
7FC0
73C0
E1C0
E1C0
FFC0
FFC0
FFC0
FFC0
7FC0
1CC0
00C0
00E0
00F0
00F8
00F8
00F0
0070
0070
0070
0020
ENDCHAR
STARTCHAR 066A
ENCODING 1642
SWIDTH 528 0
DWIDTH 22 0
BBX 16 28 3 4
BITMAP
7803
7C06
7C06
7C0C
380C
0018
0018
0030
0030
0060
0060
00C0
00C0
0180
0180
0300
0300
0600
0600
0C00
0C00
1800
1800
301C
303E
603E
603E
C01E
ENDCHAR
STARTCHAR 066B
ENCODING 1643
SWIDTH 312 0
DWIDTH 13 0
BBX 6 10 4 1
BITMAP
70
F8
FC
FC
78
18
30
30
E0
80
ENDCHAR
STARTCHAR 066C
ENCODING 1644
SWIDTH 312 0
DWIDTH 13 0
BBX 7 12 3 6
BITMAP
08
18
30
60
60
60
70
FC
7E
7E
7E
3C
ENDCHAR
STARTCHAR 066D
ENCODING 1645
SWIDTH 528 0
DWIDTH 22 0
BBX 14 14 4 17
BITMAP
0300
0700
7770
7B70
3AE0
0E80
F57C
FDFC
0780
1AE0
3B70
7370
2720
0700
ENDCHAR
STARTCHAR 066E
ENCODING 1646
SWIDTH 648 0
DWIDTH 27 0
BBX 26 14 1 6
BITMAP
30000100
20000180
60000180
600003C0
400003C0
E00001C0
E00001C0
F00000C0
FF8000C0
FFFFFFC0
7FFFFFC0
7FFFFFC0
3FFFFFC0
0FFFFFC0
ENDCHAR
STARTCHAR 066F
ENCODING 1647
SWIDTH 624 0
DWIDTH 26 0
BBX 25 24 1 -5
BITMAP
00003C00
00007E00
0000FE00
0000FF00
0000FF00
0801DF00
0C018F00
1801C700
3001FF80
3001FF80
6001FF80
6000FF80
60007F80
C0000180
C0000180
E0000380
E0000300
F0000F00
FC003F00
FFFFFF00
7FFFFE00
7FFFFC00
1FFFF000
07FFC000
ENDCHAR
STARTCHAR 0670
ENCODING 1648
SWIDTH 0 0
DWIDTH 0 0
BBX 2 11 -1 23
BITMAP
80
80
C0
C0
C0
40
40
40
40
40
40
ENDCHAR
STARTCHAR 0671
ENCODING 1649
SWIDTH 216 0
DWIDTH 9 0
BBX 9 32 0 5
BITMAP
0700
0980
1180
7F00
FE00
8000
0000
0800
0C00
0C00
1C00
1C00
1C00
1C00
1E00
1E00
0E00
0E00
0E00
0E00
0E00
0E00
0E00
0F00
0700
0700
0600
0600
0600
0600
0C00
0C00
ENDCHAR
STARTCHAR 0672
ENCODING 1650
SWIDTH 216 0
DWIDTH 9 0
BBX 8 32 0 5
BITMAP
0E
1C
10
1E
5C
A0
00
08
0C
0C
1C
1C
1C
1C
1E
1E
0E
0E
0E
0E
0E
0E
0E
0F
07
07
06
06
06
06
0C
0C
ENDCHAR
STARTCHAR 0673
ENCODING 1651
SWIDTH 216 0
DWIDTH 9 0
BBX 7 33 1 -3
BITMAP
10
18
18
38
38
38
38
3C
3C
1C
1C
1C
1C
1C
1C
1C
1E
0E
0E
0C
0C
0C
0C
18
18
00
00
00
0C
30
30
1E
F8
ENDCHAR
STARTCHAR 0674
ENCODING 1652
SWIDTH 216 0
DWIDTH 9 0
BBX 5 6 2 31
BITMAP
38
78
40
78
70
80
ENDCHAR
STARTCHAR 0675
ENCODING 1653
SWIDTH 216 0
DWIDTH 9 0
BBX 9 26 3 5
BITMAP
0380
4780
6400
6780
E700
E800
E000
E000
F000
F000
7000
7000
7000
7000
7000
7000
7000
7800
3800
3800
3000
3000
3000
3000
6000
6000
ENDCHAR
STARTCHAR 0676
ENCODING 1654
SWIDTH 456 0
DWIDTH 19 0
BBX 21 32 0 -3
BITMAP
000030
000070
000080
0000E8
000070
000100
000000
000000
000000
000780
000F80
000FC0
001FC0
001FE0
0039E0
0038E0
0038E0
003FE0
003FE0
003FE0
001FE0
001FE0
0003E0
0001E0
0003C0
0007C0
E00F80
787F80
1FFF00
0FFE00
03FC00
00F000
ENDCHAR
STARTCHAR 0677
ENCODING 1655
SWIDTH 456 0
DWIDTH 19 0
BBX 21 33 0 -3
BITMAP
001800
003C30
002870
003880
003CE8
001C70
002100
00C000
010000
000000
000780
000F80
000FC0
001FC0
001FE0
0039E0
0038E0
0038E0
003FE0
003FE0
003FE0
001FE0
001FE0
0003E0
0001E0
0003C0
0007C0
E00F80
787F80
1FFF00
0FFE00
03FC00
00F000
ENDCHAR
STARTCHAR 0678
ENCODING 1656
SWIDTH 648 0
DWIDTH 27 0
BBX 24 32 3 -3
BITMAP
000006
00000E
000010
00001D
00000E
000030
000000
000000
000000
000000
0000F0
0001F8
0003F8
0007F8
000FF8
080E18
101C00
301800
203800
603FF0
603FF0
401FF0
C00FF0
C00030
C000E0
E003E0
F01FC0
FFFFC0
7FFF00
7FFC00
3FF000
020000
ENDCHAR
STARTCHAR 0679
ENCODING 1657
SWIDTH 648 0
DWIDTH 27 0
BBX 26 28 1 7
BITMAP
00300000
00380000
00380000
00100000
00100000
00118000
0013C000
001FE000
00186000
00706000
00FFE000
00FFE000
00000000
00000000
30000100
20000180
60000180
600003C0
400003C0
E00001C0
E00001C0
F00000C0
FF8000C0
FFFFFFC0
7FFFFFC0
7FFFFFC0
3FFFFFC0
0FFFFFC0
ENDCHAR
STARTCHAR 067A
ENCODING 1658
SWIDTH 648 0
DWIDTH 27 0
BBX 26 26 1 6
BITMAP
00200000
00380000
007C0000
007C0000
00780000
00180000
00060000
000F8000
000F8000
001F0000
00070000
00000000
30000100
20000180
60000180
600003C0
400003C0
E00001C0
E00001C0
F00000C0
FF8000C0
FFFFFFC0
7FFFFFC0
7FFFFFC0
3FFFFFC0
0FFFFFC0
ENDCHAR
STARTCHAR 067B
ENCODING 1659
SWIDTH 648 0
DWIDTH 27 0
BBX 26 27 1 -7
BITMAP
30000100
20000180
60000180
600003C0
400003C0
E00001C0
E00001C0
F00000C0
FF8000C0
FFFFFFC0
7FFFFFC0
7FFFFFC0
3FFFFFC0
0FFFFFC0
00000000
00000000
000C0000
000F0000
001F0000
001E0000
000E0000
00010000
0001C000
0003E000
0003C000
0003C000
00008000
ENDCHAR
STARTCHAR 067C
ENCODING 1660
SWIDTH 648 0
DWIDTH 27 0
BBX 26 26 1 1
BITMAP
00018000
0023C000
003BC000
007FC000
007F8000
00788000
00380000
30000100
20000180
60000180
600003C0
400003C0
E00001C0
E00001C0
F00000C0
FF8000C0
FFFFFFC0
7FFFFFC0
7FFFFFC0
3FFFFFC0
0FFFFFC0
00138000
00118000
00190000
001F0000
000C0000
ENDCHAR
STARTCHAR 067D
ENCODING 1661
SWIDTH 648 0
DWIDTH 27 0
BBX 26 26 1 6
BITMAP
00020000
00038000
0067C000
007F8000
00FF8000
00F10000
00740000
00270000
000F8000
000F8000
001F0000
00070000
30000100
20000180
60000180
600003C0
400003C0
E00001C0
E00001C0
F00000C0
FF8000C0
FFFFFFC0
7FFFFFC0
7FFFFFC0
3FFFFFC0
0FFFFFC0
ENDCHAR
STARTCHAR 067E
ENCODING 1662
SWIDTH 648 0
DWIDTH 27 0
BBX 26 28 1 -8
BITMAP
30000100
20000180
60000180
600003C0
400003C0
E00001C0
E00001C0
F00000C0
FF8000C0
FFFFFFC0
7FFFFFC0
7FFFFFC0
3FFFFFC0
0FFFFFC0
00000000
00000000
00018000
0003E000
003BE000
007FC000
007D8000
00780000
001B0000
0003C000
0007C000
00078000
00078000
00018000
ENDCHAR
STARTCHAR 067F
ENCODING 1663
SWIDTH 648 0
DWIDTH 27 0
BBX 26 26 1 7
BITMAP
000E0000
008F8000
00FF0000
01FF0000
01E60000
01E18000
0041E000
001BE000
003FE000
007DC000
007C0000
00180000
30080100
20000180
60000180
600003C0
400003C0
E00001C0
E00001C0
F00000C0
FF8000C0
FFFFFFC0
7FFFFFC0
7FFFFFC0
3FFFFFC0
0FFFFFC0
ENDCHAR
STARTCHAR 0680
ENCODING 1664
SWIDTH 648 0
DWIDTH 27 0
BBX 26 29 1 -9
BITMAP
30000100
20000180
60000180
600003C0
400003C0
E00001C0
E00001C0
F00000C0
FF8000C0
FFFFFFC0
7FFFFFC0
7FFFFFC0
3FFFFFC0
0FFFFFC0
00000000
00000000
00030000
0047C000
0077C000
00FF8000
00FB0000
00F04000
0030F000
000CF000
001FF000
001FE000
003E2000
000C0000
00040000
ENDCHAR
STARTCHAR 0681
ENCODING 1665
SWIDTH 576 0
DWIDTH 24 0
BBX 22 38 1 -7
BITMAP
001C00
002000
003000
003C00
003000
000000
000000
000000
07FC00
1FFFF0
3FFFF0
7FFFF0
7FFFE0
7FFFE0
C3FE00
07E000
0F8000
1E0000
1C0000
380000
300000
700000
600000
600000
600000
600000
E00000
F00000
700000
780000
7C0000
7F0000
7FE000
3FFFFC
1FFFF8
0FFFE0
07FFC0
01FF00
ENDCHAR
STARTCHAR 0682
ENCODING 1666
SWIDTH 576 0
DWIDTH 24 0
BBX 22 43 1 -7
BITMAP
01C000
01E000
03E000
03C000
01C000
007000
003C00
007C00
007800
007800
001000
000000
000000
07FC00
1FFFF0
3FFFF0
7FFFF0
7FFFE0
7FFFE0
C3FE00
07E000
0F8000
1E0000
1C0000
380000
300000
700000
600000
600000
600000
600000
E00000
F00000
700000
780000
7C0000
7F0000
7FE000
3FFFFC
1FFFF8
0FFFE0
07FFC0
01FF00
ENDCHAR
STARTCHAR 0683
ENCODING 1667
SWIDTH 576 0
DWIDTH 24 0
BBX 22 30 1 -8
BITMAP
07FC00
1FFFF0
3FFFF0
7FFFF0
7FFFE0
7FFFE0
C3FE00
07E000
0F8000
1E0000
1C0000
380000
300700
7047C0
607F80
60FF80
60F300
60F000
E02000
F00000
700000
780000
7C0000
7F0000
7FE000
3FFFFC
1FFFF8
0FFFE0
07FFC0
01FF00
ENDCHAR
STARTCHAR 0684
ENCODING 1668
SWIDTH 576 0
DWIDTH 24 0
BBX 22 30 1 -8
BITMAP
07FC00
1FFFF0
3FFFF0
7FFFF0
7FFFE0
7FFFE0
C3FE00
07E000
0F8000
1E0000
1C0000
382000
307800
707C00
60F800
607800
601000
600E00
E00F80
F01F00
701F00
780600
7C0000
7F0000
7FE000
3FFFFC
1FFFF8
0FFFE0
07FFC0
01FF00
ENDCHAR
STARTCHAR 0685
ENCODING 1669
SWIDTH 576 0
DWIDTH 24 0
BBX 22 44 1 -7
BITMAP
006000
00F800
00F000
01F000
006400
000700
00CF80
00FF00
01FF00
01E600
01E000
004000
000000
000000
07FC00
1FFFF0
3FFFF0
7FFFF0
7FFFE0
7FFFE0
C3FE00
07E000
0F8000
1E0000
1C0000
380000
300000
700000
600000
600000
600000
600000
E00000
F00000
700000
780000
7C0000
7F0000
7FE000
3FFFFC
1FFFF8
0FFFE0
07FFC0
01FF00
ENDCHAR
STARTCHAR 0686
ENCODING 1670
SWIDTH 576 0
DWIDTH 24 0
BBX 22 30 1 -8
BITMAP
07FC00
1FFFF0
3FFFF0
7FFFF0
7FFFE0
7FFFE0
C3FE00
07E000
0F8000
1E0000
1C0400
380F00
30CF80
70FF00
61FF00
61E200
60E800
600E00
E01F00
F01F00
703E00
780E00
7C0000
7F0000
7FE000
3FFFFC
1FFFF8
0FFFE0
07FFC0
01FF00
ENDCHAR
STARTCHAR 0687
ENCODING 1671
SWIDTH 576 0
DWIDTH 24 0
BBX 22 30 1 -8
BITMAP
07FC00
1FFFF0
3FFFF0
7FFFF0
7FFFE0
7FFFE0
C3FE00
07E000
0F8000
1E0400
1C0600
384F80
30FF80
71FF00
61F700
61E080
6071E0
601DF0
E03FE0
F03FC0
707C40
781C00
7C0000
7F0000
7FE000
3FFFFC
1FFFF8
0FFFE0
07FFC0
01FF00
ENDCHAR
STARTCHAR 0688
ENCODING 1672
SWIDTH 336 0
DWIDTH 14 0
BBX 12 31 2 6
BITMAP
2000
3800
3800
3800
1000
1000
19C0
17E0
1FE0
3860
F3E0
FFE0
FFE0
0000
0180
01C0
01C0
01E0
03E0
03F0
01F0
00F0
0070
0030
8030
E030
FFF0
FFF0
FFF0
FFF0
7FF0
ENDCHAR
STARTCHAR 0689
ENCODING 1673
SWIDTH 336 0
DWIDTH 14 0
BBX 12 24 2 1
BITMAP
0100
0180
01C0
01E0
03E0
03E0
01F0
00F0
0070
0070
0030
0030
8030
E030
FFF0
FFF0
FFF0
FFF0
7FF0
0980
0880
0C80
0F80
0600
ENDCHAR
STARTCHAR 068A
ENCODING 1674
SWIDTH 336 0
DWIDTH 14 0
BBX 12 28 2 -3
BITMAP
0100
0180
01C0
01E0
03E0
03E0
01F0
00F0
0070
0070
0030
0030
8030
E030
FFF0
FFF0
FFF0
FFF0
7FF0
0000
0000
0600
0F80
0FC0
1F80
0F80
0700
0100
ENDCHAR
STARTCHAR 068B
ENCODING 1675
SWIDTH 336 0
DWIDTH 14 0
BBX 12 40 2 -3
BITMAP
2000
3800
3800
3800
1000
1000
19C0
17E0
1FE0
3860
F3E0
FFE0
FFE0
0000
0180
01C0
01C0
01E0
03E0
03F0
01F0
00F0
0070
0030
8030
E030
FFF0
FFF0
FFF0
FFF0
7FF0
0000
0000
0600
0F80
0FC0
1F80
0F80
0700
0100
ENDCHAR
STARTCHAR 068C
ENCODING 1676
SWIDTH 336 0
DWIDTH 14 0
BBX 12 29 2 6
BITMAP
0300
23C0
3FC0
7FC0
7B80
F880
3000
0000
0000
0000
0100
0180
01C0
01E0
03E0
03E0
01F0
00F0
0070
0070
0030
0030
8030
E030
FFF0
FFF0
FFF0
FFF0
7FF0
ENDCHAR
STARTCHAR 068D
ENCODING 1677
SWIDTH 336 0
DWIDTH 14 0
BBX 12 28 2 -3
BITMAP
0100
0180
01C0
01E0
03E0
03E0
01F0
00F0
0070
0070
0030
0030
8030
E030
FFF0
FFF0
FFF0
FFF0
7FF0
0000
0000
00C0
11F0
1DE0
3FE0
3CC0
3C00
1800
ENDCHAR
STARTCHAR 068E
ENCODING 1678
SWIDTH 336 0
DWIDTH 14 0
BBX 12 31 2 6
BITMAP
1000
1C00
3E00
3C00
3C00
0980
03E0
3BE0
3FC0
7FC0
7880
3800
0000
0000
0180
01C0
01C0
01E0
03E0
03F0
01F0
00F0
0070
0030
8030
E030
FFF0
FFF0
FFF0
FFF0
7FF0
ENDCHAR
STARTCHAR 068F
ENCODING 1679
SWIDTH 336 0
DWIDTH 14 0
BBX 13 31 1 6
BITMAP
0300
0380
37C0
7FC0
7F80
F980
7000
1700
07C0
0F80
0F80
0300
0000
0000
00C0
00E0
00E0
00F0
01F0
01F8
00F8
0078
0038
0018
4018
7018
7FF8
7FF8
7FF8
7FF8
3FF8
ENDCHAR
STARTCHAR 0690
ENCODING 1680
SWIDTH 336 0
DWIDTH 14 0
BBX 13 31 1 6
BITMAP
0200
0380
77C0
7F80
FF80
F900
7060
1CF8
0EF0
1FF0
1E60
1E00
0400
0000
00C0
00E0
00E0
00F0
01F0
01F8
00F8
0078
0038
0018
4018
7018
7FF8
7FF8
7FF8
7FF8
3FF8
ENDCHAR
STARTCHAR 0691
ENCODING 1681
SWIDTH 432 0
DWIDTH 18 0
BBX 18 38 0 -3
BITMAP
004000
006000
007000
006000
006000
002000
002300
002F80
003F80
007080
00E180
03FF80
03FF80
000000
000000
000000
000100
000180
000180
000380
0003C0
0003C0
0001C0
0000C0
0000C0
0000C0
0000C0
0000C0
0001C0
0003C0
0007C0
000F80
401F80
E07F00
3FFE00
1FFC00
07F800
01E000
ENDCHAR
STARTCHAR 0692
ENCODING 1682
SWIDTH 432 0
DWIDTH 18 0
BBX 18 29 0 -3
BITMAP
001980
001F80
000F00
000F00
000000
000000
000000
000100
000180
000180
000380
0003C0
0003C0
0001C0
0000C0
0000C0
0000C0
0000C0
0000C0
0001C0
0003C0
0007C0
000F80
401F80
E07F00
3FFE00
1FFC00
07F800
01E000
ENDCHAR
STARTCHAR 0693
ENCODING 1683
SWIDTH 432 0
DWIDTH 18 0
BBX 19 23 0 -4
BITMAP
000100
000180
000180
000380
0003C0
0003C0
0001C0
0000C0
0000C0
0000C0
0000C0
0000C0
0001C0
0003C0
0007C0
000F80
401F80
E07FC0
3FFFE0
1FFE60
07FA20
01E3E0
0003C0
ENDCHAR
STARTCHAR 0694
ENCODING 1684
SWIDTH 432 0
DWIDTH 18 0
BBX 21 26 0 -8
BITMAP
000100
000180
000180
000380
0003C0
0003C0
0001C0
0000C0
0000C0
0000C0
0000C0
0000C0
0001C0
0003C0
0007C0
000F80
401F80
E07F00
3FFE00
1FFC00
07F8C0
01E1F0
0001F8
0003F0
0001F0
000060
ENDCHAR
STARTCHAR 0695
ENCODING 1685
SWIDTH 432 0
DWIDTH 18 0
BBX 21 27 0 -8
BITMAP
000100
000180
000180
000380
0003C0
0003C0
0001C0
0000C0
0000C0
0000C0
0000C0
0000C0
0001C0
0003C0
0007C0
000F80
401F80
E07F00
3FFE00
1FFC00
07F800
01E000
000738
000330
0003E0
0001E0
0001C0
ENDCHAR
STARTCHAR 0696
ENCODING 1686
SWIDTH 432 0
DWIDTH 18 0
BBX 21 26 0 -8
BITMAP
000100
000180
000180
000380
0003C0
0003C0
0001C0
00C0C0
00F0C0
01F8C0
01F8C0
03F0C0
00F1C0
0023C0
0007C0
000F80
401F80
E07F00
3FFE00
1FFC00
07F8C0
01E1F0
0001F8
0003F0
0001F0
000060
ENDCHAR
ENDFONT
